<svg height="512" viewBox="0 0 46 60" width="512" xmlns="http://www.w3.org/2000/svg"><g id="Page-1" fill="none" fill-rule="evenodd"><g id="017---Juice-Fridge" fill-rule="nonzero"><rect id="Rectangle-path" fill="#f5f5f5" height="4" rx="1" width="44" x="1" y="1"/><path id="Shape" d="m44 1h-3c.5522847 0 1 .44771525 1 1v2c0 .55228475-.4477153 1-1 1h3c.5522847 0 1-.44771525 1-1v-2c0-.55228475-.4477153-1-1-1z" fill="#cfd8dc"/><rect id="Rectangle-path" fill="#f5f5f5" height="8" rx="1" width="44" x="1" y="51"/><path id="Shape" d="m44 51h-3c.5522847 0 1 .4477153 1 1v6c0 .5522847-.4477153 1-1 1h3c.5522847 0 1-.4477153 1-1v-6c0-.5522847-.4477153-1-1-1z" fill="#cfd8dc"/><path id="Rectangle-path" d="m2 5h42v46h-42z" fill="#00838f"/><path id="Shape" d="m7 55h2c1.1045695 0 2 .8954305 2 2v2h-6v-2c0-1.1045695.8954305-2 2-2z" fill="#7f8e94"/><path id="Shape" d="m37 55h2c1.1045695 0 2 .8954305 2 2v2h-6v-2c0-1.1045695.8954305-2 2-2z" fill="#7f8e94"/><path id="Rectangle-path" d="m2 34h42v4h-42z" fill="#9e9e9e"/><path id="Rectangle-path" d="m41 34h3v4h-3z" fill="#707070"/><path id="Rectangle-path" d="m2 18h42v4h-42z" fill="#9e9e9e"/><path id="Rectangle-path" d="m41 18h3v4h-3z" fill="#707070"/><path id="Rectangle-path" d="m9 5h4v4h-4z" fill="#cfd8dc"/><path id="Shape" d="m15 11v7h-8v-7c.0032948-1.10320187.89679813-1.9967052 2-2h4c1.1032019.0032948 1.9967052.89679813 2 2z" fill="#ef314c"/><path id="Shape" d="m13 9h-3c1.1032019.0032948 1.9967052.89679813 2 2v7h3v-7c-.0032948-1.10320187-.8967981-1.9967052-2-2z" fill="#bb193b"/><path id="Rectangle-path" d="m17 5h4v4h-4z" fill="#cfd8dc"/><path id="Shape" d="m23 11v7h-8v-7c.0032948-1.10320187.8967981-1.9967052 2-2h4c1.1032019.0032948 1.9967052.89679813 2 2z" fill="#ef314c"/><path id="Shape" d="m21 9h-3c1.1032019.0032948 1.9967052.89679813 2 2v7h3v-7c-.0032948-1.10320187-.8967981-1.9967052-2-2z" fill="#bb193b"/><path id="Rectangle-path" d="m25 5h4v4h-4z" fill="#cfd8dc"/><path id="Shape" d="m31 11v7h-8v-7c.0032948-1.10320187.8967981-1.9967052 2-2h4c1.1032019.0032948 1.9967052.89679813 2 2z" fill="#ef314c"/><path id="Shape" d="m29 9h-3c1.1032019.0032948 1.9967052.89679813 2 2v7h3v-7c-.0032948-1.10320187-.8967981-1.9967052-2-2z" fill="#bb193b"/><path id="Rectangle-path" d="m33 5h4v4h-4z" fill="#cfd8dc"/><path id="Shape" d="m39 11v7h-8v-7c.0032948-1.10320187.8967981-1.9967052 2-2h4c1.1032019.0032948 1.9967052.89679813 2 2z" fill="#ef314c"/><path id="Shape" d="m37 9h-3c1.1032019.0032948 1.9967052.89679813 2 2v7h3v-7c-.0032948-1.10320187-.8967981-1.9967052-2-2z" fill="#bb193b"/><path id="Rectangle-path" d="m9 22h4v4h-4z" fill="#cfd8dc"/><path id="Shape" d="m15 28v6h-8v-6c.0032948-1.1032019.89679813-1.9967052 2-2h4c1.1032019.0032948 1.9967052.8967981 2 2z" fill="#02a9f4"/><path id="Shape" d="m13 26h-3c1.1032019.0032948 1.9967052.8967981 2 2v6h3v-6c-.0032948-1.1032019-.8967981-1.9967052-2-2z" fill="#0377bc"/><path id="Rectangle-path" d="m17 22h4v4h-4z" fill="#cfd8dc"/><path id="Shape" d="m23 28v6h-8v-6c.0032948-1.1032019.8967981-1.9967052 2-2h4c1.1032019.0032948 1.9967052.8967981 2 2z" fill="#02a9f4"/><path id="Shape" d="m21 26h-3c1.1032019.0032948 1.9967052.8967981 2 2v6h3v-6c-.0032948-1.1032019-.8967981-1.9967052-2-2z" fill="#0377bc"/><path id="Rectangle-path" d="m25 22h4v4h-4z" fill="#cfd8dc"/><path id="Shape" d="m31 28v6h-8v-6c.0032948-1.1032019.8967981-1.9967052 2-2h4c1.1032019.0032948 1.9967052.8967981 2 2z" fill="#02a9f4"/><path id="Shape" d="m29 26h-3c1.1032019.0032948 1.9967052.8967981 2 2v6h3v-6c-.0032948-1.1032019-.8967981-1.9967052-2-2z" fill="#0377bc"/><path id="Rectangle-path" d="m33 22h4v4h-4z" fill="#cfd8dc"/><path id="Shape" d="m39 28v6h-8v-6c.0032948-1.1032019.8967981-1.9967052 2-2h4c1.1032019.0032948 1.9967052.8967981 2 2z" fill="#02a9f4"/><path id="Shape" d="m37 26h-3c1.1032019.0032948 1.9967052.8967981 2 2v6h3v-6c-.0032948-1.1032019-.8967981-1.9967052-2-2z" fill="#0377bc"/><path id="Rectangle-path" d="m9 38h4v4h-4z" fill="#cfd8dc"/><path id="Shape" d="m15 44v7h-8v-7c.0032948-1.1032019.89679813-1.9967052 2-2h4c1.1032019.0032948 1.9967052.8967981 2 2z" fill="#ffdc00"/><path id="Shape" d="m13 42h-3c1.1032019.0032948 1.9967052.8967981 2 2v7h3v-7c-.0032948-1.1032019-.8967981-1.9967052-2-2z" fill="#fec108"/><path id="Rectangle-path" d="m17 38h4v4h-4z" fill="#cfd8dc"/><path id="Shape" d="m23 44v7h-8v-7c.0032948-1.1032019.8967981-1.9967052 2-2h4c1.1032019.0032948 1.9967052.8967981 2 2z" fill="#ffdc00"/><path id="Shape" d="m21 42h-3c1.1032019.0032948 1.9967052.8967981 2 2v7h3v-7c-.0032948-1.1032019-.8967981-1.9967052-2-2z" fill="#fec108"/><path id="Rectangle-path" d="m25 38h4v4h-4z" fill="#cfd8dc"/><path id="Shape" d="m31 44v7h-8v-7c.0032948-1.1032019.8967981-1.9967052 2-2h4c1.1032019.0032948 1.9967052.8967981 2 2z" fill="#ffdc00"/><path id="Shape" d="m29 42h-3c1.1032019.0032948 1.9967052.8967981 2 2v7h3v-7c-.0032948-1.1032019-.8967981-1.9967052-2-2z" fill="#fec108"/><path id="Rectangle-path" d="m33 38h4v4h-4z" fill="#cfd8dc"/><path id="Shape" d="m39 44v7h-8v-7c.0032948-1.1032019.8967981-1.9967052 2-2h4c1.1032019.0032948 1.9967052.8967981 2 2z" fill="#ffdc00"/><path id="Shape" d="m37 42h-3c1.1032019.0032948 1.9967052.8967981 2 2v7h3v-7c-.0032948-1.1032019-.8967981-1.9967052-2-2z" fill="#fec108"/><g fill="#000"><path id="Shape" d="m17 53c-.5522847 0-1 .4477153-1 1v1c0 .5522847.4477153 1 1 1s1-.4477153 1-1v-1c0-.5522847-.4477153-1-1-1z"/><path id="Shape" d="m21 53c-.5522847 0-1 .4477153-1 1v1c0 .5522847.4477153 1 1 1s1-.4477153 1-1v-1c0-.5522847-.4477153-1-1-1z"/><path id="Shape" d="m25 53c-.5522847 0-1 .4477153-1 1v1c0 .5522847.4477153 1 1 1s1-.4477153 1-1v-1c0-.5522847-.4477153-1-1-1z"/><path id="Shape" d="m29 53c-.5522847 0-1 .4477153-1 1v1c0 .5522847.4477153 1 1 1s1-.4477153 1-1v-1c0-.5522847-.4477153-1-1-1z"/><path id="Shape" d="m1 22v28.278c-.61675126.3544126-.997855 1.0106732-1 1.722v6c0 1.1045695.8954305 2 2 2h42c1.1045695 0 2-.8954305 2-2v-6c-.002145-.7113268-.3832487-1.3675874-1-1.722v-44.556c.6167513-.35441258.997855-1.01067322 1-1.722v-2c0-1.1045695-.8954305-2-2-2h-42c-1.1045695 0-2 .8954305-2 2v2c.002145.71132678.38324874 1.36758742 1 1.722zm15-16v2.184c-.3694947.13240257-.7092944.33628239-1 .6-.2907056-.26371761-.6305053-.46759743-1-.6v-2.184zm8 0v2.184c-.3694947.13240257-.7092944.33628239-1 .6-.2907056-.26371761-.6305053-.46759743-1-.6v-2.184zm8 0v2.184c-.3694947.13240257-.7092944.33628239-1 .6-.2907056-.26371761-.6305053-.46759743-1-.6v-2.184zm11 0v11h-3v-6c-.0052514-1.26678543-.8056491-2.39374545-2-2.816v-2.184zm-19 44v-6c0-.5522847.4477153-1 1-1h4c.5522847 0 1 .4477153 1 1v6zm-8 0v-6c0-.5522847.4477153-1 1-1h4c.5522847 0 1 .4477153 1 1v6zm-8 0v-6c0-.5522847.44771525-1 1-1h4c.5522847 0 1 .4477153 1 1v6zm-5 0v-11h5v2.184c-1.19435087.4222546-1.99474861 1.5492146-2 2.816v6zm6-40h4c.5522847 0 1 .4477153 1 1v6h-6v-6c0-.5522847.44771525-1 1-1zm7 1c0-.5522847.4477153-1 1-1h4c.5522847 0 1 .4477153 1 1v6h-6zm8 0c0-.5522847.4477153-1 1-1h4c.5522847 0 1 .4477153 1 1v6h-6zm8 0c0-.5522847.4477153-1 1-1h4c.5522847 0 1 .4477153 1 1v6h-6zm-25 8h36v2h-40v-2zm29 22h-2v-2h2zm-5 .78c-.2907056-.2637176-.6305053-.4675974-1-.6v-2.18h2v2.184c-.3691734.1312069-.7089499.3337137-1 .596zm-8 0c-.2907056-.2637176-.6305053-.4675974-1-.6v-2.18h2v2.184c-.3691734.1312069-.7089499.3337137-1 .596zm-8 0c-.2907056-.2637176-.6305053-.4675974-1-.6v-2.18h2v2.184c-.3691734.1312069-.7089499.3337137-1 .596zm-5-2.78h2v2h-2zm8 0h2v2h-2zm8 0h2v2h-2zm11-2h-34v-2h40v2zm-21-14v2.184c-.3694947.1324026-.7092944.3362824-1 .6-.2907056-.2637176-.6305053-.4675974-1-.6v-2.184zm8 0v2.184c-.3694947.1324026-.7092944.3362824-1 .6-.2907056-.2637176-.6305053-.4675974-1-.6v-2.184zm8 0v2.184c-.3694947.1324026-.7092944.3362824-1 .6-.2907056-.2637176-.6305053-.4675974-1-.6v-2.184zm-8 10v-5c0-.5522847.4477153-1 1-1h4c.5522847 0 1 .4477153 1 1v5zm-8 0v-5c0-.5522847.4477153-1 1-1h4c.5522847 0 1 .4477153 1 1v5zm16-5c0-.5522847.4477153-1 1-1h4c.5522847 0 1 .4477153 1 1v5h-6zm4-3h-2v-2h2zm-8 0h-2v-2h2zm-8 0h-2v-2h2zm-8 0h-2v-2h2zm-3 2h4c.5522847 0 1 .4477153 1 1v5h-6v-5c0-.5522847.44771525-1 1-1zm31 6v-5c-.0052514-1.2667854-.8056491-2.3937454-2-2.816v-2.184h5v10zm-32-10v2.184c-1.19435087.4222546-1.99474861 1.5492146-2 2.816v5h-3v-10zm24 21c0-.5522847.4477153-1 1-1h4c.5522847 0 1 .4477153 1 1v6h-6zm6-2.816v-2.184h5v11h-3v-6c-.0052514-1.2667854-.8056491-2.3937454-2-2.816zm-2-33.184h-2v-2h2zm-8 0h-2v-2h2zm-8 0h-2v-2h2zm-8 0h-2v-2h2zm-4 .184c-1.19435087.42225455-1.99474861 1.54921457-2 2.816v6h-3v-11h5zm-2 49.816v-1c0-.5522847.44771525-1 1-1h2c.55228475 0 1 .4477153 1 1v1zm30 0v-1c0-.5522847.4477153-1 1-1h2c.5522847 0 1 .4477153 1 1v1zm6 0v-1c0-1.6568542-1.3431458-3-3-3h-2c-1.6568542 0-3 1.3431458-3 3v1h-22v-1c0-1.6568542-1.3431458-3-3-3h-2c-1.65685425 0-3 1.3431458-3 3v1h-2v-6h42v6zm-40-56h42v2h-42z"/></g></g></g></svg>