<svg viewBox="0 0 512.00025 512" xmlns="http://www.w3.org/2000/svg"><path d="m512 256c0 141.386719-114.613281 256-256 256s-256-114.613281-256-256 114.613281-256 256-256 256 114.613281 256 256zm0 0" fill="#84deea"/><path d="m499.070312 156.265625-39.878906 39.882813c-7.8125 7.808593-20.476562 7.808593-28.285156 0l-56.570312-56.570313c-7.808594-7.808594-7.808594-20.472656 0-28.285156l39.882812-39.878907c7.808594-7.8125 20.472656-7.8125 28.285156 0l56.566406 56.566407c7.8125 7.8125 7.8125 20.476562 0 28.285156zm0 0" fill="#c92e43"/><path d="m506.140625 135.054688-42.425781-42.425782c-7.808594-7.8125-20.472656-7.8125-28.28125 0l-39.882813 39.878906c-7.8125 7.8125-7.8125 20.472657 0 28.285157l42.425781 42.425781c7.8125 7.8125 20.472657 7.8125 28.285157 0l39.878906-39.878906c7.8125-7.8125 7.8125-20.476563 0-28.285156zm-91.921875 7.070312c-3.90625-3.90625-3.90625-10.238281 0-14.144531l28.285156-28.285157c3.902344-3.902343 10.234375-3.902343 14.140625 0 3.90625 3.90625 3.90625 10.238282 0 14.144532l-28.285156 28.285156c-3.90625 3.902344-10.234375 3.902344-14.140625 0zm21.210938 21.210938c-3.902344-3.902344-3.902344-10.234376 0-14.140626l28.285156-28.285156c3.90625-3.902344 10.238281-3.902344 14.140625 0 3.90625 3.90625 3.90625 10.238282 0 14.144532l-28.28125 28.28125c-3.90625 3.90625-10.238281 3.90625-14.144531 0zm63.640624-7.070313-28.285156 28.285156c-3.902344 3.90625-10.234375 3.90625-14.140625 0s-3.90625-10.238281 0-14.140625l28.285157-28.285156c3.90625-3.90625 10.234374-3.90625 14.140624 0 3.90625 3.902344 3.90625 10.234375 0 14.140625zm0 0" fill="#e43950"/><path d="m258.828125 24.070312c7.8125-7.8125 20.472656-7.8125 28.285156 0l197.988281 197.988282c7.8125 7.808594 7.8125 20.472656 0 28.285156l-259.816406 259.816406c-118.519531-14.175781-212.164062-109.3125-224.011718-228.535156zm0 0" fill="#fc9302"/><path d="m8.6875 322.292969 274.183594-274.183594c7.808594-7.808594 20.472656-7.808594 28.28125 0l173.949218 173.949219c7.8125 7.808594 7.8125 20.472656 0 28.285156l-259.816406 259.816406c-104.6875-12.519531-189.949218-88.207031-216.597656-187.867187zm0 0" fill="#fcb30b"/><path d="m335.890625 371.269531c7.8125 7.808594 7.8125 20.472657 0 28.285157l-110.605469 110.605468c-94.757812-11.332031-173.609375-74.417968-207.476562-160.183594-8.496094-21.507812-.113282-84.773437-.113282-84.773437 7.808594-7.808594 20.472657-7.808594 28.285157 0zm0 0" fill="#e43950"/><path d="m378.320312 357.128906-49.027343 49.023438c-30.519531-30.519532-75.046875-45.851563-128.671875-44.308594l-98.09375 2.824219c-31.777344.914062-60.355469-4.101563-84.722656-14.683594-8.496094-21.511719-14.15625-44.453125-16.53125-68.359375l112.296874-112.296875c-12.109374 29.039063-6.367187 63.761719 17.261719 87.390625 7.503907 7.503906 16.132813 13.183594 25.339844 17.082031l-.015625.019531c11.230469 3.824219 22.984375 6.945313 35.234375 9.328126l67.445313 13.132812c48.121093 9.371094 88.640624 30 119.484374 60.847656zm-102.988281-207.351562c18.042969-18.042969 18.042969-47.296875 0-65.34375-21.226562-21.226563-55.644531-21.226563-76.871093 0l-41.882813 41.882812c39.460937-16.453125 86.648437-8.648437 118.753906 23.460938zm0 0" fill="#e8ce00"/><path d="m378.320312 357.128906-49.027343 49.023438c-30.519531-30.519532-75.046875-45.851563-128.671875-44.308594l-98.09375 2.824219c-31.785156.914062-60.367188-4.113281-84.730469-14.707031-3.546875-8.984376-6.582031-18.222657-9.109375-27.667969l101.433594-101.433594c3.503906 13.136719 10.40625 25.554687 20.710937 35.859375 7.503907 7.503906 16.136719 13.183594 25.339844 17.082031l-.015625.019531c11.230469 3.824219 22.984375 6.945313 35.234375 9.328126l67.445313 13.132812c48.121093 9.371094 88.640624 30 119.484374 60.847656zm-100.074218-210.550781c15.070312-18.148437 14.101562-45.128906-2.914063-62.144531-5.089843-5.089844-10.945312-8.945313-17.191406-11.59375l-45.984375 45.980468c21.851562 2.753907 43.027344 12.125 60.265625 28.148438 1.691406 1.574219 4.347656 1.386719 5.824219-.390625zm-4.414063 23.523437-19.800781 30.804688c-6.457031 10.042969-5.039062 23.222656 3.402344 31.664062 9.90625 9.90625 25.972656 9.90625 35.882812 0 8.4375-8.441406 9.855469-21.621093 3.402344-31.664062l-19.804688-30.804688c-.71875-1.121093-2.359374-1.121093-3.082031 0zm0 0" fill="#fded32"/><path d="m390 385c0 52.46875-42.53125 95-95 95s-95-42.53125-95-95 42.53125-95 95-95 95 42.53125 95 95zm0 0" fill="#fc9302"/><path d="m310 291.183594c-17.613281 2.792968-33.613281 10.433594-46.597656 21.507812-1.753906 1.496094-.050782 4.273438 2.070312 3.367188 6.128906-2.628906 12.683594-4.460938 19.527344-5.375v36.933594c0 2.203124-1.328125 4.191406-3.367188 5.03125l-.066406.027343c-2.035156.839844-4.375.375-5.933594-1.183593l-23.65625-23.65625c-.855468-.855469-2.277343-.773438-3.003906.195312-3.355468 4.472656-6.328125 9.25-8.863281 14.285156-.386719.773438-.230469 1.707032.378906 2.316406l21.003907 21.003907c1.558593 1.554687 2.023437 3.898437 1.183593 5.933593l-.03125.074219c-.839843 2.03125-2.820312 3.359375-5.019531 3.359375h-25.261719c-1.035156 0-1.90625.78125-1.996093 1.8125-.234376 2.695313-.367188 5.421875-.367188 8.183594s.132812 5.488281.367188 8.1875c.089843 1.027344.960937 1.8125 1.996093 1.8125h25.261719c2.199219 0 4.179688 1.324219 5.019531 3.355469l.03125.078125c.839844 2.035156.375 4.375-1.183593 5.933594l-21.003907 21c-.605469.609374-.765625 1.546874-.378906 2.316406 2.535156 5.035156 5.507813 9.816406 8.863281 14.289062.726563.964844 2.148438 1.046875 3.003906.195313l23.65625-23.660157c1.558594-1.554687 3.898438-2.023437 5.933594-1.183593l.066406.03125c2.039063.839843 3.367188 2.828125 3.367188 5.03125v36.929687c-6.84375-.910156-13.398438-2.746094-19.527344-5.371094-2.121094-.910156-3.824218 1.871094-2.070312 3.367188 12.984375 11.074219 28.980468 18.710938 46.597656 21.507812 45.339844-7.191406 80-46.457031 80-93.816406 0-47.363281-34.660156-86.628906-80-93.820312zm59.316406 83.816406h-36.941406c-2.203125 0-4.183594-1.328125-5.023438-3.367188-.007812-.019531-.019531-.042968-.027343-.066406-.84375-2.03125-.382813-4.367187 1.171875-5.921875l26.125-26.125c7.730468 10.113281 12.929687 22.25 14.695312 35.480469zm-64.316406-64.316406c13.230469 1.765625 25.367188 6.964844 35.480469 14.695312l-26.125 26.121094c-1.554688 1.558594-3.890625 2.015625-5.921875 1.175781-.023438-.007812-.042969-.019531-.066406-.027343-2.039063-.839844-3.367188-2.820313-3.367188-5.023438zm-24.878906 76.265625c-1.234375-9.8125 7.015625-18.0625 16.828125-16.824219 6.6875.839844 12.085937 6.238281 12.929687 12.925781 1.234375 9.8125-7.015625 18.0625-16.828125 16.828125-6.6875-.84375-12.085937-6.242187-12.929687-12.929687zm24.878906 72.367187v-36.941406c0-2.203125 1.328125-4.183594 3.367188-5.023438.019531-.007812.042968-.019531.066406-.027343 2.03125-.84375 4.367187-.382813 5.921875 1.171875l26.125 26.125c-10.113281 7.730468-22.25 12.933594-35.480469 14.695312zm49.621094-28.835937-26.121094-26.125c-1.558594-1.554688-2.015625-3.890625-1.175781-5.921875.011719-.023438.019531-.042969.027343-.066406.839844-2.035157 2.820313-3.367188 5.023438-3.367188h36.941406c-1.765625 13.230469-6.964844 25.367188-14.695312 35.480469zm0 0" fill="#fdf061"/></svg>