<svg viewBox="0 0 512.00008 512" xmlns="http://www.w3.org/2000/svg"><path d="m512 256c0 141.386719-114.613281 256-256 256s-256-114.613281-256-256 114.613281-256 256-256 256 114.613281 256 256zm0 0" fill="#925b44"/><path d="m400 350c0 5.523438-4.476562 10-10 10s-10-4.476562-10-10 4.476562-10 10-10 10 4.476562 10 10zm-50 10c-5.523438 0-10 4.476562-10 10s4.476562 10 10 10 10-4.476562 10-10-4.476562-10-10-10zm40 50c-5.523438 0-10 4.476562-10 10s4.476562 10 10 10 10-4.476562 10-10-4.476562-10-10-10zm0 0" fill="#f3d373"/><path d="m512 169.832031c.050781 54.246094-25.03125 102.589844-64.515625 133.753907-16.925781 13.359374-38.554687 18.640624-60.015625 16.535156-.8125-.078125-1.636719-.121094-2.46875-.121094-8.796875 0-16.53125 4.546875-20.988281 11.417969-3.167969 4.890625-8.355469 8.144531-14.179688 8.40625-.167969.007812-.335937.015625-.503906.023437-8.183594.34375-16.246094.09375-24.152344-.683594.539063 5.484376.816407 11.042969.824219 16.667969.050781 54.246094-25.03125 102.589844-64.515625 133.753907-16.925781 13.359374-38.554687 18.640624-60.015625 16.535156-.089844-.007813-.179688-.011719-.269531-.019532-105.886719-23.097656-187.28125-111.710937-199.570313-221.242187 27.046875-58.386719 86.273438-98.871094 154.398438-98.859375 5.671875 0 11.277344.28125 16.804687.824219-.699219-7.105469-.96875-14.339844-.765625-21.675781 2.5625-91.722657 78.203125-165.164063 169.960938-165.148438 29.957031.00390625 58.097656 7.761719 82.539062 21.371094 13.339844 7.429687 23.761719 18.933594 30.820313 32.476562 2.3125 4.429688 5.699219 8.214844 9.8125 11 15.203125 10.296875 27.53125 24.359375 34.425781 41.378906 7.960938 19.644532 12.351562 41.113282 12.375 63.605469zm0 0" fill="#f5c02c"/><path d="m227.679688 295.816406c-12.398438-11.269531-18.546876-27.570312-17.71875-44.304687.027343-.5.039062-1.003907.039062-1.511719 0-8.074219-7.203125-15.398438-14.609375-20.789062-12.121094-8.820313-20.03125-22.242188-21.964844-37.113282-.226562-1.75-.421875-3.507812-.59375-5.277344-5.535156-.542968-11.152343-.820312-16.832031-.820312-.371094 0-.742188 0-1.113281.003906-71.6875.460938-129.890625 58.660156-130.351563 130.351563 0 .367187-.003906.738281-.003906 1.109375 0 15.414062 2.058594 30.339844 5.902344 44.535156 2.109375 7.777344 8.878906 13.308594 16.890625 14.179688.101562.011718.203125.023437.308593.035156 14.152344 1.6875 25.296876 13.40625 26.292969 27.625.101563 1.496094.097657 2.96875-.011719 4.414062-1.359374 18.308594 6.144532 36.210938 21.015626 46.980469 4.28125 3.097656 8.710937 6.003906 13.28125 8.703125 24.65625 14.5625 54.644531 15.316406 80.976562 4.0625 3.011719-1.289062 6.328125-2 9.8125-2 3.359375 0 6.558594.660156 9.484375 1.863281 26.152344 10.738281 56.140625 7.078125 79.71875-8.519531 1.933594-1.28125 3.839844-2.597656 5.71875-3.953125 20.179687-27.953125 32.078125-62.28125 32.078125-99.390625 0-5.683594-.296875-11.296875-.839844-16.835938-37.371094-3.675781-71.1875-19.441406-97.480468-43.347656zm-82.679688-55.816406c-8.285156 0-15-6.714844-15-15s6.714844-15 15-15 15 6.714844 15 15-6.714844 15-15 15zm30 140c-8.285156 0-15-6.714844-15-15s6.714844-15 15-15 15 6.714844 15 15-6.714844 15-15 15zm49 71c-8.285156 0-15-6.714844-15-15s6.714844-15 15-15 15 6.714844 15 15-6.714844 15-15 15zm271.785156-353.53125c-6.320312-13.375-16.835937-24.152344-29.445312-31.882812-4.628906-2.84375-8.429688-6.902344-10.953125-11.738282-6.902344-13.242187-16.953125-24.652344-29.957031-31.992187-24.644532-13.914063-53.109376-21.855469-83.429688-21.855469-.371094 0-.742188 0-1.113281.00390625-71.691407.46093775-129.890625 58.66015575-130.351563 130.35156275 0 .371093-.003906.742187-.003906 1.113281 0 15.410156 2.058594 30.339844 5.902344 44.53125 2.105468 7.777344 8.878906 13.308594 16.886718 14.183594.105469.007812.207032.019531.3125.035156 14.152344 1.6875 25.292969 13.402344 26.289063 27.621094.105469 1.496094.101563 2.96875-.007813 4.414062-1.359374 18.308594 6.144532 36.210938 21.015626 46.980469 4.28125 3.097656 8.710937 6.003906 13.28125 8.703125 24.652343 14.5625 54.644531 15.316406 80.976562 4.0625 3.011719-1.285156 6.328125-2 9.8125-2 3.355469 0 6.558594.660156 9.484375 1.863281 26.152344 10.738281 56.140625 7.078125 79.71875-8.519531 1.933594-1.28125 3.839844-2.597656 5.71875-3.953125 20.179687-27.953125 32.078125-62.28125 32.078125-99.390625 0-25.949219-5.816406-50.535156-16.214844-72.53125zm-235.785156 17.53125c-8.285156 0-15-6.714844-15-15s6.714844-15 15-15 15 6.714844 15 15-6.714844 15-15 15zm125-5c0-8.285156 6.714844-15 15-15s15 6.714844 15 15-6.714844 15-15 15-15-6.714844-15-15zm25 155c-8.285156 0-15-6.714844-15-15s6.714844-15 15-15 15 6.714844 15 15-6.714844 15-15 15zm0 0" fill="#f3d373"/><path d="m150 465c0 7.917969-3.683594 14.96875-9.425781 19.550781-14.121094-7.148437-27.480469-15.566406-39.949219-25.101562 2.527344-11.132813 12.476562-19.449219 24.375-19.449219 13.808594 0 25 11.191406 25 25zm105-105c-13.808594 0-25 11.191406-25 25s11.191406 25 25 25 25-11.191406 25-25-11.191406-25-25-25zm-150-60c13.808594 0 25-11.191406 25-25s-11.191406-25-25-25-25 11.191406-25 25 11.191406 25 25 25zm25 65c0-13.808594-11.191406-25-25-25s-25 11.191406-25 25 11.191406 25 25 25 25-11.191406 25-25zm135-155c-13.808594 0-25 11.191406-25 25s11.191406 25 25 25 25-11.191406 25-25-11.191406-25-25-25zm190-50c-13.808594 0-25 11.191406-25 25s11.191406 25 25 25 25-11.191406 25-25-11.191406-25-25-25zm-110 10c-13.808594 0-25 11.191406-25 25s11.191406 25 25 25 25-11.191406 25-25-11.191406-25-25-25zm15-105c0-13.808594-11.191406-25-25-25s-25 11.191406-25 25 11.191406 25 25 25 25-11.191406 25-25zm0 0" fill="#6d4336"/></svg>