<svg viewBox="0 0 512 512" xmlns="http://www.w3.org/2000/svg"><path d="m512 256c0 141.386719-114.613281 256-256 256s-256-114.613281-256-256 114.613281-256 256-256 256 114.613281 256 256zm0 0" fill="#fded32"/><path d="m509.070312 193.847656-304.054687 304.054688c-3.90625 3.90625-10.238281 3.90625-14.144531 0l-176.773438-176.773438c-3.90625-3.90625-3.90625-10.238281 0-14.144531l304.054688-304.054687c3.90625-3.90625 10.238281-3.90625 14.140625 0l176.777343 176.777343c3.90625 3.902344 3.90625 10.234375 0 14.140625zm0 0" fill="#6d4336"/><path d="m311.082031 306.984375c3.902344 3.90625 3.902344 10.238281 0 14.144531l-7.070312 7.070313c-3.90625 3.902343-10.238281 3.902343-14.144531 0-3.902344-3.90625-3.902344-10.238281 0-14.144531l7.070312-7.070313c3.90625-3.90625 10.238281-3.90625 14.144531 0zm-70.710937-56.570313-7.070313 7.074219c-3.90625 3.902344-3.90625 10.234375 0 14.140625 3.902344 3.90625 10.234375 3.90625 14.140625 0l7.070313-7.070312c3.90625-3.90625 3.90625-10.238282 0-14.144532-3.90625-3.902343-10.234375-3.902343-14.140625 0zm70.710937-42.425781 7.070313-7.070312c3.90625-3.902344 3.90625-10.234375 0-14.140625s-10.238282-3.90625-14.140625 0l-7.074219 7.070312c-3.902344 3.90625-3.902344 10.238282 0 14.140625 3.90625 3.90625 10.238281 3.90625 14.144531 0zm-134.351562-7.070312c-3.90625 3.90625-3.90625 10.238281 0 14.144531 3.90625 3.902344 10.238281 3.902344 14.140625 0l7.074218-7.074219c3.902344-3.902343 3.902344-10.234375 0-14.140625-3.90625-3.90625-10.238281-3.90625-14.144531 0zm127.28125-127.277344c-3.90625 3.90625-3.90625 10.238281 0 14.140625 3.902343 3.90625 10.234375 3.90625 14.140625 0l7.070312-7.070312c3.90625-3.90625 3.90625-10.238282 0-14.144532s-10.238281-3.902344-14.140625 0zm-63.640625 63.636719c-3.90625 3.90625-3.90625 10.238281 0 14.144531 3.902344 3.902344 10.234375 3.902344 14.140625 0l7.070312-7.070313c3.90625-3.90625 3.90625-10.238281 0-14.144531-3.902343-3.902343-10.234375-3.902343-14.140625 0zm134.351562 7.074218 7.070313-7.074218c3.902343-3.902344 3.902343-10.234375 0-14.140625-3.90625-3.90625-10.238281-3.90625-14.144531 0l-7.070313 7.070312c-3.902344 3.90625-3.902344 10.238281 0 14.144531 3.90625 3.902344 10.238281 3.90625 14.144531 0zm49.496094 35.355469-7.070312 7.070313c-3.90625 3.90625-3.90625 10.238281 0 14.140625 3.902343 3.90625 10.234374 3.90625 14.140624 0l7.070313-7.070313c3.90625-3.90625 3.90625-10.238281 0-14.140625-3.90625-3.90625-10.234375-3.90625-14.140625 0zm-63.640625 63.636719-7.070313 7.070312c-3.90625 3.90625-3.90625 10.238282 0 14.144532s10.238282 3.90625 14.140626 0l7.074218-7.070313c3.902344-3.90625 3.902344-10.238281 0-14.144531-3.90625-3.902344-10.238281-3.902344-14.144531 0zm148.492187-49.496094-304.054687 304.054688c-3.90625 3.90625-10.238281 3.90625-14.144531 0l-155.5625-155.5625c-3.902344-3.90625-3.902344-10.238282 0-14.140625l110.308594-110.308594c1.5625-1.5625 4.097656-1.5625 5.660156 0l25.453125 25.453125c3.90625 3.90625 10.238281 3.90625 14.144531 0l35.355469-35.355469c3.902343-3.902343 3.902343-10.234375 0-14.140625l-25.457031-25.457031c-1.5625-1.5625-1.5625-4.09375 0-5.65625l8.484374-8.484375c1.5625-1.5625 4.09375-1.5625 5.65625 0l25.457032 25.457031c3.90625 3.902344 10.238281 3.902344 14.140625 0l35.355469-35.355469c3.90625-3.90625 3.90625-10.238281 0-14.140624l-25.457032-25.457032c-1.558594-1.5625-1.558594-4.097656 0-5.65625l8.488282-8.488281c1.5625-1.558594 4.09375-1.558594 5.65625 0l25.457031 25.457031c3.902343 3.90625 10.234375 3.90625 14.140625 0l35.355468-35.355468c3.902344-3.90625 3.902344-10.234376 0-14.140626l-25.457031-25.457031c-1.5625-1.5625-1.5625-4.09375 0-5.65625l11.3125-11.316406c3.90625-3.902344 10.238281-3.902344 14.144531 0l155.5625 155.5625c3.90625 3.90625 3.90625 10.238281 0 14.144531zm-176.777343-49.496094 28.285156 28.285157c3.90625 3.902343 10.238281 3.902343 14.140625 0l35.355469-35.355469c3.90625-3.90625 3.90625-10.238281 0-14.144531l-28.285157-28.285157c-3.902343-3.902343-10.234374-3.902343-14.140624 0l-35.355469 35.355469c-3.902344 3.90625-3.902344 10.238281 0 14.144531zm-63.636719 63.636719 28.28125 28.285157c3.90625 3.90625 10.238281 3.90625 14.144531 0l35.355469-35.351563c3.902344-3.90625 3.902344-10.238281 0-14.144531l-28.285156-28.285156c-3.90625-3.902344-10.238282-3.902344-14.140625 0l-35.355469 35.355468c-3.90625 3.90625-3.90625 10.238282 0 14.140625zm-21.214844 91.925781 35.355469-35.355468c3.90625-3.90625 3.90625-10.238282 0-14.140625l-28.285156-28.285157c-3.902344-3.90625-10.234375-3.90625-14.140625 0l-35.355469 35.355469c-3.90625 3.902344-3.90625 10.234375 0 14.140625l28.285156 28.285156c3.902344 3.90625 10.234375 3.90625 14.140625 0zm91.921875 7.070313-28.28125-28.285156c-3.90625-3.902344-10.238281-3.902344-14.144531 0l-35.351562 35.355469c-3.90625 3.90625-3.90625 10.238281 0 14.144531l28.28125 28.285156c3.90625 3.902344 10.238281 3.902344 14.144531 0l35.351562-35.355469c3.90625-3.90625 3.90625-10.238281 0-14.144531zm63.640625-63.640625-28.28125-28.28125c-3.90625-3.90625-10.238281-3.90625-14.144531 0l-35.355469 35.351562c-3.902344 3.90625-3.902344 10.238282 0 14.144532l28.285156 28.285156c3.90625 3.902344 10.238282 3.902344 14.140626 0l35.355468-35.355469c3.90625-3.90625 3.90625-10.238281 0-14.144531zm63.640625-63.636719-28.285156-28.285156c-3.902344-3.90625-10.234375-3.90625-14.140625 0l-35.355469 35.355469c-3.902343 3.90625-3.902343 10.238281 0 14.140625l28.285157 28.285156c3.90625 3.90625 10.238281 3.90625 14.140624 0l35.355469-35.355469c3.90625-3.90625 3.90625-10.238281 0-14.140625zm0 0" fill="#925b44"/><path d="m314.378906 409.277344c1.988282 1.988281 1.949219 5.21875-.085937 7.15625l-25.261719 24.066406-.019531-.019531-35.355469 35.355469.855469.855468c3.90625 3.90625 3.90625 10.238282 0 14.140625l-20.238281 20.242188c-124.140626-10.4375-223.066407-109.445313-233.371094-233.621094l20.113281-20.117187c3.90625-3.902344 10.238281-3.902344 14.144531 0l.855469.859374 35.355469-35.355468 23.894531-25.390625c1.933594-2.050781 5.183594-2.101563 7.175781-.105469l10.972656 10.96875c3.523438 3.523438 5.15625 8.515625 4.390626 13.441406l-2.164063 13.949219c-.207031 1.335937.945313 2.488281 2.285156 2.28125l13.945313-2.164063c4.925781-.761718 9.917968.867188 13.441406 4.390626 3.523438 3.523437 5.152344 8.515624 4.390625 13.4375l-2.164063 13.949218c-.210937 1.339844.945313 2.492188 2.28125 2.285156l13.949219-2.164062c4.925781-.765625 9.917969.867188 13.441407 4.390625 3.519531 3.523437 5.152343 8.515625 4.386718 13.4375l-2.164062 13.949219c-.207032 1.339844.949218 2.492187 2.285156 2.28125l13.949219-2.164063c4.921875-.761719 9.914062.867188 13.4375 4.390625 3.523437 3.523438 5.15625 8.515625 4.390625 13.4375l-2.164063 13.949219c-.207031 1.339844.945313 2.492187 2.28125 2.285156l13.949219-2.164062c4.925781-.765625 9.917969.867187 13.441406 4.390625 3.523438 3.523437 5.152344 8.515625 4.390625 13.4375l-2.164062 13.949218c-.210938 1.339844.945312 2.488282 2.28125 2.28125l13.949219-2.164062c4.925781-.761719 9.917968.867188 13.4375 4.390625 3.523437 3.523437 5.15625 8.515625 4.390624 13.441406l-2.164062 13.949219c-.207031 1.335938.945312 2.488281 2.285156 2.28125l13.949219-2.164062c4.921875-.765626 9.914063.867187 13.4375 4.390624zm0 0" fill="#02c6dc"/><path d="m276.179688 426.707031c-3.851563 4.386719-10.535157 4.546875-14.597657.484375l-161.777343-161.777344c-3.902344-3.902343-10.234376-3.902343-14.140626 0-3.90625 3.90625-3.90625 10.238282 0 14.144532l161.777344 161.777344c3.90625 3.902343 3.90625 10.234374 0 14.140624s-10.238281 3.90625-14.140625 0l-169.707031-169.707031c-3.90625-3.902343-10.238281-3.902343-14.140625.003907l-39.863281 39.859374c-4.375-15.511718-7.3125-31.625-8.6875-48.179687l20.117187-20.113281c3.902344-3.90625 10.234375-3.90625 14.140625 0l.859375.855468 35.351563-35.355468 23.898437-25.386719c1.929688-2.054687 5.179688-2.105469 7.175781-.109375l10.972657 10.972656c3.523437 3.523438 5.152343 8.515625 4.390625 13.4375l-1.933594 12.445313-2.5625 2.726562c-3.703125 3.933594-3.609375 10.101563.210938 13.921875l161.960937 161.960938c3.765625 3.765625 4.210937 9.894531.695313 13.898437zm0 0" fill="#0db2cc"/></svg>