<svg viewBox="0 0 512.00045 512" xmlns="http://www.w3.org/2000/svg"><path d="m512 256c0 141.386719-114.613281 256-256 256-59.125 0-113.558594-20.054688-156.894531-53.714844-16.636719-28.71875-38.695313-53.902344-64.773438-74.15625-21.828125-37.683594-34.332031-81.445312-34.332031-128.128906 0-141.386719 114.613281-256 256-256s256 114.613281 256 256zm0 0" fill="#e31e7f"/><path d="m334.367188 215.917969c-11.980469-3.804688-21.246094-9.519531-27.019532-15.96875-23.558594 7.417969-43.707031 7.421875-48.796875-1.058594-5.089843-8.480469 6.414063-22.886719 26.855469-35.503906-2.785156-7.8125-2.882812-17.703125.371094-28.441407 7.5625-24.984374 30.332031-45.070312 50.859375-44.863281 7.726562.078125 14.03125 3.023438 18.488281 7.992188.679688-.675781 1.378906-1.355469 2.09375-2.027344 22.753906-21.472656 53.667969-32.324219 69.050781-24.230469 6.351563 3.339844 9.050781 9.394532 8.441407 16.855469 1.742187-.886719 3.527343-1.75 5.359374-2.585937 30.886719-14.0625 62.289063-14.859376 70.140626-1.777344 7.847656 13.078125-10.828126 35.082031-41.714844 49.144531-1.832032.835937-3.667969 1.621094-5.5 2.359375 7.386718 3.824219 11.550781 9.210938 11.074218 15.660156-1.152343 15.621094-29.027343 31.535156-62.257812 35.554688-1.042969.125-2.078125.238281-3.105469.335937 2.140625 6.027344 1.316407 12.21875-3.019531 17.789063-11.523438 14.796875-43.453125 19.617187-71.320312 10.765625zm0 0" fill="#08b772"/><path d="m483.691406 110.277344c-20.613281 3.277344-51.378906 15.6875-86.847656 34.464844-3.34375-5.113282-7.410156-9.886719-12.167969-14.171876 38.964844-20.851562 73.164063-34.726562 96.136719-38.382812 4.996094-.792969 9.683594 2.613281 10.484375 7.605469.792969 4.996093-2.613281 9.691406-7.605469 10.484375zm0 0" fill="#06995f"/><path d="m344.789062 190.082031c-12.539062.859375-23.257812-1.054687-30.992187-4.933593-19.195313 15.550781-37.933594 22.953124-45.78125 16.933593-7.847656-6.023437-2.4375-23.644531 11.945313-42.886719-5.457032-6.242187-9.179688-15.40625-10.097657-26.589843-2.140625-26.015625 11.664063-53.058594 30.832031-60.402344 7.214844-2.765625 14.164063-2.339844 20.132813.648437.386719-.882812.785156-1.769531 1.203125-2.65625 13.28125-28.328124 38.054688-49.769531 55.332031-47.894531 7.132813.777344 11.867188 5.417969 14.039063 12.582031 1.296875-1.464843 2.640625-2.925781 4.039062-4.375 23.566406-24.417968 52.480469-36.691406 64.585938-27.40625 12.105468 9.285157 2.8125 36.609376-20.753906 61.03125-1.398438 1.449219-2.816407 2.851563-4.246094 4.210938 8.269531.847656 14.121094 4.328125 16.046875 10.5 4.664062 14.953125-15.417969 39.992188-44.851563 55.929688-.925781.5-1.847656.984374-2.769531 1.457031 4.207031 4.816406 5.710937 10.878906 3.722656 17.652343-5.28125 17.992188-33.214843 34.203126-62.386719 36.199219zm0 0" fill="#04d481"/><path d="m406.871094 70.015625c-32.277344 19.074219-84.214844 77.585937-132.316406 149.0625-2.824219 4.195313-8.515626 5.308594-12.710938 2.484375-.328125-.222656-.640625-.464844-.933594-.71875-3.414062-2.992188-4.152344-8.125-1.550781-11.992188 49.503906-73.5625 103.75-134.25 138.195313-154.605468 4.355468-2.570313 9.96875-1.125 12.542968 3.226562 2.574219 4.355469 1.128906 9.96875-3.226562 12.542969zm0 0" fill="#08b772"/><path d="m301.035156 197.738281c26.78125 25.496094 19.484375 74.457031-15.484375 103.945313l-186.082031 156.878906c-26.28125-20.335938-48.5-45.667969-65.222656-74.582031l142.0625-186.308594c27.738281-36.375 76.28125-46.0625 103.0625-20.566406zm0 0" fill="#fda800"/><path d="m301.035156 197.738281-1.371094-1.308593c-19.855468-18.90625-51.667968-18.449219-78.097656-2.132813-1.121094.6875-1.304687 2.242187-.355468 3.15625l16.453124 15.816406c3.664063 3.488281 3.804688 9.285157.316407 12.949219-3.488281 3.660156-9.285157 3.804688-12.949219.316406l-18.539062-17.824218c-.792969-.761719-2.058594-.753907-2.820313.039062-2.476563 2.570312-4.839844 5.320312-7.070313 8.242188l-63.691406 83.535156c-.617187.808594-.53125 1.949218.203125 2.652344l20.511719 19.753906c3.660156 3.488281 3.804688 9.285156.316406 12.949218-3.488281 3.664063-9.285156 3.804688-12.949218.316407l-18.726563-18.035157c-.863281-.832031-2.253906-.726562-2.980469.226563l-42.339844 55.53125c-.617187.808594-.527343 1.957031.210938 2.660156l7.742188 7.371094c3.535156 3.363281 4.082031 8.96875.953124 12.710937-3.429687 4.101563-9.546874 4.398438-13.355468.769532l-6.195313-5.898438c-.863281-.820312-2.246093-.710937-2.96875.238282l-12.859375 16.867187c13.976563 18.792969 30.480469 35.59375 48.992188 49.921875l186.082031-156.882812c34.972656-29.484376 42.269531-78.445313 15.488281-103.941407zm-197.132812 235.457031c-3.488282 3.664063-9.285156 3.808594-12.949219.320313l-8.109375-7.726563c-3.664062-3.488281-3.804688-9.285156-.316406-12.945312 3.488281-3.664062 9.285156-3.804688 12.945312-.320312l8.113282 7.726562c3.664062 3.488281 3.804687 9.285156.316406 12.945312zm45.1875-38.707031c-3.488282 3.664063-9.285156 3.804688-12.949219.316407l-13.457031-12.8125c-3.664063-3.488282-3.804688-9.285157-.316406-12.949219 3.488281-3.660157 9.285156-3.804688 12.945312-.316407l13.457031 12.8125c3.664063 3.488282 3.804688 9.285157.320313 12.949219zm63.148437-66.324219c-3.484375 3.664063-9.285156 3.804688-12.945312.316407l-13.457031-12.8125c-3.664063-3.488281-3.804688-9.285157-.316407-12.949219s9.285157-3.804688 12.945313-.316406l13.457031 12.8125c3.664063 3.488281 3.804687 9.285156.316406 12.949218zm32.546875-44.886718c-3.488281 3.664062-9.28125 3.808594-12.945312.320312l-18.804688-17.902344c-3.660156-3.488281-3.804687-9.285156-.316406-12.949218 3.488281-3.660156 9.285156-3.804688 12.949219-.316406l18.800781 17.902343c3.664062 3.488281 3.804688 9.285157.316406 12.945313zm41.292969-11.261719c-3.484375 3.660156-9.28125 3.804687-12.945313.316406l-13.457031-12.8125c-3.664062-3.488281-3.804687-9.285156-.316406-12.949219 3.488281-3.664062 9.285156-3.804687 12.945313-.316406l13.457031 12.8125c3.664062 3.488282 3.804687 9.285156.316406 12.949219zm0 0" fill="#fdbf43"/></svg>