<svg viewBox="0 0 512 512.00024" xmlns="http://www.w3.org/2000/svg"><path d="m512 256c0 141.386719-114.613281 256-256 256-10.851562 0-21.542969-.683594-32.039062-1.992188-14.457032-115.765624-106.203126-207.511718-221.96875-221.96875-1.308594-10.496093-1.992188-21.1875-1.992188-32.039062 0-141.382812 114.613281-256 256-256s256 114.617188 256 256zm0 0" fill="#925b44"/><path d="m497.617188 278.890625c-6.917969 6.675781-15.351563 10.859375-24.167969 12.554687-19.832031 3.8125-38.394531 12.519532-53.335938 26.105469l-1.539062 1.398438c-4.765625 4.335937-9.511719 8.6875-14.25 13.050781-57.035157 52.554688-111.929688 107.390625-164.539063 164.382812l-12.886718 13.960938c-118.125-13.367188-211.875-107.117188-225.242188-225.242188l13.960938-12.886718c56.992187-52.609375 111.828124-107.503906 164.382812-164.539063 4.363281-4.738281 8.71875-9.484375 13.050781-14.25l1.398438-1.539062c13.585937-14.945313 22.292969-33.503907 26.105469-53.335938 1.695312-8.816406 5.878906-17.25 12.554687-24.167969 18.648437-19.335937 50.066406-19.011718 69.0625-.015624l.855469.855468c10.339844 10.339844 19.0625 22.179688 25.808594 35.152344 11.972656 23.019531 31.90625 49.695312 57.5 75.289062 25.589843 25.589844 52.269531 45.527344 75.289062 57.5 12.972656 6.746094 24.808594 15.46875 35.148438 25.808594l.855468.855469c19 18.996094 19.328125 50.414063-.011718 69.0625zm0 0" fill="#f1ca50"/><path d="m8.304688 320.835938c-3.03125-11.609376-5.269532-23.542969-6.648438-35.734376l13.960938-12.886718c56.992187-52.609375 111.828124-107.503906 164.382812-164.539063 4.363281-4.738281 8.71875-9.484375 13.050781-14.25l1.398438-1.539062c13.585937-14.941407 22.292969-33.503907 26.105469-53.335938 1.695312-8.816406 5.878906-17.25 12.554687-24.167969 13.371094-13.863281 33.300781-17.617187 50.515625-11.632812-5.550781 2.726562-10.726562 6.417969-15.253906 11.113281-7.824219 8.113281-12.730469 18-14.71875 28.335938-4.472656 23.253906-14.679688 45.015625-30.605469 62.535156l-1.644531 1.804687c-5.078125 5.589844-10.183594 11.152344-15.300782 16.707032-61.617187 66.871094-125.910156 131.234375-192.734374 192.917968zm0 0" fill="#f5c02c"/><path d="m443.605469 249.777344c-20.890625 6.910156-39.890625 17.863281-55.746094 32.28125l-1.546875 1.402344c-62.925781 57.210937-124.082031 117.898437-181.765625 180.390624l-32.601563 34.011719c-73.761718-25.632812-132.175781-84.046875-157.808593-157.808593l34.011719-32.597657c62.492187-57.6875 123.183593-118.839843 180.394531-181.773437l1.394531-1.535156c14.429688-15.871094 25.398438-34.878907 32.3125-55.777344.554688-1.6875 1.480469-3.234375 2.738281-4.488282 5.082031-5.082031 13.601563-4.191406 17.433594 1.886719 1.382813 2.191407 2.671875 4.4375 3.867187 6.730469 14.628907 28.132812 38.117188 59.054688 66.136719 87.074219s58.941407 51.507812 87.074219 66.140625c2.289062 1.1875 4.527344 2.472656 6.710938 3.847656 6.085937 3.839844 6.980468 12.375 1.890624 17.464844-1.261718 1.261718-2.808593 2.191406-4.496093 2.75zm0 0" fill="#fdf7bd"/><path d="m180 420c0 5.523438-4.476562 10-10 10s-10-4.476562-10-10 4.476562-10 10-10 10 4.476562 10 10zm30-90c-5.523438 0-10 4.476562-10 10s4.476562 10 10 10 10-4.476562 10-10-4.476562-10-10-10zm0-40c-5.523438 0-10 4.476562-10 10s4.476562 10 10 10 10-4.476562 10-10-4.476562-10-10-10zm0-90c-5.523438 0-10 4.476562-10 10s4.476562 10 10 10 10-4.476562 10-10-4.476562-10-10-10zm-90 100c-5.523438 0-10 4.476562-10 10s4.476562 10 10 10 10-4.476562 10-10-4.476562-10-10-10zm-20 100c-5.523438 0-10 4.476562-10 10s4.476562 10 10 10 10-4.476562 10-10-4.476562-10-10-10zm210-200c-5.523438 0-10 4.476562-10 10s4.476562 10 10 10 10-4.476562 10-10-4.476562-10-10-10zm60 30c-5.523438 0-10 4.476562-10 10s4.476562 10 10 10 10-4.476562 10-10-4.476562-10-10-10zm-100-110c-5.523438 0-10 4.476562-10 10s4.476562 10 10 10 10-4.476562 10-10-4.476562-10-10-10zm30 160c-5.523438 0-10 4.476562-10 10s4.476562 10 10 10 10-4.476562 10-10-4.476562-10-10-10zm-30-70c-5.523438 0-10 4.476562-10 10s4.476562 10 10 10 10-4.476562 10-10-4.476562-10-10-10zm0 0" fill="#f5dc90"/></svg>