<svg viewBox="0 0 512 512" xmlns="http://www.w3.org/2000/svg"><path d="m512 256c0 141.386719-114.613281 256-256 256-33.84375 0-66.144531-6.582031-95.714844-18.511719-12.765625-91.976562-74.386718-168.316406-157.820312-201.976562-1.613282-11.609375-2.464844-23.460938-2.464844-35.511719 0-141.386719 114.613281-256 256-256s256 114.613281 256 256zm0 0" fill="#08b772"/><path d="m401.953125 102.921875c12.496094 48.632813 10.851563 101.425781-7.851563 152.101563-46.261718 125.34375-211.542968 189.859374-341.800781 156.03125-26.457031-34.707032-44.253906-76.367188-50.148437-121.773438 129.5625 43.203125 272.1875-23.851562 320.605468-152.886719 5.277344-14.066406 12.734376-28.964843 15.4375-43.234375 2.300782-12.167968 11.457032-18.695312 23.074219-14.40625l28.242188 10.421875c6.148437 2.269531 10.8125 7.398438 12.441406 13.746094zm0 0" fill="#d6bf01"/><path d="m327.972656 167.132812c5.363282-14.296874 12.941406-29.441406 15.6875-43.941406 2.34375-12.363281 11.644532-19 23.449219-14.640625l28.703125 10.59375c5.203125 1.917969 9.359375 5.863281 11.558594 10.855469 5.902344 40.808594 2.011718 83.621094-13.269532 125.023438-46.261718 125.34375-211.542968 189.859374-341.800781 156.03125-19.394531-25.441407-34.125-54.621094-42.9375-86.273438 129.710938 39.109375 270.300781-28.910156 318.609375-157.648438zm0 0" fill="#e8ce00"/><path d="m341.996094 141.484375c.082031-15.023437-1.136719-29.75-3.539063-44.070313-2.050781-12.210937 7.324219-23.34375 19.707031-23.34375h30.105469c6.554688 0 12.707031 3.199219 16.433594 8.585938 28.5625 41.300781 45.296875 91.398438 45.296875 145.414062 0 140.84375-147.476562 264.074219-288.371094 265.96875-50.125-19.890624-92.464844-55.15625-121.222656-99.976562-.496094-.769531 27.789062 1.839844 42.953125 1.996094 141.425781 1.429687 257.871094-113.140625 258.636719-254.574219zm0 0" fill="#fde803"/><path d="m416.433594 25.660156-2.007813 10.28125-10.292969 64.300782c10.171876 47.667968 7.421876 98.6875-10.703124 147.792968-46.113282 124.945313-205.679688 191.890625-338.277344 166.664063-5.476563-6.921875-10.605469-14.132813-15.355469-21.609375 6.710937.816406 13.503906 1.375 20.359375 1.679687 7.640625.769531 15.378906 1.207031 23.199219 1.289063 141.429687 1.429687 257.875-113.144532 258.640625-254.574219.078125-15.023437-1.136719-29.75-3.542969-44.070313-.546875-3.261718-.273437-6.441406.652344-9.359374l-.011719-.003907.042969-.097656c.40625-1.257813.929687-2.460937 1.566406-3.601563l33.625-77.332031c2.800781-6.441406 10.613281-8.964843 16.65625-5.382812l19.933594 11.828125c4.289062 2.546875 6.40625 7.464844 5.515625 12.195312zm0 0" fill="#fdf061"/><path d="m339.105469 88.054688-.011719-.003907.042969-.097656c.40625-1.257813.929687-2.460937 1.566406-3.601563l33.625-77.332031c2.800781-6.441406 10.613281-8.964843 16.65625-5.382812l19.933594 11.828125c.570312.339844 1.101562.722656 1.597656 1.140625-7.910156-.839844-15.90625 3.410156-19.3125 11.246093l-51.246094 117.859376c.007813-.742188.035157-1.480469.039063-2.226563.082031-15.023437-1.132813-29.75-3.539063-44.070313-.550781-3.261718-.273437-6.441406.648438-9.359374zm0 0" fill="#fde803"/></svg>