<svg viewBox="0 0 512 512" xmlns="http://www.w3.org/2000/svg"><path d="m512 256c0 141.386719-114.613281 256-256 256s-256-114.613281-256-256 114.613281-256 256-256 256 114.613281 256 256zm0 0" fill="#fded32"/><path d="m379.171875 179.5c-5.414063 5.410156-7.210937 13.421875-4.757813 20.675781 11.808594 34.898438 3.8125 75.019531-24.003906 102.835938l-190.375 190.375c-64.195312-25.976563-115.445312-77.226563-141.421875-141.421875l190.375-190.375c27.816407-27.816406 67.9375-35.8125 102.835938-24.003906 7.253906 2.453124 15.265625.65625 20.675781-4.757813l79.671875-79.667969c17.488281 13.484375 33.183594 29.179688 46.667969 46.667969zm0 0" fill="#06995f"/><path d="m394.933594 70.398438c9.007812 6.945312 17.546875 14.472656 25.546875 22.535156l-78.078125 78.078125c-5.414063 5.414062-13.425782 7.210937-20.675782 4.753906-34.898437-11.804687-75.023437-3.808594-102.835937 24.007813l-184.484375 184.480468c-5.988281-10.324218-11.269531-21.113281-15.792969-32.289062l190.375-190.375c27.816407-27.816406 67.9375-35.8125 102.835938-24.003906 7.253906 2.453124 15.265625.65625 20.675781-4.757813zm0 0" fill="#037e4b"/><path d="m182.828125 470.59375-141.421875-141.421875 158.390625-158.390625 141.421875 141.421875zm0 0" fill="#e43950"/><path d="m491.832031 76.734375-14.140625 14.144531c-3.167968 3.164063-7.925781 3.761719-11.695312 1.796875l-63.964844 63.964844-46.667969-46.671875 63.960938-63.960938c-1.964844-3.773437-1.367188-8.53125 1.796875-11.699218l14.144531-14.140625c3.90625-3.90625 10.238281-3.90625 14.140625 0l37.476562 37.476562 4.953126 4.949219c3.902343 3.90625 3.902343 10.238281-.003907 14.140625zm-267.992187 118.089844-24.042969-24.042969-158.390625 158.390625 24.042969 24.042969zm0 0" fill="#ab2538"/><path d="m491.832031 76.734375-14.140625 14.144531c-3.167968 3.164063-7.925781 3.761719-11.695312 1.796875l-63.964844 63.964844-22.628906-22.628906 46.671875-46.667969c1.953125-1.953125 5.117187-1.953125 7.070312 0l5.65625 5.65625c4.0625 4.0625 10.746094 3.898438 14.597657-.484375 3.515624-4.003906 3.070312-10.132813-.699219-13.898437l-9.902344-9.90625c-1.222656-3.507813-.433594-7.558594 2.367187-10.359376l14.144532-14.140624c3.902344-3.90625 10.234375-3.90625 14.140625 0l13.433593 13.433593 4.953126 4.949219c3.902343 3.90625 3.902343 10.238281-.003907 14.140625zm0 0" fill="#e43950"/><path d="m251.414062 324.222656c-17.570312 17.574219-46.0625 17.574219-63.636718 0-17.574219-17.574218-17.574219-46.066406 0-63.640625 17.574218-17.570312 46.066406-17.570312 63.636718 0 17.574219 17.574219 17.574219 46.066407 0 63.640625zm-127.984374 20.507813c-1.953126-1.953125-5.117188-1.953125-7.070313 0l-7.070313 7.070312c-1.953124 1.953125-1.953124 5.117188 0 7.070313l43.839844 43.839844c1.953125 1.953124 5.117188 1.953124 7.070313 0l7.070312-7.070313c1.953125-1.953125 1.953125-5.121094 0-7.070313zm4.242187-52.328125c-1.953125-1.953125-5.117187-1.953125-7.070313 0l-7.070312 7.070312c-1.953125 1.953125-1.953125 5.121094 0 7.074219l91.921875 91.921875c1.953125 1.953125 5.121094 1.953125 7.074219 0l7.070312-7.070312c1.953125-1.953126 1.953125-5.117188 0-7.070313zm0 0" fill="#ef7280"/><path d="m237.273438 310.082031c-9.761719 9.761719-25.589844 9.761719-35.355469 0-9.761719-9.765625-9.761719-25.59375 0-35.355469 9.765625-9.761718 25.59375-9.761718 35.355469 0 9.761718 9.761719 9.761718 25.589844 0 35.355469zm0 0" fill="#ab2538"/></svg>