<svg viewBox="0 0 512 512" xmlns="http://www.w3.org/2000/svg"><path d="m512 256c0 141.386719-114.613281 256-256 256s-256-114.613281-256-256 114.613281-256 256-256 256 114.613281 256 256zm0 0" fill="#fdbf43"/><path d="m146.191406 33.46875 28.285156-28.285156c3.90625-3.90625 10.238282-3.90625 14.140626 0l318.199218 318.199218c3.90625 3.902344 3.90625 10.234376 0 14.140626l-28.285156 28.285156c-3.902344 3.90625-10.234375 3.90625-14.140625 0l-318.199219-318.199219c-3.90625-3.90625-3.90625-10.238281 0-14.140625zm0 0" fill="#649eb0"/><path d="m450.953125 267.519531-212.128906 212.132813-206.476563-206.476563 212.132813-212.128906zm0 0" fill="#235967"/><path d="m52.148438 292.976562-19.800782-19.800781 212.132813-212.128906 19.796875 19.796875zm0 0" fill="#174550"/><path d="m389.96875 249.179688c.019531.269531.03125.542968.03125.820312s-.011719.550781-.03125.820312c-.328125 4.023438-3.566406 7.199219-7.550781 7.855469-5.128907.84375-11.078125 1.324219-17.417969 1.324219s-12.289062-.480469-17.417969-1.324219c-3.984375-.65625-7.222656-3.832031-7.550781-7.855469-.019531-.269531-.03125-.542968-.03125-.820312s.011719-.550781.03125-.820312c.328125-4.023438 3.566406-7.199219 7.550781-7.855469 5.128907-.84375 11.078125-1.324219 17.417969-1.324219s12.289062.480469 17.417969 1.324219c3.984375.65625 7.222656 3.832031 7.550781 7.855469zm-99.96875-89.179688c0-.277344-.011719-.550781-.03125-.820312-.328125-4.023438-3.566406-7.199219-7.550781-7.855469-5.128907-.84375-11.078125-1.324219-17.417969-1.324219s-12.289062.480469-17.417969 1.324219c-3.984375.65625-7.222656 3.832031-7.550781 7.855469-.019531.269531-.03125.542968-.03125.820312s.011719.550781.03125.820312c.328125 4.023438 3.566406 7.199219 7.550781 7.855469 5.128907.84375 11.078125 1.324219 17.417969 1.324219s12.289062-.480469 17.417969-1.324219c3.984375-.65625 7.222656-3.832031 7.550781-7.855469.019531-.269531.03125-.542968.03125-.820312zm152.417969-8.675781c-5.128907-.84375-11.078125-1.324219-17.417969-1.324219s-12.289062.480469-17.417969 1.324219c-3.984375.65625-7.222656 3.832031-7.550781 7.855469-.019531.269531-.03125.542968-.03125.820312s.011719.550781.03125.820312c.328125 4.023438 3.566406 7.199219 7.550781 7.855469 5.128907.84375 11.078125 1.324219 17.417969 1.324219s12.289062-.480469 17.417969-1.324219c3.984375-.65625 7.222656-3.832031 7.550781-7.855469.019531-.269531.03125-.542968.03125-.820312s-.011719-.550781-.03125-.820312c-.328125-4.023438-3.566406-7.199219-7.550781-7.855469zm-114.945313 31.203125c-.195312-.195313-.398437-.378906-.605468-.554688-3.078126-2.613281-7.609376-2.574218-10.890626-.21875-4.222656 3.03125-8.769531 6.898438-13.253906 11.378906-4.484375 4.484376-8.347656 9.03125-11.378906 13.253907-2.355469 3.28125-2.398438 7.816406.214844 10.894531.175781.207031.363281.40625.558594.601562.195312.195313.394531.378907.601562.554688 3.078125 2.617188 7.613281 2.574219 10.894531.21875 4.222657-3.03125 8.769531-6.894531 13.25-11.378906 4.484375-4.484375 8.351563-9.03125 11.382813-13.253906 2.355468-3.28125 2.394531-7.8125-.21875-10.890626-.175782-.207031-.359375-.410156-.554688-.605468zm20.964844-59.808594c-.171875-.207031-.359375-.40625-.554688-.601562-.195312-.195313-.394531-.382813-.601562-.558594-3.078125-2.613282-7.613281-2.570313-10.894531-.214844-4.222657 3.03125-8.769531 6.894531-13.253907 11.378906-4.484374 4.484375-8.347656 9.03125-11.378906 13.253906-2.355468 3.28125-2.398437 7.8125.21875 10.890626.171875.207031.359375.410156.554688.605468.195312.191406.394531.378906.601562.554688 3.078125 2.613281 7.613282 2.570312 10.894532.214844 4.222656-3.027344 8.769531-6.894532 13.253906-11.378907s8.347656-9.027343 11.378906-13.253906c2.355469-3.277344 2.398438-7.8125-.21875-10.890625zm119.796875-29.792969c-.175781-.207031-.363281-.410156-.558594-.605469-.195312-.191406-.394531-.378906-.601562-.554687-3.078125-2.613281-7.613281-2.570313-10.894531-.214844-4.222657 3.027344-8.769532 6.894531-13.25 11.378907-4.484376 4.480468-8.351563 9.027343-11.382813 13.25-2.355469 3.28125-2.394531 7.816406.21875 10.894531.175781.207031.359375.40625.554687.601562.195313.195313.398438.382813.605469.558594 3.078125 2.613281 7.609375 2.570313 10.890625.214844 4.222656-3.03125 8.769532-6.894531 13.253906-11.378907 4.484376-4.484374 8.347657-9.03125 11.378907-13.253906 2.355469-3.28125 2.398437-7.8125-.214844-10.890625zm-99.054687 117.042969c.269531.019531.542968.03125.820312.03125s.550781-.011719.820312-.03125c4.023438-.328125 7.199219-3.566406 7.855469-7.550781.84375-5.128907 1.324219-11.078125 1.324219-17.417969s-.480469-12.289062-1.324219-17.417969c-.65625-3.984375-3.832031-7.222656-7.855469-7.550781-.269531-.019531-.542968-.03125-.820312-.03125s-.550781.011719-.820312.03125c-4.023438.328125-7.199219 3.566406-7.855469 7.550781-.84375 5.128907-1.324219 11.078125-1.324219 17.417969s.480469 12.289062 1.324219 17.417969c.65625 3.984375 3.832031 7.222656 7.855469 7.550781zm-96.597657-101.292969c5.128907.84375 11.078125 1.324219 17.417969 1.324219s12.289062-.480469 17.417969-1.324219c3.984375-.65625 7.222656-3.832031 7.550781-7.855469.019531-.269531.03125-.542968.03125-.820312s-.011719-.550781-.03125-.820312c-.328125-4.023438-3.566406-7.199219-7.550781-7.855469-5.128907-.84375-11.078125-1.324219-17.417969-1.324219s-12.289062.480469-17.417969 1.324219c-3.984375.65625-7.222656 3.832031-7.550781 7.855469-.019531.269531-.03125.542968-.03125.820312s.011719.550781.03125.820312c.328125 4.023438 3.566406 7.199219 7.550781 7.855469zm126.074219 7.710938c-3.03125-4.222657-6.894531-8.769531-11.378906-13.25-4.484375-4.484375-9.03125-8.351563-13.253906-11.378907-3.28125-2.355468-7.8125-2.398437-10.890626.214844-.207031.175782-.410156.363282-.605468.554688-.195313.195312-.378906.398437-.554688.605468-2.613281 3.078126-2.574218 7.609376-.21875 10.890626 3.03125 4.222656 6.898438 8.769531 11.382813 13.253906 4.480469 4.484375 9.027343 8.351562 13.25 11.378906 3.28125 2.355469 7.816406 2.398438 10.894531-.214844.207031-.175781.40625-.363281.601562-.558594.195313-.195312.382813-.394531.558594-.601562 2.613282-3.078125 2.570313-7.613281.214844-10.894531zm0 0" fill="#fff5f5"/><path d="m202.054688 103.472656 206.472656 206.472656-198.019532 198.023438c-104.917968-18.820312-187.65625-101.558594-206.476562-206.476562zm0 0" fill="#328091"/><path d="m4.03125 301.492188 198.023438-198.019532 19.796874 19.796875-209.976562 209.980469c-3.265625-10.320312-5.898438-20.917969-7.84375-31.757812zm0 0" fill="#2b6c7e"/><path d="m251.710938 401.710938c-39.050782 39.050781-102.367188 39.050781-141.421876 0-39.050781-39.050782-39.050781-102.367188 0-141.421876 39.054688-39.050781 102.371094-39.050781 141.421876 0 39.050781 39.054688 39.050781 102.367188 0 141.421876zm0 0" fill="#235967"/><path d="m92.390625 284.59375 97.75 16.886719c10.417969 1.800781 18.578125 9.960937 20.378906 20.378906l16.886719 97.746094c-37.722656 19.773437-85.414062 13.808593-117.117188-17.894531-31.703124-31.703126-37.667968-79.394532-17.898437-117.117188zm0 0" fill="#f7e6b0"/><path d="m210.519531 321.859375 16.886719 97.75c-27.359375 14.335937-59.960938 15.125-87.90625 2.386719-16.8125-36.875-10.058594-81.863282 20.285156-112.210938 4.207032-4.203125 8.707032-7.929687 13.417969-11.230468l16.933594 2.925781c10.421875 1.800781 18.582031 9.960937 20.382812 20.378906zm0 0" fill="#fff5f5"/><path d="m160.269531 329.117188c1.472657 2.050781 1.5 4.886718-.136719 6.808593-.109374.128907-.222656.257813-.347656.378907-.121094.121093-.246094.234374-.375.34375-1.925781 1.636718-4.757812 1.609374-6.808594.136718-2.636718-1.894531-5.480468-4.308594-8.28125-7.109375-2.804687-2.804687-5.21875-5.644531-7.113281-8.285156-1.472656-2.050781-1.496093-4.882813.136719-6.808594.109375-.128906.222656-.253906.347656-.375.121094-.121093.246094-.238281.375-.347656 1.925782-1.632813 4.757813-1.609375 6.808594-.136719 2.640625 1.894532 5.480469 4.308594 8.28125 7.113282 2.804688 2.800781 5.21875 5.644531 7.113281 8.28125zm35.203125 35.777343c-.167968-.015625-.339844-.023437-.511718-.023437-.171876 0-.34375.007812-.511719.023437-2.515625.203125-4.503907 2.226563-4.910157 4.714844-.527343 3.207031-.828124 6.925781-.828124 10.886719 0 3.964844.300781 7.679687.828124 10.886718.40625 2.492188 2.394532 4.511719 4.910157 4.71875.167969.011719.335937.019532.511719.019532.171874 0 .34375-.007813.511718-.019532 2.515625-.207031 4.5-2.226562 4.910156-4.71875.527344-3.207031.828126-6.921874.828126-10.886718 0-3.960938-.300782-7.679688-.828126-10.886719-.410156-2.488281-2.394531-4.511719-4.910156-4.714844zm1.71875-51.507812c-3.207031-.527344-6.925781-.828125-10.886718-.828125-3.964844 0-7.679688.300781-10.886719.828125-2.492188.410156-4.511719 2.394531-4.71875 4.910156-.011719.167969-.019531.339844-.019531.511719s.007812.34375.019531.511718c.207031 2.515626 2.226562 4.5 4.71875 4.910157 3.207031.527343 6.921875.828125 10.886719.828125 3.960937 0 7.679687-.300782 10.886718-.828125 2.488282-.410157 4.511719-2.394531 4.714844-4.910157.015625-.167968.023438-.339843.023438-.511718s-.007813-.34375-.023438-.511719c-.203125-2.515625-2.226562-4.5-4.714844-4.910156zm-44.011718 44.011719c-3.207032-.527344-6.925782-.828126-10.886719-.828126-3.964844 0-7.679688.300782-10.886719.828126-2.492188.410156-4.511719 2.394531-4.71875 4.910156-.011719.167968-.019531.339844-.019531.511718 0 .171876.007812.34375.019531.511719.207031 2.515625 2.226562 4.5 4.71875 4.910157 3.207031.527343 6.921875.828124 10.886719.828124 3.960937 0 7.679687-.300781 10.886719-.828124 2.488281-.410157 4.511718-2.394532 4.714843-4.910157.015625-.167969.023438-.339843.023438-.511719 0-.171874-.007813-.34375-.023438-.511718-.203125-2.515625-2.226562-4.5-4.714843-4.910156zm64.871093-119.304688c-1.703125 1.515625-3.417969 3.128906-5.121093 4.835938-4.484376 4.480468-8.351563 9.027343-11.378907 13.25-2.355469 3.28125-2.398437 7.816406.214844 10.894531.175781.207031.363281.40625.558594.601562.195312.195313.394531.382813.601562.558594 3.078125 2.613281 7.613281 2.570313 10.894531.214844 4.222657-3.03125 8.769532-6.894531 13.25-11.378907 3.265626-3.265624 6.199219-6.5625 8.722657-9.746093-5.652344-3.707031-11.601563-6.785157-17.742188-9.230469zm35.625 54.488281c-.65625-3.984375-3.832031-7.222656-7.855469-7.550781-.269531-.019531-.542968-.03125-.820312-.03125s-.550781.011719-.820312.03125c-4.023438.328125-7.199219 3.566406-7.855469 7.550781-.84375 5.128907-1.324219 11.078125-1.324219 17.417969s.480469 12.289062 1.324219 17.417969c.65625 3.984375 3.832031 7.222656 7.855469 7.550781.269531.019531.542968.03125.820312.03125s.550781-.011719.820312-.03125c4.023438-.328125 7.199219-3.566406 7.855469-7.550781.84375-5.128907 1.324219-11.078125 1.324219-17.417969s-.480469-12.289062-1.324219-17.417969zm0 0" fill="#f7e6b0"/></svg>