<svg viewBox="0 0 512 512" xmlns="http://www.w3.org/2000/svg"><path d="m512 256c0 76.035156-33.148438 144.328125-85.78125 191.214844-11.230469 10.003906-23.847656 17.53125-36.71875 25.453125-38.976562 23.992187-84.371094 27.332031-133.5 27.332031-141.386719 0-224.433594-118.191406-235.101562-244-4.269532-50.394531-3.585938-96.796875 21.726562-136.5 7.394531-11.597656 13.050781-23.492188 22.160156-33.71875 46.886719-52.632812 115.179688-85.78125 191.214844-85.78125 141.386719 0 256 114.613281 256 256zm0 0" fill="#2b6c7e"/><path d="m427.230469 286.363281c7.011719 25.011719 10.769531 51.382813 10.769531 78.636719 0 28.550781-4.132812 56.132812-11.792969 82.203125-19.222656 17.121094-41.042969 31.394531-64.796875 42.144531-32.144531 14.550782-67.828125 13.652344-105.40625 13.652344-141.023437 0-247.507812-114.480469-247.507812-255.503906.003906-36.027344-1.046875-61.820313 12.390625-92.914063 10.933593-25.304687 25.832031-48.492187 43.910156-68.789062 26.070313-7.660157 53.652344-11.792969 82.203125-11.792969 27.253906 0 53.625 3.757812 78.640625 10.769531 9.71875 2.722657 15.890625 12.265625 14.382813 22.25l-27.300782 180.878907c-1.003906 6.65625 4.722656 12.382812 11.378906 11.378906l180.878907-27.300782c9.984375-1.507812 19.527343 4.664063 22.25 14.386719zm84.574219-85.269531c-20.097657-101.132812-99.765626-180.800781-200.898438-200.898438-5.59375-1.113281-10.984375 2.683594-11.835938 8.324219l-35.328124 234.046875c-.5 3.328125 2.363281 6.195313 5.691406 5.691406l234.046875-35.328124c5.640625-.851563 9.4375-6.242188 8.324219-11.835938zm0 0" fill="#f5c02c"/><path d="m429.242188 293.964844c-3.652344-1.914063-7.914063-2.714844-12.261719-2.058594l-180.878907 27.304688c-6.65625 1.003906-12.382812-4.726563-11.378906-11.382813l1.335938-8.84375 178.921875-27.007813c9.984375-1.507812 19.527343 4.664063 22.253906 14.382813.703125 2.523437 1.367187 5.058594 2.007813 7.605469zm-159.808594-45.707032 17.042968-2.574218 35.160157-232.914063c.625-4.160156 3.722656-7.304687 7.546875-8.234375-6.007813-1.660156-12.101563-3.113281-18.277344-4.339844-5.59375-1.113281-10.984375 2.683594-11.835938 8.324219l-35.328124 234.046875c-.5 3.328125 2.363281 6.191406 5.691406 5.691406zm-29.265625-142.640624c.757812-9.460938-5.265625-18.253907-14.53125-20.847657-25.011719-7.011719-51.382813-10.769531-78.636719-10.769531-28.550781 0-56.132812 4.132812-82.203125 11.792969-17.0625 19.15625-31.296875 40.890625-42.03125 64.546875-.640625 1.40625-1.253906 2.828125-1.867187 4.246094 6.738281-1.039063 38.433593-47.921876 85.238281-55.851563 17.183593-2.910156 34.808593-4.804687 52.863281-4.804687 27.253906 0 53.625 3.757812 78.640625 10.769531.875.246093 1.710937.566406 2.527344.917969zm0 0" fill="#cd9e00"/><path d="m393.632812 406.707031c.605469 4.898438-.378906 9.847657-2.816406 14.144531-6.097656 10.75-12.355468 23.574219-18.171875 37.613282-4.464843 10.777344-8.230469 21.226562-11.230469 30.894531-32.148437 14.542969-67.835937 22.640625-105.414062 22.640625-141.34375 0-256-114.65625-256-256 0-37.578125 8.125-73.273438 22.667969-105.421875 9.667969-3 20.089843-6.757813 30.867187-11.222656 14.039063-5.816407 26.863282-12.070313 37.613282-18.171875 4.296874-2.4375 9.246093-3.421875 14.144531-2.8125 12.269531 1.519531 26.511719 2.394531 41.707031 2.394531 15.128906 0 29.308594-.867187 41.539062-2.375 4.953126-.613281 9.972657.332031 14.3125 2.792969 9.460938 5.367187 20.527344 10.855468 32.609376 16.058594l-22.738282 150.65625c-1.007812 6.65625 4.722656 12.382812 11.378906 11.378906l150.65625-22.738282c5.203126 12.082032 10.6875 23.148438 16.058594 32.609376 2.460938 4.339843 3.402344 9.359374 2.792969 14.3125-1.511719 12.230468-2.375 26.410156-2.375 41.539062 0 15.195312.875 29.4375 2.398437 41.707031zm81.578126-204.59375c-5.363282-9.453125-10.863282-20.726562-15.972657-33.066406-5.117187-12.355469-9.203125-24.222656-12.09375-34.707031-1.15625-4.1875-3.621093-7.875-7.050781-10.546875-8.578125-6.683594-17.980469-15-27.433594-24.453125s-17.769531-18.855469-24.453125-27.433594c-2.671875-3.429688-6.359375-5.894531-10.546875-7.050781-10.484375-2.890625-22.351562-6.976563-34.707031-12.09375-12.339844-5.109375-23.613281-10.609375-33.066406-15.972657-3.785157-2.148437-8.148438-3.023437-12.464844-2.488281-.746094.09375-1.519531.175781-2.28125.261719l-31.398437 208.003906c-.5 3.328125 2.363281 6.191406 5.691406 5.691406l140.671875-21.234374.183593.917968c1.625 8.121094 9.527344 13.390625 17.652344 11.765625 7.960938-1.589843 13.164063-9.214843 11.839844-17.164062l37.65625-5.683594c.085938-.761719.167969-1.535156.261719-2.28125.535156-4.316406-.339844-8.679687-2.488281-12.464844zm0 0" fill="#fdf7bd"/><path d="m145 305c0-5.523438 4.476562-10 10-10s10 4.476562 10 10-4.476562 10-10 10-10-4.476562-10-10zm195-85c5.523438 0 10-4.476562 10-10s-4.476562-10-10-10-10 4.476562-10 10 4.476562 10 10 10zm-50 180c-5.523438 0-10 4.476562-10 10s4.476562 10 10 10 10-4.476562 10-10-4.476562-10-10-10zm-20.566406-151.742188 17.46875-2.636718 3.871094-25.660156c5.160156-.394532 9.226562-4.699219 9.226562-9.960938 0-4.222656-2.621094-7.824219-6.320312-9.292969l24.097656-159.636719c-2.746094-1.429687-5.386719-2.859374-7.890625-4.28125-3.785157-2.148437-8.148438-3.023437-12.464844-2.488281-.746094.09375-1.519531.175781-2.28125.261719l-31.398437 208.003906c-.5 3.328125 2.363281 6.191406 5.691406 5.691406zm92.371094 239.847657c-22.570313 5.957031-46.234376 9.136719-70.675782 9.136719-85.949218 0-162.753906-39.269532-213.449218-100.839844 1.449218-1.734375 2.320312-3.964844 2.320312-6.402344 0-5.523438-4.476562-10-10-10-1.496094 0-2.90625.335938-4.179688.925781-32.152343-45.167969-51.0625-100.410156-51.0625-160.050781 0-24.460938 3.171876-48.097656 9.136719-70.679688-.375.03125-.808593.078126-1.160156.214844-14.605469 32.199219-22.734375 67.929688-22.734375 105.589844 0 141.386719 114.613281 256 256 256 37.667969 0 73.410156-8.132812 105.617188-22.746094.171874-.382812.167968-.792968.1875-1.148437zm78.195312-308.105469c-5.523438 0-10 4.476562-10 10s4.476562 10 10 10 10-4.476562 10-10-4.476562-10-10-10zm-40-40c-5.523438 0-10 4.476562-10 10s4.476562 10 10 10 10-4.476562 10-10-4.476562-10-10-10zm-260 260c5.523438 0 10-4.476562 10-10s-4.476562-10-10-10-10 4.476562-10 10 4.476562 10 10 10zm-100-200c5.523438 0 10-4.476562 10-10s-4.476562-10-10-10-10 4.476562-10 10 4.476562 10 10 10zm0 0" fill="#fcf498"/><path d="m352.011719 419.148438c2.519531 3.171874 1.5625 8.621093-1.917969 13.027343-4.484375 5.675781-10.03125 11.902344-16.308594 18.179688-6.277344 6.277343-12.503906 11.824219-18.179687 16.304687-4.40625 3.484375-9.855469 4.441406-13.027344 1.917969-.214844-.167969-.417969-.351563-.613281-.546875-.195313-.191406-.375-.398438-.542969-.609375-2.523437-3.171875-1.566406-8.621094 1.917969-13.027344 4.480468-5.675781 10.027344-11.902343 16.304687-18.179687 6.277344-6.28125 12.503907-11.824219 18.179688-16.308594 4.40625-3.480469 9.855469-4.4375 13.027343-1.917969.214844.167969.417969.351563.613282.546875.195312.195313.375.402344.546875.613282zm-112.625-87.824219c-7.183594-.84375-15.507813-1.324219-24.386719-1.324219s-17.203125.480469-24.386719 1.324219c-5.578125.65625-10.105469 3.832031-10.566406 7.855469-.03125.269531-.046875.542968-.046875.820312s.015625.550781.046875.820312c.460937 4.023438 4.988281 7.199219 10.566406 7.855469 7.183594.84375 15.507813 1.324219 24.386719 1.324219s17.203125-.480469 24.386719-1.324219c5.578125-.65625 10.105469-3.832031 10.566406-7.855469.03125-.269531.046875-.542968.046875-.820312s-.015625-.550781-.046875-.820312c-.457031-4.023438-4.988281-7.199219-10.566406-7.855469zm-177.316407-88.394531c-6.277343-6.277344-12.503906-11.824219-18.179687-16.308594-4.40625-3.480469-9.855469-4.4375-13.027344-1.914063-.214843.167969-.417969.351563-.613281.546875-.195312.191406-.375.398438-.546875.609375-2.519531 3.171875-1.5625 8.621094 1.917969 13.027344 4.484375 5.675781 10.03125 11.902344 16.308594 18.179687 6.277343 6.28125 12.503906 11.824219 18.179687 16.308594 4.40625 3.480469 9.855469 4.4375 13.027344 1.917969.214843-.167969.417969-.351563.613281-.546875s.375-.398438.546875-.613281c2.519531-3.167969 1.5625-8.617188-1.917969-13.027344-4.484375-5.675781-10.03125-11.902344-16.308594-18.179687zm118.75 47.023437c4.023438-.457031 7.199219-4.988281 7.855469-10.566406.84375-7.183594 1.324219-15.507813 1.324219-24.386719s-.480469-17.203125-1.324219-24.386719c-.65625-5.578125-3.832031-10.105469-7.855469-10.566406-.269531-.03125-.542968-.046875-.820312-.046875s-.550781.015625-.820312.046875c-4.023438.460937-7.199219 4.988281-7.855469 10.566406-.84375 7.183594-1.324219 15.507813-1.324219 24.386719s.480469 17.203125 1.324219 24.386719c.65625 5.578125 3.832031 10.105469 7.855469 10.566406.269531.03125.542968.046875.820312.046875s.550781-.015625.820312-.046875zm237.757813-120.804687c-.167969-.214844-.347656-.417969-.542969-.613282-.195312-.195312-.398437-.375-.613281-.546875-3.171875-2.519531-8.621094-1.5625-13.027344 1.917969-5.675781 4.484375-11.902343 10.03125-18.179687 16.308594s-11.824219 12.503906-16.308594 18.179687c-3.480469 4.40625-4.4375 9.855469-1.917969 13.027344.171875.214844.351563.417969.546875.613281.195313.195313.398438.375.613282.542969 3.171874 2.523437 8.621093 1.566406 13.027343-1.914063 5.675781-4.484374 11.902344-10.03125 18.179688-16.308593 6.277343-6.277344 11.824219-12.503907 16.304687-18.179688 3.484375-4.40625 4.441406-9.855469 1.917969-13.027343zm0 0" fill="#08b772"/><path d="m370 350c0 22.09375-17.910156 40-40 40s-40-17.90625-40-40c0-22.089844 17.910156-40 40-40s40 17.910156 40 40zm-170 20c-22.089844 0-40 17.910156-40 40 0 22.09375 17.910156 40 40 40s40-17.90625 40-40c0-22.089844-17.910156-40-40-40zm-130-80c-22.089844 0-40 17.910156-40 40s17.910156 40 40 40 40-17.910156 40-40-17.910156-40-40-40zm50-130c-22.089844 0-40 17.910156-40 40 0 22.09375 17.910156 40 40 40s40-17.90625 40-40c0-22.089844-17.910156-40-40-40zm216.433594-1.804688c22.09375 0 40-17.910156 40-40 0-22.09375-17.90625-40-40-40-22.089844 0-40 17.90625-40 40 0 22.089844 17.910156 40 40 40zm0 0" fill="#ef7280"/><path d="m296.433594 118.195312c0-22.09375 17.910156-40 40-40 3.367187 0 6.628906.417969 9.75 1.199219-7.359375 1.84375-13.902344 5.734375-19.011719 11.015625.898437-.261718 1.84375-.410156 2.828125-.410156 5.523438 0 10 4.476562 10 10s-4.476562 10-10 10c-5.335938 0-9.679688-4.179688-9.972656-9.441406-2.617188 5.320312-4.09375 11.304687-4.09375 17.636718 0 6.71875 1.667968 13.050782 4.597656 18.609376 1.332031-3.953126 5.0625-6.804688 9.46875-6.804688 5.523438 0 10 4.476562 10 10 0 5.003906-3.683594 9.140625-8.480469 9.871094 4.28125 3.308594 9.253907 5.765625 14.664063 7.121094-3.121094.78125-6.382813 1.199218-9.75 1.199218-22.089844.003906-40-17.90625-40-39.996094zm-196.933594 81.804688c0-4.824219.859375-9.445312 2.425781-13.726562 3.210938 3.503906 8.5625 4.320312 12.714844 1.683593 4.664063-2.960937 6.042969-9.140625 3.085937-13.804687-1.203124-1.886719-2.933593-3.226563-4.875-3.96875 4.75-4.25 10.519532-7.382813 16.898438-8.980469-3.121094-.78125-6.386719-1.203125-9.75-1.203125-22.089844 0-40 17.910156-40 40 0 22.09375 17.910156 40 40 40 3.363281 0 6.628906-.417969 9.75-1.199219-17.378906-4.355469-30.25-20.074219-30.25-38.800781zm-12.292969 120c-5.523437 0-10 4.476562-10 10s4.476563 10 10 10c5.523438 0 10-4.476562 10-10s-4.476562-10-10-10zm38.152344-115.160156c-4.664063 2.960937-6.042969 9.140625-3.085937 13.804687 2.960937 4.660157 9.140624 6.042969 13.804687 3.082031 4.660156-2.957031 6.042969-9.136718 3.082031-13.800781-2.960937-4.664062-9.136718-6.042969-13.800781-3.085937zm-51.792969 146.96875c0-5.523438-4.476562-10-10-10-4.40625 0-8.136718 2.847656-9.46875 6.804687-2.933594-5.558593-4.597656-11.890625-4.597656-18.613281 0-6.328125 1.476562-12.3125 4.09375-17.632812.292969 5.261718 4.636719 9.441406 9.972656 9.441406 5.523438 0 10-4.480469 10-10 0-5.523438-4.476562-10-10-10-.984375 0-1.929687.144531-2.828125.410156 5.109375-5.285156 11.652344-9.171875 19.011719-11.015625-3.121094-.78125-6.386719-1.203125-9.75-1.203125-22.089844 0-40 17.910156-40 40 0 22.09375 17.910156 40 40 40 3.363281 0 6.628906-.421875 9.75-1.203125-5.410156-1.355469-10.382812-3.8125-14.667969-7.117187 4.800781-.734376 8.484375-4.867188 8.484375-9.871094zm130 80c0-5.523438-4.476562-10-10-10-4.40625 0-8.136718 2.847656-9.46875 6.804687-2.933594-5.558593-4.597656-11.890625-4.597656-18.613281 0-18.726562 12.871094-34.441406 30.25-38.796875-3.121094-.78125-6.386719-1.203125-9.75-1.203125-22.089844 0-40 17.910156-40 40 0 22.09375 17.910156 40 40 40 3.363281 0 6.628906-.417969 9.75-1.199219-5.410156-1.355469-10.382812-3.816406-14.667969-7.121093 4.800781-.734376 8.484375-4.867188 8.484375-9.871094zm143.683594-91.808594c-5.523438 0-10 4.476562-10 10s4.476562 10 10 10 10-4.476562 10-10-4.476562-10-10-10zm-13.683594 31.808594c0-5.523438-4.476562-10-10-10-4.40625 0-8.136718 2.847656-9.46875 6.804687-2.933594-5.558593-4.597656-11.890625-4.597656-18.613281 0-6.328125 1.476562-12.3125 4.09375-17.632812.292969 5.261718 4.636719 9.441406 9.972656 9.441406 5.523438 0 10-4.480469 10-10 0-5.523438-4.476562-10-10-10-.984375 0-1.929687.144531-2.828125.410156 5.109375-5.285156 11.652344-9.171875 19.011719-11.015625-3.121094-.78125-6.386719-1.203125-9.75-1.203125-22.089844 0-40 17.910156-40 40 0 22.09375 17.910156 40 40 40 3.363281 0 6.628906-.417969 9.75-1.199219-5.410156-1.355469-10.382812-3.816406-14.664062-7.121093 4.796874-.734376 8.480468-4.867188 8.480468-9.871094zm-128.566406 18.191406c-5.523438 0-10 4.476562-10 10s4.476562 10 10 10 10-4.476562 10-10-4.476562-10-10-10zm0 0" fill="#ea5569"/></svg>