<svg viewBox="0 0 512.00012 512" xmlns="http://www.w3.org/2000/svg"><path d="m512 256c0 141.386719-114.613281 256-256 256-21.566406 0-42.507812-2.675781-62.515625-7.695312-27.367187-21.109376-59.125-36.804688-93.671875-45.476563-22.25-17.160156-41.597656-37.894531-57.183594-61.351563-2.761718-46.429687-17.894531-89.523437-42.152344-126.035156-.304687-5.113281-.476562-10.253906-.476562-15.441406 0-141.386719 114.613281-256 256-256s256 114.613281 256 256zm0 0" fill="#b1529e"/><path d="m496.84375 96.3125-18.902344 3.097656c-4.492187.738282-8.796875-.382812-11.890625-2.988281-26.949219 9.789063-51.980469 24.320313-73.886719 42.933594 24.058594 33.195312 30.039063 69.242187 12.179688 87.101562-21.476562 21.476563-69.28125 8.496094-106.773438-28.992187-37.488281-37.488282-50.46875-85.292969-28.988281-106.773438 18.1875-18.1875 55.253907-11.660156 88.949219 13.535156 34.296875-26.605468 92.21875-57.839843 97.511719-59.53125l17.117187-5.46875c6.328125-2.019531 12.808594-.253906 16.359375 4.464844l20.851563 27.679688c6.757812 8.964844-.261719 22.929687-12.527344 24.941406zm0 0" fill="#08b772"/><path d="m496.84375 96.3125-18.902344 3.097656c-4.492187.738282-8.796875-.382812-11.890625-2.988281-26.945312 9.789063-51.972656 24.3125-73.878906 42.925781-2.292969-3.164062-6.15625-7.710937-9.613281-11.644531-3.902344-4.4375-3.136719-11.285156 1.675781-14.714844 34.480469-24.605469 82.421875-50.355469 87.210937-51.886719l17.117188-5.46875c2.949219-.941406 5.925781-1.054687 8.628906-.433593l12.179688 16.167969c6.757812 8.96875-.261719 22.933593-12.527344 24.945312zm-191.492188 31.148438c-17.828124 17.828124-11.914062 53.792968 12.050782 86.945312 33.148437 23.964844 69.113281 29.878906 86.941406 12.050781s11.914062-53.796875-12.050781-86.945312c-33.148438-23.964844-69.113281-29.878907-86.941407-12.050781zm0 0" fill="#04d481"/><path d="m193.675781 504.34375c-34.699219-8.679688-66.585937-24.441406-94.050781-45.660156-5.066406-14.128906 13.335938-53.972656 2.019531-65.292969-9.519531-9.515625-46.996093 9.777344-58.621093 4.679687-24.707032-36.964843-40.046876-80.714843-42.625-127.871093 18.914062-51.441407 52.453124-104.15625 99.066406-150.769531 17.117187-17.113282 56.1875-56.027344 63.40625-63.019532 29.214844-28.296875 76.125-28.597656 105.679687-.65625 9.402344 8.890625 16.039063 19.558594 19.910157 30.957032 5.816406 17.136718 19.410156 30.285156 36.507812 36.210937 10.582031 3.667969 20.519531 9.722656 28.96875 18.175781 8.453125 8.449219 14.511719 18.386719 18.175781 28.96875 5.925781 17.097656 19.074219 30.695313 36.210938 36.507813 11.398437 3.871093 22.070312 10.507812 30.957031 19.910156 27.941406 29.554687 27.640625 76.464844-.65625 105.675781-6.992188 7.222656-45.90625 46.292969-63.019531 63.410156-56.09375 56.09375-121.015625 93.261719-181.929688 108.773438zm0 0" fill="#fdbf43"/><path d="m414.238281 208.871094c-27.984375 47.789062-95.335937 131.558594-115.34375 111.539062-5.855469-5.855468-4.429687-17.070312-.921875-20.945312 29.707032-32.824219 52.0625-68.839844 62.949219-101.414063 5.449219-16.316406 7.046875-28.96875 6.707031-38.34375 1.761719 3.359375 3.261719 6.824219 4.484375 10.359375 5.925781 17.101563 19.078125 30.695313 36.210938 36.511719 1.996093.675781 3.96875 1.445313 5.914062 2.292969zm-78.910156-81.464844c-3.308594-1.734375-6.71875-3.214844-10.199219-4.429688-17.074218-5.960937-30.859375-19.097656-36.65625-36.226562-.488281-1.441406-1.039062-2.863281-1.617187-4.28125.007812 0-.566407-1.390625-.6875-1.671875-.007813.003906-.011719.007813-.019531.007813-3.992188-9.164063-9.839844-17.71875-17.597657-25.054688-29.554687-27.9375-76.460937-27.636719-105.675781.65625-7.21875 6.992188-46.292969 45.90625-63.40625 63.023438-46.613281 46.613281-80.15625 99.324218-99.070312 150.765624 1.765624 32.285157 9.503906 62.976563 22.140624 90.984376 16.535157-66.492188 50.785157-129.484376 102.765626-181.464844 25.90625-25.90625 54.546874-47.402344 84.996093-64.5 8.601563-4.832032 16.816407 6.90625 9.28125 13.277344-32.085937 27.136718-56.855469 55.753906-44.953125 67.644531 5.855469 5.855469 17.066406 4.433593 20.945313.921875 32.824219-29.707032 68.839843-52.058594 101.414062-62.945313 16.3125-5.449219 28.964844-7.042969 38.339844-6.707031zm0 0" fill="#fda800"/></svg>