<svg id="filled_outline" height="512" viewBox="0 0 512 512" width="512" xmlns="http://www.w3.org/2000/svg" data-name="filled outline"><path d="m276 24a76 76 0 0 1 76 76v164a0 0 0 0 1 0 0h-152a0 0 0 0 1 0 0v-164a76 76 0 0 1 76-76z" fill="#ffbf41"/><path d="m276 24a76.26 76.26 0 0 0 -16 1.7 76.017 76.017 0 0 1 60 74.3v148h32v-148a76 76 0 0 0 -76-76z" fill="#db9e07"/><path d="m264 120h88a0 0 0 0 1 0 0v32a0 0 0 0 1 0 0h-88a16 16 0 0 1 -16-16 16 16 0 0 1 16-16z" fill="#bf6b04"/><path d="m264 184h88a0 0 0 0 1 0 0v32a0 0 0 0 1 0 0h-88a16 16 0 0 1 -16-16 16 16 0 0 1 16-16z" fill="#bf6b04"/><path d="m350.59 168h18.82a30.59 30.59 0 0 1 30.59 30.59v65.41a0 0 0 0 1 0 0h-80a0 0 0 0 1 0 0v-65.41a30.59 30.59 0 0 1 30.59-30.59z" fill="#ffbb71"/><path d="m369.41 168h-18.82a30.7 30.7 0 0 0 -6.59.719 30.6 30.6 0 0 1 24 29.871v65.41h32v-65.41a30.589 30.589 0 0 0 -30.59-30.59z" fill="#ffa95c"/><path d="m361.194 173.922h-5.707l-42.487-49.532a17.622 17.622 0 0 1 .919-23.929 17.621 17.621 0 0 1 24.921 0l3.54 3.539 3.539-3.539a17.621 17.621 0 0 1 24.921 0l3.54 3.539 3.539-3.539a17.621 17.621 0 0 1 24.921 0 17.621 17.621 0 0 1 .919 23.929z" fill="#83a603"/><g fill="#365902"><path d="m354.673 95.705c-.159.034-.317.077-.475.116l.18.179z"/><path d="m322.2 95.821.18.179.3-.3c-.166.039-.324.082-.48.121z"/><path d="m402.839 100.461a17.61 17.61 0 0 0 -17.292-4.481 17.615 17.615 0 0 1 -1.788 20.41l-38.846 45.21 10.574 12.327h5.713l42.563-49.532a17.623 17.623 0 0 0 -.924-23.934z"/></g><path d="m160 88h48v64h-48z" fill="#88d0ef"/><path d="m160 136h48l48 48v16h-144v-16z" fill="#55abc9"/><path d="m112 184h144v72h-144z" fill="#a9e9ff"/><path d="m208 184h48v72h-48z" fill="#88d0ef"/><path d="m105.373 129.373h45.255v45.255h-45.255z" fill="#a9bfd1" transform="matrix(.707 -.707 .707 .707 -69.99 135.029)"/><path d="m108.686 137.373h22.627v45.255h-22.627z" fill="#8da3b2" transform="matrix(.707 -.707 .707 .707 -77.99 131.716)"/><path d="m112 184 48-48 48 48z" fill="#88d0ef"/><path d="m408 488h-304v-160l-16-80h336l-16 80z" fill="#d98218"/><path d="m356.8 248-12.8 64v32.553a111.448 111.448 0 0 1 -111.447 111.447h-128.553v32h304v-160l16-80z" fill="#bf6b04"/><path d="m256 392a80.091 80.091 0 0 1 -80-80v-40h16v40a64 64 0 0 0 128 0v-40h16v40a80.091 80.091 0 0 1 -80 80z" fill="#cccbb2"/><path d="m104 184v56h-16a8 8 0 0 0 -7.845 9.569l15.845 79.223v159.208a8 8 0 0 0 8 8h304a8 8 0 0 0 8-8v-159.208l15.845-79.223a8 8 0 0 0 -7.845-9.569h-16v-41.41a38.649 38.649 0 0 0 -26.036-36.482l27.868-32.508a25.624 25.624 0 0 0 -35.454-36.69 25.532 25.532 0 0 0 -15.332-5.568 84.008 84.008 0 0 0 -164.637-7.342h-34.409a8 8 0 0 0 -8 8v44.686l-18.343-18.343a8 8 0 0 0 -11.314 0l-32 32a8 8 0 0 0 0 11.314l18.343 18.343-2.343 2.343a7.979 7.979 0 0 0 -2.343 5.657zm100.686-40 32 32h-25.372l-32-32zm59.314 96v-16h48v16zm-48-48h32v48h-32zm96 6.59v9.41h-48v-16h48.574a38.693 38.693 0 0 0 -.574 6.59zm-152-51.277 28.686 28.687h-57.372zm40 44.687v48h-80v-48zm200.155 134.431a8.026 8.026 0 0 0 -.155 1.569v152h-288v-152a8.026 8.026 0 0 0 -.155-1.569l-14.087-70.431h316.484zm-8.155-127.841v41.41h-64v-41.41a22.616 22.616 0 0 1 22.59-22.59h18.82a22.616 22.616 0 0 1 22.59 22.59zm-85.077-68.99 12.346 14.4h-55.269a8 8 0 0 1 0-16h41.684c.394.542.797 1.08 1.239 1.6zm61.8-19.94a8 8 0 0 0 11.313 0l3.54-3.539a9.622 9.622 0 0 1 14.109 13.067l-34.985 40.812h-8.641l-34.985-40.815a9.667 9.667 0 0 1 .5-13.067 9.623 9.623 0 0 1 13.608 0l3.539 3.539a8 8 0 0 0 11.313 0l3.54-3.539a9.623 9.623 0 0 1 13.608 0zm-137.08-61.2a67.993 67.993 0 0 1 111.882 43.608c-.385.275-.774.541-1.147.839a25.573 25.573 0 0 0 -41.561 19.093h-36.817a24 24 0 0 0 0 48h68.984l2.6 3.036a38.8 38.8 0 0 0 -16.252 12.964h-55.332a24.025 24.025 0 0 0 -4.29.4l-43.71-43.714v-44.686a8 8 0 0 0 -5.168-7.475 68.133 68.133 0 0 1 20.809-32.066zm-63.643 47.54h32v32h-32zm-60.687 56 20.687-20.687 12.686 12.687-20.686 20.686z"/><path d="m256 392a80.091 80.091 0 0 0 80-80v-40h-16v40a64 64 0 0 1 -128 0v-40h-16v40a80.091 80.091 0 0 0 80 80z"/></svg>