<svg viewBox="0 0 512 512" xmlns="http://www.w3.org/2000/svg"><path d="m512 256c0 141.386719-114.613281 256-256 256-39.1875 0-76.3125-8.816406-109.515625-24.558594-25.296875-53.476562-68.5625-96.78125-122.015625-122.117187-15.683594-33.15625-24.46875-70.210938-24.46875-109.324219 0-141.386719 114.613281-256 256-256s256 114.613281 256 256zm0 0" fill="#2b6c7e"/><path d="m436.914062 447.121094c-49.785156 49.789062-127.042968 22.585937-208.058593-41.902344l-82.269531 82.269531c-53.46875-25.316406-96.757813-68.605469-122.074219-122.074219l82.269531-82.269531c-64.492188-81.015625-91.691406-158.273437-41.902344-208.058593 62.871094-62.875 224.703125-58.140626 327.4375 44.597656 102.738282 102.734375 107.472656 264.5625 44.597656 327.4375zm0 0" fill="#f7e6b0"/><path d="m406.660156 135.140625c-103.648437-88.585937-262.121094-81.589844-328.96875-14.742187-18.289062 18.289062-27.894531 39.253906-30.304687 62.074218-14.242188-41.78125-10.859375-79.039062 17.492187-107.386718 62.875-62.875 224.703125-58.140626 327.441406 44.597656 5.015626 5.015625 9.789063 10.175781 14.339844 15.457031zm-251.136718 31.683594c14.398437 23.574219 11.785156 54.339843-8.109376 74.234375l-41.359374 41.355468-82.007813 82.007813c4.414063 9.421875 9.378906 18.53125 14.863281 27.285156l129.578125-129.578125c23.429688-23.429687 22.90625-61.945312-1.171875-86.023437-3.636718-3.632813-7.601562-6.722657-11.792968-9.28125zm0 0" fill="#f5dc90"/><path d="m357.410156 451.054688c-7.070312 7.074218-15.523437 11.949218-24.535156 14.667968-32.523438-10.410156-67.898438-31.75-104.019531-60.503906l41.359375-41.359375c23.433594-23.429687 61.945312-22.90625 86.027344 1.171875 24.078124 24.078125 24.601562 62.59375 1.167968 86.023438zm-296.464844-296.464844c-7.074218 7.070312-11.949218 15.523437-14.667968 24.535156 10.410156 32.523438 31.023437 67.171875 59.777344 103.289062l42.085937-40.628906c23.433594-23.433594 22.90625-61.945312-1.171875-86.027344-24.078125-24.078124-62.59375-24.601562-86.023438-1.167968zm0 0" fill="#f1ca50"/></svg>