<svg viewBox="0 0 512 512" xmlns="http://www.w3.org/2000/svg"><path d="m512 256c0 141.386719-114.613281 256-256 256s-256-114.613281-256-256 114.613281-256 256-256 256 114.613281 256 256zm0 0" fill="#fdbf43"/><path d="m382.417969 218.71875c-8.46875 11.578125-9.902344 26.722656-4.242188 39.902344 9.398438 21.890625 5.167969 48.226562-12.703125 66.097656l-169.707031 169.707031c-3.023437 3.023438-6.292969 5.648438-9.738281 7.890625-85.128906-24.132812-152.207032-91.214844-176.34375-176.34375 2.242187-3.445312 4.867187-6.714844 7.890625-9.738281l169.703125-169.703125c17.875-17.875 44.210937-22.105469 66.101562-12.707031 13.179688 5.660156 28.324219 4.226562 39.902344-4.242188l108.691406-79.484375 59.929688 59.929688zm0 0" fill="#c92e43"/><path d="m382.417969 218.71875c-8.46875 11.578125-9.902344 26.722656-4.242188 39.902344 1.910157 4.449218 3.25 9.085937 4.03125 13.792968-.605469 4.714844-.390625 9.535157.671875 14.242188-1 13.871094-6.800781 27.457031-17.40625 38.0625l-169.707031 169.707031c-3.023437 3.023438-6.292969 5.648438-9.738281 7.890625-74.730469-21.1875-135.546875-75.46875-165.617188-146.003906 1.316406-1.628906 2.71875-3.207031 4.234375-4.722656l169.707031-169.703125c17.871094-17.875 44.207032-22.105469 66.097657-12.707031 13.179687 5.660156 28.324219 4.226562 39.902343-4.242188l108.691407-79.484375 40.910156 40.910156zm0 0" fill="#e43950"/><path d="m481.082031 115.0625-21.214843 21.214844c-3.902344 3.90625-10.234376 3.90625-14.140626 0l-70.003906-70.003906c-3.90625-3.90625-3.90625-10.238282 0-14.140626l21.214844-21.214843c3.902344-3.90625 10.234375-3.90625 14.140625 0l70.003906 70.003906c3.90625 3.90625 3.90625 10.234375 0 14.140625zm0 0" fill="#b4d2d7"/><path d="m481.082031 115.0625-21.214843 21.214844c-3.902344 3.902344-10.234376 3.902344-14.140626 0l-48.789062-48.792969c-3.90625-3.90625-3.90625-10.238281 0-14.140625l21.210938-21.214844c3.90625-3.902344 10.238281-3.902344 14.144531 0l48.789062 48.792969c3.90625 3.90625 3.90625 10.234375 0 14.140625zm-211.777343 127.632812c-19.550782-19.546874-40.027344-36.449218-60.460938-50.375-4.417969-3.011718-10.417969-2.0625-13.648438 2.199219l-109.652343 144.789063c-2.734375 3.613281-2.710938 8.617187.078125 12.1875 10.511718 13.449218 22.273437 26.773437 35.191406 39.691406s26.242188 24.679688 39.691406 35.191406c3.570313 2.789063 8.574219 2.8125 12.1875.078125l144.789063-109.652343c4.261719-3.230469 5.210937-9.230469 2.199219-13.648438-13.925782-20.433594-30.828126-40.910156-50.375-60.460938zm0 0" fill="#e1ebf0"/><path d="m206.902344 368.734375-11.3125 11.316406c-.78125.78125-2.046875.78125-2.828125 0l-60.8125-60.8125c-.777344-.78125-.777344-2.046875 0-2.828125l11.316406-11.3125c.78125-.78125 2.046875-.78125 2.828125 0l60.808594 60.808594c.78125.78125.78125 2.046875 0 2.828125zm-68.589844-28.992187c-.78125-.777344-2.046875-.777344-2.828125 0l-11.3125 11.316406c-.78125.78125-.78125 2.046875 0 2.828125l33.941406 33.941406c.78125.78125 2.046875.78125 2.828125 0l11.3125-11.316406c.78125-.78125.78125-2.046875 0-2.828125zm0 0" fill="#b4d2d7"/><path d="m250.035156 324.1875c-15.621094 15.621094-42.527344 14.039062-60.101562-3.535156-17.574219-17.574219-19.15625-44.484375-3.535156-60.105469 15.621093-15.621094 42.527343-14.035156 60.101562 3.539063 17.574219 17.570312 19.15625 44.480468 3.535156 60.101562zm0 0" fill="#ea5569"/><path d="m252.152344 261.164062 10.164062 3.160157c1.582032.492187 1.914063 2.585937.5625 3.542969l-8.691406 6.144531c-.539062.378906-.851562 1-.84375 1.660156l.132812 10.640625c.023438 1.65625-1.867187 2.621094-3.195312 1.628906l-8.527344-6.367187c-.53125-.394531-1.21875-.503907-1.839844-.292969l-10.078124 3.417969c-1.570313.535156-3.070313-.964844-2.539063-2.535157l3.417969-10.078124c.210937-.625.105468-1.3125-.289063-1.839844l-6.367187-8.527344c-.992188-1.332031-.027344-3.21875 1.628906-3.199219l10.640625.136719c.660156.007812 1.28125-.308594 1.660156-.84375l6.144531-8.691406c.957032-1.351563 3.050782-1.019532 3.542969.5625l3.160157 10.164062c.195312.628906.6875 1.121094 1.316406 1.316406zm0 0" fill="#04d481"/></svg>