<svg viewBox="0 0 512 512" xmlns="http://www.w3.org/2000/svg"><path d="m512 256c0 141.386719-114.613281 256-256 256s-256-114.613281-256-256 114.613281-256 256-256 256 114.613281 256 256zm0 0" fill="#fded32"/><path d="m510.449219 220.558594-25.261719 24.0625-.019531-.019532-35.574219 35.574219-23.554688 31.339844c-7.476562 9.949219-15.117187 19.765625-22.902343 29.457031-50.121094 62.40625-106.546875 119.417969-168.351563 170.144532-124.394531-10.203126-223.589844-109.339844-233.886718-233.710938 50.726562-61.8125 107.738281-118.25 170.144531-168.378906 9.71875-7.808594 19.5625-15.472656 29.539062-22.96875l31.589844-23.742188 35.355469-35.351562 23.894531-25.390625c1.933594-2.054688 5.183594-2.101563 7.175781-.109375l10.972656 10.972656c3.523438 3.523438 5.15625 8.515625 4.390626 13.441406l-2.164063 13.949219c-.207031 1.335937.945313 2.488281 2.28125 2.28125l13.949219-2.164063c4.925781-.761718 9.917968.867188 13.441406 4.390626 3.523438 3.523437 5.152344 8.515624 4.390625 13.4375l-2.164063 13.949218c-.210937 1.339844.945313 2.492188 2.28125 2.285156l13.949219-2.164062c4.925781-.765625 9.917969.867188 13.4375 4.386719 3.523438 3.523437 5.15625 8.515625 4.390625 13.441406l-2.164062 13.949219c-.207032 1.335937.945312 2.488281 2.285156 2.28125l13.949219-2.164063c4.921875-.761719 9.914062.867188 13.4375 4.390625 3.523437 3.523438 5.152343 8.515625 4.390625 13.4375l-2.164063 13.949219c-.207031 1.339844.945313 2.492187 2.28125 2.285156l13.949219-2.164062c4.925781-.765625 9.917969.867187 13.441406 4.390625 3.523438 3.523437 5.152344 8.515625 4.390625 13.4375l-2.164062 13.949218c-.210938 1.339844.941406 2.492188 2.28125 2.28125l13.949219-2.164062c4.921874-.761719 9.914062.867188 13.4375 4.390625 3.523437 3.523437 5.15625 8.515625 4.390624 13.441406l-2.164062 13.949219c-.207031 1.335938.945312 2.488281 2.285156 2.28125l13.949219-2.164062c4.921875-.765626 9.914063.867187 13.4375 4.390624l9.578125 9.578126c1.992188 1.988281 1.953125 5.21875-.082031 7.160156zm0 0" fill="#0db2cc"/><path d="m457.589844 231.164062c-3.90625 3.90625-10.238282 3.90625-14.144532 0l-157.652343-157.652343c-3.90625-3.90625-10.238281-3.90625-14.140625 0-3.90625 3.90625-3.90625 10.238281 0 14.140625l157.410156 157.414062c3.765625 3.765625 4.214844 9.898438.699219 13.898438-3.851563 4.382812-10.539063 4.546875-14.597657.484375l-159.589843-159.589844c-3.523438-3.519531-9.097657-3.914063-13.082031-.921875l-16.574219 12.457031c-16.34375 12.28125-32.332031 24.992188-47.976563 38.097657-62.210937 52.113281-118.785156 110.621093-168.78125 174.554687-4.136718-15.039063-6.9375-30.628906-8.261718-46.640625 50.726562-61.8125 107.738281-118.25 170.144531-168.378906 9.71875-7.808594 19.5625-15.472656 29.539062-22.96875l31.589844-23.742188 35.355469-35.355468 23.894531-25.386719c1.933594-2.054688 5.183594-2.101563 7.179687-.109375l10.96875 10.972656c3.523438 3.523438 5.15625 8.515625 4.390626 13.4375l-.742188 4.796875-13.703125 14.5625c-3.707031 3.9375-3.613281 10.101563.210937 13.925781l157.863282 157.863282c3.90625 3.90625 3.90625 10.238281 0 14.140624zm0 0" fill="#0198b0"/><path d="m301.484375 320.011719-10.238281 5.910156 3.242187.867187c5.335938 1.429688 8.5 6.914063 7.074219 12.246094-1.429688 5.335938-6.914062 8.5-12.25 7.074219l-4.070312-1.09375 5.910156 10.238281c2.761718 4.78125 1.121094 10.898438-3.660156 13.660156-4.78125 2.761719-10.898438 1.121094-13.660157-3.660156l-15.910156-27.558594-43.640625-11.691406 11.914062 44.46875 27.558594 15.910156c4.78125 2.761719 6.421875 8.875 3.660156 13.660157-2.761718 4.78125-8.878906 6.421875-13.660156 3.660156l-10.234375-5.910156.867188 3.242187c1.429687 5.335938-1.734375 10.816406-7.070313 12.246094-5.335937 1.429688-10.820312-1.734375-12.246094-7.070312l-1.09375-4.070313-5.910156 10.234375c-2.757812 4.785156-8.875 6.421875-13.660156 3.660156-4.78125-2.761718-6.421875-8.875-3.660156-13.660156l15.910156-27.554688-11.691406-43.640624-32.554688 32.550781v31.820312c0 5.523438-4.476562 10-10 10-5.519531 0-10-4.476562-10-10v-11.820312l-2.371094 2.375c-3.90625 3.90625-10.238281 3.90625-14.144531 0-3.902343-3.90625-3.902343-10.238281 0-14.140625l2.984375-2.980469h-11.820312c-5.523438 0-10-4.476563-10-10s4.476562-10 10-10h31.820312l31.945313-31.949219-44.46875-11.914062-27.558594 15.910156c-4.78125 2.761719-10.898437 1.121094-13.660156-3.660156-2.757813-4.78125-1.121094-10.898438 3.660156-13.660156l10.238281-5.910157-3.246094-.867187c-5.332031-1.429688-8.5-6.914063-7.070312-12.25 1.429688-5.332032 6.914062-8.5 12.25-7.070313l4.070312 1.089844-5.910156-10.234375c-2.761718-4.78125-1.121094-10.898438 3.660156-13.660156 4.78125-2.761719 10.898438-1.121094 13.660157 3.660156l15.910156 27.558594 43.640625 11.691406-11.914062-44.46875-27.558594-15.910156c-4.785156-2.761719-6.421875-8.875-3.660156-13.660156 2.761718-4.78125 8.875-6.421876 13.660156-3.660157l10.234375 5.910157-.867188-3.242188c-1.429687-5.335938 1.734375-10.820312 7.070313-12.25 5.335937-1.425781 10.816406 1.738281 12.246094 7.074219l1.09375 4.070312 5.910156-10.234375c2.757812-4.785156 8.875-6.421875 13.65625-3.660156 4.785156 2.761719 6.425781 8.875 3.660156 13.660156l-15.910156 27.554688 11.695312 43.640625 32.550782-32.554688v-31.816406c0-5.523437 4.480468-10 10-10 5.523437 0 10 4.476563 10 10v11.816406l2.375-2.375c3.90625-3.902343 10.238281-3.902343 14.144531 0 3.902343 3.90625 3.902343 10.238281 0 14.144531l-2.984375 2.980469h11.820312c5.523438 0 10 4.476563 10 10 0 5.523438-4.476562 10-10 10h-31.820312l-31.945313 31.945313 44.46875 11.917968 27.558594-15.910156c4.78125-2.761718 10.898437-1.125 13.660156 3.660156 2.757813 4.78125 1.121094 10.898438-3.660156 13.660157zm0 0" fill="#d3f1f5"/></svg>