<svg viewBox="0 0 512 512" xmlns="http://www.w3.org/2000/svg"><path d="m512 256c0 141.386719-114.613281 256-256 256s-256-114.613281-256-256 114.613281-256 256-256 256 114.613281 256 256zm0 0" fill="#84deea"/><path d="m496.941406 180.875c0 55.492188-36.953125 78.945312-82.535156 78.945312-14.070312 0-27.308594-2.25-38.898438-6.976562 4.25 14.160156 6.601563 28.859375 6.601563 42.859375 0 55.492187-36.949219 78.945313-82.53125 78.945313-14.066406 0-27.308594-2.242188-38.898437-6.960938 4.25 14.152344 6.601562 28.847656 6.601562 42.84375 0 55.492188-36.949219 78.945312-82.53125 78.945312-39.566406 0-72.617188-17.691406-80.652344-58.652343-4.570312.53125-9.261718.808593-14.058594.808593-7.691406 0-15.128906-.6875-22.195312-2.066406-26.632812-28.855468-46.714844-63.847656-57.875-102.625 8.957031-48.394531 41.40625-96.257812 80.074219-96.257812 11.496093 0 22.441406 4.242187 32.382812 11.460937-.046875-1.410156-.089843-2.828125-.089843-4.285156 0-55.492187 36.953124-122.003906 82.535156-122.003906 11.496094 0 22.441406 4.234375 32.382812 11.453125-.050781-1.410156-.089844-2.824219-.089844-4.277344 0-55.492188 36.953126-122.003906 82.535157-122.003906 29.9375 0 56.152343 28.695312 70.621093 64.113281 7.621094-4.011719 15.707032-6.269531 24.085938-6.269531 45.582031 0 82.535156 66.515625 82.535156 122.003906zm0 0" fill="#fdcb6b"/><path d="m496.941406 180.875c0 24.125-6.988281 42.1875-18.625 54.90625-6.71875 1.636719-13.691406 2.507812-20.847656 2.507812-53.507812 0-96.886719-48.195312-96.886719-107.648437 0-19.125 4.492188-37.078125 12.363281-52.640625-21.777343 21.089844-37.222656 56.507812-40.441406 90.117188-.324218 3.410156-3.933594 5.5-7.039062 4.058593-34.996094-16.230469-59.59375-54.613281-59.59375-99.382812 0-19.125 4.496094-37.085938 12.371094-52.652344 12.183593-11.796875 26.34375-19.113281 41.457031-19.113281 29.9375 0 56.152343 28.695312 70.621093 64.113281-.027343.015625-.050781.03125-.078124.042969 7.644531-4.042969 15.757812-6.3125 24.164062-6.3125 45.582031 0 82.535156 66.515625 82.535156 122.003906zm-197.363281-7.175781c-8.40625 0-16.519531 2.269531-24.164063 6.3125.027344-.011719.050782-.027344.078126-.042969-14.46875-35.417969-40.683594-64.113281-70.621094-64.113281-15.113282 0-29.273438 7.316406-41.457032 19.113281-7.875 15.566406-12.367187 33.523438-12.367187 52.652344 0 44.769531 24.59375 83.152344 59.589844 99.382812 3.105469 1.441406 6.714843-.648437 7.039062-4.058594 3.21875-33.609374 18.664063-69.027343 40.441407-90.117187-7.871094 15.5625-12.363282 33.515625-12.363282 52.640625 0 59.453125 43.378906 107.648438 96.886719 107.648438 7.160156 0 14.132813-.871094 20.847656-2.507813 11.640625-12.71875 18.625-30.785156 18.625-54.90625 0-55.488281-36.953125-122.003906-82.535156-122.003906zm-114.828125 114.828125c-8.40625 0-16.519531 2.273437-24.164062 6.3125.023437-.011719.050781-.027344.074218-.042969-14.464844-35.417969-40.679687-64.113281-70.621094-64.113281-15.109374 0-29.273437 7.316406-41.457031 19.113281-7.871093 15.566406-12.367187 33.527344-12.367187 52.652344 0 44.769531 24.597656 83.152343 59.589844 99.382812 3.105468 1.441407 6.714843-.648437 7.042968-4.054687 3.21875-33.613282 18.664063-69.03125 40.4375-90.121094-7.867187 15.5625-12.359375 33.515625-12.359375 52.640625 0 59.453125 43.375 107.648437 96.886719 107.648437 7.15625 0 14.128906-.871093 20.84375-2.507812 11.640625-12.71875 18.625-30.785156 18.625-54.90625.003906-55.488281-36.949219-122.003906-82.53125-122.003906zm0 0" fill="#fddfa6"/><path d="m512 256c0 141.386719-114.613281 256-256 256-106.289062 0-197.441406-64.777344-236.148438-157.007812l87.539063 75.441406c16.09375 13.871094 42.1875 13.871094 58.285156 0l323.96875-279.195313c14.359375 31.980469 22.355469 67.4375 22.355469 104.761719zm0 0" fill="#925b44"/><path d="m19.851562 354.992188 87.539063 75.441406c16.09375 13.871094 42.1875 13.871094 58.285156 0l327.316407-282.460938c4.167968 9.28125 6.820312 23.214844 7.492187 31.960938l-330.546875 284.859375c-13.425781 11.570312-33.1875 14.332031-49.652344 8.308593-44.539062-27.902343-79.878906-69.136718-100.433594-118.109374zm0 0" fill="#bb7c63"/><path d="m500 422.003906c0 55.492188-36.949219 78.945313-82.53125 78.945313s-82.535156-23.453125-82.535156-78.945313c0-55.488281 36.953125-122.003906 82.535156-122.003906 45.578125 0 82.53125 66.515625 82.53125 122.003906zm0 0" fill="#fdcb6b"/><path d="m500 422.003906c0 24.125-6.984375 42.1875-18.625 54.90625-6.714844 1.636719-13.6875 2.507813-20.847656 2.507813-53.507813 0-96.886719-48.195313-96.886719-107.648438 0-19.128906 4.496094-37.085937 12.371094-52.65625 12.179687-11.796875 26.34375-19.113281 41.457031-19.113281 45.582031 0 82.53125 66.515625 82.53125 122.003906zm0 0" fill="#fddfa6"/></svg>