<svg viewBox="0 0 512 512" xmlns="http://www.w3.org/2000/svg"><path d="m512 256c0 141.386719-114.613281 256-256 256-27.832031 0-54.617188-4.457031-79.703125-12.671875-27.074219-72.691406-86.230469-129.753906-160.261719-153.988281-10.359375-27.816406-16.035156-57.914063-16.035156-89.339844 0-141.386719 114.613281-256 256-256s256 114.613281 256 256zm0 0" fill="#b1529e"/><path d="m97.742188 262.796875c-4.054688-10.972656-1.320313-23.304687 6.949218-31.578125l160.664063-160.664062c7.765625-7.765626 18.25-12.210938 29.230469-12.398438l18.171874-.308594c-2.640624-5.644531-1.589843-12.589844 3.1875-17.175781 5.941407-5.703125 15.472657-5.304687 21.292969.519531l138.953125 138.949219c5.820313 5.824219 6.222656 15.351563.519532 21.292969-4.585938 4.78125-11.53125 5.832031-17.175782 3.191406l-.308594 18.171875c-.1875 10.980469-4.632812 21.460937-12.398437 29.226563l-158.050781 158.054687c-8.007813 8.007813-19.839844 10.8125-30.601563 7.289063-74.207031-24.3125-133.46875-81.609376-160.433593-154.570313zm0 0" fill="#08e092"/><path d="m337.242188 41.191406 29.621093 29.621094c-5.859375-5.859375-15.355469-5.859375-21.214843 0-4.585938 4.589844-5.566407 11.402344-2.964844 16.960938l-18.171875.304687c-10.984375.1875-21.460938 4.632813-29.230469 12.402344l-186.921875 186.921875c-3.972656-8.035156-7.542969-16.300782-10.675781-24.78125-4.027344-10.910156-1.214844-23.175782 7.007812-31.398438l160.664063-160.667968c7.765625-7.765626 18.25-12.210938 29.230469-12.398438l18.171874-.308594c-2.640624-5.644531-1.589843-12.589844 3.1875-17.175781 5.941407-5.703125 15.472657-5.304687 21.296876.519531zm0 0" fill="#04d481"/><path d="m363.582031 258.453125c-9.761719 9.761719-25.59375 9.761719-35.355469 0-9.761718-9.765625-9.761718-25.59375 0-35.355469 9.761719-9.761718 25.59375-9.761718 35.355469 0 9.761719 9.761719 9.761719 25.589844 0 35.355469zm-137.886719-45.964844c-7.808593 7.8125-7.808593 20.476563 0 28.285157 7.8125 7.8125 20.476563 7.8125 28.285157 0 7.808593-7.808594 7.808593-20.472657 0-28.285157-7.808594-7.808593-20.472657-7.808593-28.285157 0zm0 0" fill="#00f1a5"/><path d="m278.113281 286.097656c34.9375 2.339844 67.84375 17.273438 92.605469 42.035156l-163.886719 163.886719c-8.007812 8.007813-19.839843 10.816407-30.601562 7.289063-74.203125-24.3125-133.464844-81.609375-160.429688-154.570313-4.054687-10.972656-1.324219-23.304687 6.949219-31.574219l85.875-85.878906 32.902344 32.902344c11.589844 11.59375 26.992187 18.582031 43.351562 19.675781zm0 0" fill="#fded32"/><path d="m15.742188 344.5625c-4.03125-10.910156-1.21875-23.171875 7.003906-31.398438l85.878906-85.878906 29.921875 29.925782-112.132813 112.132812c-3.972656-8.03125-7.542968-16.300781-10.671874-24.78125zm0 0" fill="#e8ce00"/><path d="m171.015625 415.660156c9.765625 9.765625 9.765625 25.59375 0 35.355469-9.761719 9.765625-25.589844 9.765625-35.355469 0-9.761718-9.761719-9.761718-25.589844 0-35.355469 9.765625-9.761718 25.59375-9.761718 35.355469 0zm-30.171875-90.03125c-7.8125-7.8125-20.476562-7.8125-28.285156 0-7.808594 7.808594-7.808594 20.472656 0 28.28125 7.808594 7.8125 20.472656 7.8125 28.285156 0 7.808594-7.808594 7.808594-20.472656 0-28.28125zm134.347656-7.074218c-15.621094-15.621094-40.945312-15.621094-56.566406 0-15.621094 15.621093-15.621094 40.949218 0 56.570312s40.945312 15.621094 56.566406 0 15.621094-40.949219 0-56.570312zm0 0" fill="#fdf385"/><path d="m384.574219 30.359375c-12.050781 1.414063-20.671875 12.332031-19.257813 24.382813l8.710938 74.195312 43.644531-5.125-8.710937-74.195312c-1.414063-12.050782-12.332032-20.671876-24.386719-19.257813zm10.25 87.285156c-7.230469.851563-13.78125-4.324219-14.628907-11.554687-.851562-7.230469 4.324219-13.78125 11.554688-14.628906 7.230469-.851563 13.78125 4.324218 14.628906 11.554687.851563 7.230469-4.324218 13.78125-11.554687 14.628906zm-6.148438-52.371093c-7.230469.847656-13.78125-4.324219-14.628906-11.554688-.851563-7.234375 4.324219-13.78125 11.554687-14.632812 7.230469-.847657 13.78125 4.324218 14.628907 11.558593.847656 7.230469-4.324219 13.78125-11.554688 14.628907zm0 0" fill="#95bcc9"/><path d="m450.453125 247.878906c-31.058594-18.742187-66.152344-46.492187-100.304687-80.644531-34.15625-34.152344-61.902344-69.246094-80.644532-100.304687 7.167969-5.507813 15.949219-8.617188 25.082032-8.773438l18.171874-.308594c-2.597656-5.554687-1.621093-12.371094 2.964844-16.957031 5.859375-5.859375 15.355469-5.859375 21.214844 0l139.554688 139.554687c5.859374 5.859376 5.859374 15.355469 0 21.210938-4.585938 4.589844-11.402344 5.566406-16.957032 2.96875l-.308594 18.171875c-.15625 9.132813-3.265624 17.914063-8.773437 25.082031zm0 0" fill="#e1ebf0"/><path d="m438.535156 197.640625c-3.90625 3.90625-10.238281 3.90625-14.140625 0l-102.050781-102.050781c-4.472656-4.46875-11.339844-5.542969-16.925781-2.589844-3.703125 1.953125-7.125 4.464844-10.136719 7.480469l-1.796875 1.796875c-9.101563-12.15625-17.148437-24.023438-23.980469-35.347656 7.167969-5.507813 15.949219-8.617188 25.082032-8.773438l18.171874-.308594c-2.640624-5.644531-1.589843-12.589844 3.191407-17.175781 5.941406-5.703125 15.46875-5.300781 21.292969.519531l17.117187 17.121094 12.5 12.5c-5.855469-5.859375-15.351563-5.859375-21.210937 0-.253907.253906-.492188.511719-.722657.773438-4.851562 5.582031-4.21875 14.085937 1.011719 19.3125l96.738281 96.742187c3.691407 3.691406 1.078125 10-4.140625 10zm0 0" fill="#b4d2d7"/></svg>