<svg viewBox="0 0 512 512" xmlns="http://www.w3.org/2000/svg"><path d="m512 256c0 141.386719-114.613281 256-256 256-32.066406 0-62.75-5.914062-91.039062-16.679688-25.9375-68.144531-80.136719-122.34375-148.277344-148.28125-10.769532-28.289062-16.683594-58.972656-16.683594-91.039062 0-141.386719 114.613281-256 256-256s256 114.613281 256 256zm0 0" fill="#08b772"/><path d="m481.246094 179.246094s-111.757813 111.757812-111.757813 111.757812l-204.375 204.375c-68.265625-25.9375-122.554687-80.226562-148.492187-148.492187l316.132812-316.132813c41.003906-41.003906 107.488282-41.003906 148.492188 0s41.003906 107.488282 0 148.492188zm0 0" fill="#fcb30b"/><path d="m481.246094 179.246094s-111.757813 111.757812-111.757813 111.757812l-204.375 204.375c-27.9375-10.617187-53.53125-25.984375-75.804687-45.113281-.191406-.222656-.378906-.445313-.570313-.667969-31.160156-36.535156-28.675781-90.996094 5.277344-124.949218l266.316406-266.316407c36.292969-36.292969 92.539063-40.457031 133.417969-12.507812 27.953125 40.882812 23.789062 97.128906-12.503906 133.421875zm-1.246094 30.753906c-5.523438 0-10 4.476562-10 10s4.476562 10 10 10 10-4.476562 10-10-4.476562-10-10-10zm20-10c5.523438 0 10-4.476562 10-10s-4.476562-10-10-10-10 4.476562-10 10 4.476562 10 10 10zm2 60c-5.523438 0-10 4.476562-10 10s4.476562 10 10 10 10-4.476562 10-10-4.476562-10-10-10zm0 0" fill="#fdbf43"/><path d="m256.609375 263.53125c16.988281 29.421875 25.785156 58.71875 24.976563 78.421875-.164063 4.015625-4.511719 6.523437-8.070313 4.660156-17.46875-9.152343-38.441406-31.421875-55.429687-60.839843-16.984376-29.421876-25.78125-58.722657-24.972657-78.421876.164063-4.015624 4.507813-6.527343 8.070313-4.660156 17.464844 9.152344 38.441406 31.417969 55.425781 60.839844zm-137.921875 21.65625c-3.558594-1.867188-7.90625.640625-8.070312 4.65625-.808594 19.703125 7.988281 49.003906 24.972656 78.421875 16.988281 29.421875 37.960937 51.691406 55.429687 60.839844 3.558594 1.867187 7.90625-.640625 8.070313-4.65625.808594-19.703125-7.988282-49.003907-24.976563-78.421875-16.984375-29.421875-37.960937-51.6875-55.425781-60.839844zm164.992188-164.992188c-3.5625-1.867187-7.90625.644532-8.070313 4.660157-.808594 19.703125 7.988281 49 24.972656 78.421875 16.988281 29.417968 37.960938 51.6875 55.429688 60.839844 3.558593 1.863281 7.902343-.644532 8.070312-4.660157.808594-19.703125-7.988281-49.003906-24.976562-78.421875-16.984375-29.421875-37.960938-51.6875-55.425781-60.839844zm137.921874-21.65625c-16.984374-29.421874-37.960937-51.6875-55.425781-60.839843-3.5625-1.863281-7.90625.644531-8.070312 4.660156-.808594 19.703125 7.988281 49 24.972656 78.421875 16.988281 29.417969 37.960937 51.6875 55.429687 60.839844 3.558594 1.863281 7.902344-.644532 8.070313-4.660156.808594-19.703126-7.988281-49-24.976563-78.421876zm0 0" fill="#fda800"/><path d="m446.578125 176.960938c-.167969 4.015624-4.511719 6.523437-8.070313 4.660156-5.304687-2.78125-10.929687-6.773438-16.671874-11.804688 2.164062-20.40625-4.414063-50.996094-19.152344-82.40625-7.753906-16.53125-16.785156-31.175781-26.085938-43.007812 14.972656 11.289062 31.289063 30.378906 45.003906 54.136718 16.988282 29.421876 25.785157 58.71875 24.976563 78.421876zm-318.21875 114.371093c9.503906 11.953125 18.746094 26.863281 26.664063 43.738281 14.664062 31.257813 21.253906 61.703126 19.183593 82.113282 5.789063 5.085937 11.464844 9.125 16.8125 11.925781 3.558594 1.863281 7.90625-.644531 8.070313-4.660156.808594-19.703125-7.988282-49-24.976563-78.421875-13.945312-24.15625-30.578125-43.480469-45.753906-54.695313zm80.46875-83.949219c10.050781 12.261719 19.871094 27.871094 28.21875 45.664063 14.472656 30.84375 21.078125 60.898437 19.261719 81.296875 5.925781 5.253906 11.738281 9.402344 17.207031 12.269531 3.558594 1.863281 7.90625-.644531 8.070313-4.660156.808593-19.703125-7.988282-49-24.976563-78.421875-14.570313-25.234375-32.070313-45.199219-47.78125-56.148438zm74.964844-87.125c11.976562 13.019532 23.957031 31.0625 33.863281 52.179688 13.691406 29.175781 20.34375 57.648438 19.484375 77.910156 6.5 5.964844 12.890625 10.636719 18.871094 13.769532 3.558593 1.863281 7.902343-.644532 8.070312-4.660157.808594-19.703125-7.988281-49.003906-24.976562-78.421875-16.949219-29.355468-37.867188-51.589844-55.3125-60.777344zm0 0" fill="#fc9302"/></svg>