<svg viewBox="0 0 512 512" xmlns="http://www.w3.org/2000/svg"><path d="m512 256c0 141.386719-114.613281 256-256 256-26.929688 0-52.882812-4.167969-77.261719-11.878906-25.054687-79.242188-87.617187-141.804688-166.859375-166.859375-7.710937-24.378907-11.878906-50.332031-11.878906-77.261719 0-141.386719 114.613281-256 256-256s256 114.613281 256 256zm0 0" fill="#04d481"/><path d="m450.957031 140.28125c-3.453125 3.453125-5.011719 8.433594-4.304687 13.617188 4.300781 31.507812-.042969 61.445312-12.59375 86.503906-3.847656 7.679687-14.027344 9.417968-20.101563 3.34375-33.027343-33.027344-74.410156-56.457032-119.722656-67.785156-16.921875-4.230469-33.296875-10.152344-48.890625-17.628907-19.9375-9.5625-24.992188-35.667969-10.246094-52.148437 2.367188-2.648438 4.277344-4.710938 5.628906-6.066406 29-29 71.53125-41.027344 117.375-34.769532 5.179688.707032 10.164063-.851562 13.617188-4.304687l21.308594-21.308594c31.886718 20.246094 58.992187 47.351563 79.238281 79.238281zm0 0" fill="#84deea"/><path d="m450.957031 140.28125c-3.453125 3.453125-5.011719 8.433594-4.304687 13.617188 4.300781 31.507812-.042969 61.445312-12.59375 86.503906-3.847656 7.679687-14.027344 9.417968-20.101563 3.34375-33.027343-33.027344-74.410156-56.457032-119.722656-67.785156-18.964844-4.742188-37.238281-11.609376-54.503906-20.410157 12.273437-14.472656 22.082031-25.800781 26.355469-30.074219 29-29 71.527343-41.03125 117.375-34.773437 5.179687.707031 10.160156-.851563 13.617187-4.304687l25.109375-25.109376c19.421875 16.59375 36.332031 36.03125 50.078125 57.683594zm0 0" fill="#d3f1f5"/><path d="m456.375 132.855469-77.230469-77.230469c-3.902343-3.90625-3.902343-10.238281 0-14.144531l17.554688-17.550781c3.90625-3.90625 10.238281-3.90625 14.140625 0l77.230468 77.230468c3.90625 3.902344 3.90625 10.234375 0 14.140625l-17.550781 17.554688c-3.90625 3.902343-10.238281 3.902343-14.144531 0zm0 0" fill="#c2186c"/><path d="m456.375 132.855469-53.730469-53.734375c-3.90625-3.902344-3.90625-10.234375 0-14.140625l17.554688-17.550781c3.902343-3.90625 10.234375-3.90625 14.140625 0l53.730468 53.730468c3.90625 3.902344 3.90625 10.234375 0 14.140625l-17.550781 17.554688c-3.90625 3.902343-10.238281 3.902343-14.144531 0zm0 0" fill="#e31e7f"/><path d="m439.390625 228.160156c-6.09375 16.261719-15.289063 30.890625-27.507813 43.113282-15.363281 15.363281-121.925781 102.226562-138.019531 118.320312-16.089843 16.089844-56.847656 60.277344-67.875 77.566406l-.128906.199219c-6.871094 10.769531-14.90625 20.75-23.953125 29.769531l-3.042969 3.03125c-79.34375-25.039062-141.984375-87.679687-167.027343-167.023437l2.851562-2.859375c9.132812-9.164063 19.246094-17.300782 30.152344-24.265625 17.289062-11.027344 61.476562-51.785157 77.566406-67.875 15.328125-15.328125 94.867188-112.738281 115.664062-135.230469l7.34375 7.347656c24.1875 24.183594 54.492188 41.34375 87.675782 49.640625s63.488281 25.453125 87.675781 49.640625zm0 0" fill="#fdbfdc"/><path d="m287.808594 336.15625c-31.175782 34.644531-84.578125 35.699219-117.109375 3.167969-20.972657-20.972657-27.964844-50.617188-21.019531-77.390625-17.5 17.300781-60.414063 56.738281-77.507813 67.644531-11.113281 7.097656-21.414063 15.386719-30.722656 24.726563l-15.019531 15.070312c-5.742188-11.609375-10.640626-23.714844-14.59375-36.234375l2.851562-2.859375c9.132812-9.167969 19.246094-17.304688 30.152344-24.269531 17.289062-11.027344 61.476562-51.78125 77.566406-67.875 15.328125-15.328125 94.867188-112.734375 115.664062-135.230469l7.34375 7.347656c6.121094 6.121094 12.636719 11.789063 19.488282 16.980469-12.328125 13.882813-35.226563 41.246094-57.46875 67.753906-3.007813 3.585938.136718 9.03125 4.730468 8.128907 26.046876-5.109376 54.121094 2.699218 73.945313 23.445312 28.976563 30.316406 29.75 78.421875 1.699219 109.59375zm0 0" fill="#fda2cd"/><path d="m267.207031 344.371094c-4.296875 20.207031-24.835937 32.792968-45.046875 26.988281-17.253906-4.953125-28.265625-22.289063-25.453125-40.015625 1.636719-10.316406 7.449219-18.808594 15.367188-24.152344 4.671875-3.148437 10.730469-3.078125 15.648437-.332031 3.050782 1.699219 6.40625 2.980469 10.003906 3.746094 3.59375.765625 7.175782.960937 10.65625.648437 5.640626-.507812 11.214844 1.925782 14.203126 6.734375 4.722656 7.589844 6.628906 16.949219 4.621093 26.382813zm-64.378906-46.425782c3.152344-4.667968 3.078125-10.726562.335937-15.644531-1.703124-3.054687-2.984374-6.40625-3.75-10.003906-.761718-3.59375-.957031-7.179687-.644531-10.65625.503907-5.640625-1.925781-11.214844-6.734375-14.203125-7.59375-4.722656-16.949218-6.628906-26.382812-4.621094-20.210938 4.296875-32.792969 24.835938-26.988282 45.046875 4.953126 17.25 22.289063 28.265625 40.015626 25.453125 10.3125-1.636718 18.808593-7.449218 24.148437-15.371094zm0 0" fill="#c2186c"/><path d="m278.21875 244.480469c-19.085938 19.085937-30.449219 43.273437-30.402344 64.707031.011719 4.949219-3.992187 8.972656-8.945312 8.984375-2.480469.003906-4.730469-1-6.355469-2.625-1.621094-1.621094-2.621094-3.851563-2.625-6.320313-.027344-12.113281 2.832031-24.835937 8.136719-37.230468-12.394532 5.304687-25.121094 8.164062-37.230469 8.136718-2.46875-.003906-4.699219-1.007812-6.320313-2.625-1.625-1.625-2.628906-3.875-2.625-6.359374.011719-4.949219 4.035157-8.953126 8.984376-8.941407 21.433593.046875 45.621093-11.316406 64.707031-30.402343 3.5-3.5 9.175781-3.5 12.675781 0s3.5 9.175781 0 12.675781zm0 0" fill="#037e4b"/></svg>