<svg viewBox="0 0 512 512" xmlns="http://www.w3.org/2000/svg"><path d="m512 256c0 141.386719-114.613281 256-256 256-10.632812 0-21.109375-.660156-31.402344-1.917969-40.039062-43.53125-95.117187-73.183593-157.074218-80.855469-41.917969-45.589843-67.523438-106.414062-67.523438-173.226562 0-141.386719 114.613281-256 256-256s256 114.613281 256 256zm0 0" fill="#e31e7f"/><path d="m413.046875 98.972656c-.117187.136719-.234375.273438-.363281.40625l-49.425782 49.425782c-3.207031 3.203124-8.402343 3.203124-11.605468 0-3.207032-3.207032-3.207032-8.402344 0-11.605469l48.683594-48.683594c17.054687-16.617187 17.410156-44.007813.796874-61.0625-12.664062-13-33.539062-13.269531-46.535156-.609375-9.75 9.5-9.953125 25.15625-.457031 34.90625 6.96875 7.152344 18.453125 7.300781 25.605469.335938 5.074218-4.945313 5.179687-13.089844.238281-18.164063-3.160156-3.246094-3.09375-8.441406.152344-11.601563 3.246093-3.160156 8.4375-3.09375 11.601562.152344 11.253907 11.550782 11.011719 30.109375-.542969 41.363282-13.632812 13.28125-35.523437 12.996093-48.804687-.636719-15.8125-16.230469-15.46875-42.296875.757813-58.105469 19.476562-18.976562 50.761718-18.566406 69.734374.910156 22.503907 23.101563 22.429688 59.9375.164063 82.96875zm0 0" fill="#fdcb6b"/><path d="m401.445312 110.574219c-.121093.136719-.234374.277343-.367187.40625l-49.425781 49.425781c-.441406.445312-.929688.820312-1.441406 1.144531l-176.371094 176.371094-.164063-.164063c-.054687.285157-.113281.578126-.164062.859376-36.328125 40.679687-47.582031 95.828124-33.816407 145.496093-27.527343-14.0625-52.167968-32.960937-72.8125-55.578125-28.035156-56.042968-20.179687-125.453125 23.574219-173.996094l-.152343-.148437 134.003906-134.003906c36.519531-36.523438 95.738281-36.523438 132.257812 0 2.09375 2.09375 3.703125 4.480469 4.882813 7.015625l27.285156-27.285156c17.050781-16.613282 17.410156-44.007813.792969-61.0625-12.660156-12.996094-33.535156-13.269532-46.53125-.605469-9.75 9.496093-9.953125 25.15625-.457032 34.90625 6.96875 7.148437 18.453126 7.300781 25.605469.332031 5.074219-4.941406 5.179688-13.089844.238281-18.164062-3.164062-3.242188-3.097656-8.4375.148438-11.597657 3.246094-3.164062 8.441406-3.097656 11.601562.148438 11.257813 11.554687 11.011719 30.113281-.539062 41.367187-13.632812 13.28125-35.527344 12.992188-48.808594-.636718-15.808594-16.230469-15.46875-42.296876.761719-58.109376 19.476563-18.972656 50.757813-18.566406 69.734375.910157 22.503906 23.101562 22.429688 59.933593.164062 82.96875zm0 0" fill="#fddfa6"/><path d="m347.148438 164.609375-29.875 29.878906c-.832032-.574219-1.492188-1.398437-1.851563-2.402343-4.347656-12.160157-13.5625-22.546876-26.378906-28.011719-12.820313-5.464844-26.691407-4.921875-38.476563.359375-2.046875.917968-4.457031.359375-5.851562-1.394532-3.542969-4.460937-7.925782-8.324218-13.023438-11.351562l-39.964844 39.964844c1.164063.847656 2.730469 1.035156 4.085938.40625 11.90625-5.527344 26.023438-6.179688 39.054688-.625 13.027343 5.554687 22.332031 16.195312 26.585937 28.613281.609375 1.773437 2.371094 2.917969 4.238281 2.71875 6.871094-.734375 13.988282.015625 20.875 2.429687l-30.03125 30.03125c-1.582031-.382812-2.910156-1.542968-3.484375-3.140624-4.347656-12.164063-13.558593-22.546876-26.378906-28.011719-12.816406-5.464844-26.6875-4.925781-38.472656.359375-2.046875.917968-4.460938.359375-5.855469-1.398438-3.199219-4.023437-7.089844-7.558594-11.566406-10.4375l-36.257813 36.257813c1.164063.847656 2.730469 1.039062 4.085938.410156 11.910156-5.53125 26.027343-6.179687 39.054687-.625 13.03125 5.554687 22.335938 16.191406 26.589844 28.613281.609375 1.773438 2.371094 2.914063 4.234375 2.714844 6.875-.734375 13.992187.015625 20.878906 2.429688l-30.03125 30.03125c-1.582031-.378907-2.910156-1.539063-3.484375-3.140626-4.347656-12.164062-13.5625-22.546874-26.378906-28.011718s-26.6875-4.925782-38.476562.359375c-2.046876.917969-4.457032.359375-5.851563-1.398438-3.199219-4.023437-7.089844-7.554687-11.566406-10.433593l-7.636719 7.632812.152344.152344c-11.015625 12.128906-20.039063 25.363281-27.085938 39.246094 1.886719 1.03125 3.695313 2.183593 5.414063 3.445312 1.507812 1.113281 3.605469 1.019531 5.023437-.203125 9.949219-8.574219 23.347656-13.054687 37.402344-11.269531 14.050781 1.785156 25.90625 9.476562 33.394531 20.261718 1.066407 1.542969 3.074219 2.15625 4.816407 1.457032 6.074218-2.449219 12.722656-3.671875 19.601562-3.421875l-10.816406 10.816406-.164063-.164063c-.054687.289063-.113281.578126-.164062.863282-5.710938 6.394531-10.800781 13.144531-15.273438 20.175781-7.476562-8.710937-18.074219-14.792969-30.359375-16.355469-13.824218-1.753906-27.019531 2.554688-36.914062 10.855469-1.722656 1.441406-4.191406 1.5625-6.015625.257813-5.125-3.683594-11.046875-6.371094-17.511719-7.804688-3.410156 11.433594-5.578125 23.085938-6.507812 34.734375 4.480468 1.589844 8.628906 3.8125 12.347656 6.554687 1.507812 1.113282 3.605468 1.019532 5.023437-.203124 9.945313-8.574219 23.347657-13.054688 37.402344-11.269532 10.871094 1.378906 20.417969 6.308594 27.65625 13.460938-3.214844 8.851562-5.597656 17.9375-7.15625 27.136718-5.730469-3.601562-12.308594-6.054687-19.46875-6.964843-13.820313-1.753907-27.015625 2.554687-36.914063 10.855469-1.71875 1.441406-4.1875 1.5625-6.011718.253906-3.65625-2.625-7.71875-4.738282-12.089844-6.265625.203125 1.570312.429688 3.136719.679688 4.695312-22.527344-54.160156-13.179688-118.449219 28.058593-164.199219l-.152343-.148437 134.003906-134c28.875-28.878906 71.9375-34.917969 106.753906-18.128906-27.179688-2.078125-55.847656 7.433593-78.089844 28.238281.101563.132812.210938.257812.3125.390625 1.148438 1.480469 3.191406 1.964844 4.894532 1.171875 11.90625-5.527344 26.023437-6.179688 39.054687-.625 13.027344 5.554688 22.332031 16.195312 26.589844 28.613281.605469 1.773438 2.367187 2.917969 4.234375 2.71875 6.28125-.671875 12.765625-.101562 19.089844 1.839844zm-201.164063 337.945313c.03125.011718.058594.023437.085937.035156-.042968-.109375-.085937-.21875-.132812-.324219.015625.09375.03125.191406.046875.289063zm0 0" fill="#fdcb6b"/><path d="m351.9375 428.417969c-6.128906 9.535156-13.71875 18.925781-22.9375 28.144531-30 30-67.019531 47.957031-104.269531 53.535156-44.691407-5.445312-85.824219-22.40625-120.351563-47.824218-17.425781-47.960938 24.882813-114.984376 80.816406-135.339844 0-.007813.003907-.011719.003907-.019532-4.523438 19.28125-2.402344 35.519532 7.546875 45.46875 2.703125 2.707032 5.875 4.832032 9.449218 6.40625 32.394532 14.257813 69.035157-24.359374 53.53125-56.074218-4.5-9.203125-10.507812-17.742188-18.046874-25.28125-2.128907-2.132813-4.339844-4.136719-6.621094-6.023438-1.402344 6.953125-5.085938 13.972656-10.929688 19.820313-10.117187 10.117187-23.773437 13.789062-34.46875 10.3125-3.472656-10.695313.199219-24.347657 10.316406-34.464844 3.195313-3.195313 6.746094-5.746094 10.441407-7.632813-3.695313-1.886718-7.246094-4.4375-10.441407-7.632812-10.117187-10.117188-13.789062-23.773438-10.316406-34.464844 10.695313-3.476562 24.351563.195313 34.46875 10.3125 5.070313 5.070313 8.5 11.027344 10.242188 17.050782 41.792968-20.433594 90.761718-15.632813 122.257812 15.859374 1.34375 1.34375 2.636719 2.722657 3.882813 4.128907.011719-.019531.019531-.035157.03125-.054688.023437.058594.046875.117188.070312.175781 34.109375 38.582032 31.792969 99.609376-4.675781 143.597657zm0 0" fill="#fff5f5"/><path d="m351.9375 428.417969c-6.128906 9.535156-13.71875 18.925781-22.9375 28.144531-30 30-67.019531 47.957031-104.269531 53.535156-15.054688-1.835937-29.710938-4.972656-43.84375-9.304687 18.292969-.777344 36.804687-4.789063 54.617187-11.964844-10.828125-5.851563-19.417968-15.835937-23.199218-28.566406-4.035157-13.578125-1.777344-27.527344 5.074218-38.730469.976563-1.597656.730469-3.683594-.613281-4.992188-6.160156-6.007812-10.796875-13.765624-13.046875-22.8125-1.203125-4.84375-1.515625-9.824218-1.0625-14.746093 10.597656 4.496093 21.617188 3.378906 31.101562-1.269531.253907 1.21875.546876 2.433593.90625 3.648437 2.351563 7.917969 6.566407 14.773437 12.023438 20.234375 1.585938 1.585938 1.867188 4.046875.71875 5.972656-6.59375 11.109375-8.710938 24.828125-4.742188 38.183594 3.652344 12.296875 11.796876 22.019531 22.101563 27.941406 10.773437-6.914062 21.042969-15.125 30.558594-24.636718 8.628906-8.632813 15.738281-17.425782 21.476562-26.355469.410157-.496094.792969-1.003907 1.191407-1.5-2.421876-2.410157-4.570313-5.039063-6.394532-7.855469-1.023437-1.574219-3.019531-2.222656-4.777344-1.578125-12.328124 4.519531-26.453124 3.992187-38.972656-2.628906-12.523437-6.621094-20.90625-17.996094-24.113281-30.730469-.457031-1.816406-2.121094-3.101562-3.996094-3.058594-.578125.015625-1.160156-.011718-1.742187-.019531 8.351562-5.292969 15.101562-13.371094 18.65625-22.550781 4.085937 10.164062 11.636718 18.996094 22.078125 24.515625 12.320312 6.515625 26.1875 7.132812 38.371093 2.847656 2.117188-.746094 4.472657.011719 5.71875 1.878906 3.066407 4.601563 6.972657 8.703125 11.621094 12.089844 8.007813-18.367187 10.910156-37.972656 8.605469-56.539063-4.164063-.0625-8.234375-.699218-12.109375-1.882812-1.644531-.5-3.425781.222656-4.28125 1.710938-5.980469 10.441406-16.191406 18.402343-28.878906 21.144531-12.683594 2.742187-25.273438-.285157-35.035156-7.324219-1.390626-1.003906-3.3125-.925781-4.601563.210938-.464844.40625-.941406.800781-1.421875 1.1875 3.234375-8.445313 3.761719-17.8125.355469-26.792969 8.777343 4.5625 19.128906 6.226562 29.554687 3.972656 12.476563-2.699219 22.566406-10.445313 28.585938-20.640625 1.042968-1.769531 3.140625-2.628906 5.117187-2.050781 4.585938 1.335937 9.441407 1.914062 14.386719 1.667969-3.5-7.34375-7.992188-14.257813-13.539062-20.53125-.023438-.054688-.042969-.109376-.066407-.164063-.007812.019531-.019531.035156-.027343.050781-1.171876-1.316406-2.378907-2.605468-3.640626-3.863281-1.175781-1.179687-2.378906-2.316406-3.605468-3.414063-1.628906 10.503907-7.035156 20.453126-15.992188 27.613282-10.136718 8.105468-22.757812 11-34.628906 9.042968-1.695312-.277343-3.378906.648438-4.03125 2.238282-.710938 1.753906-1.550781 3.460937-2.496094 5.121094-.296875-.722657-.613281-1.441407-.960937-2.152344-4.472657-9.15625-10.445313-17.652344-17.925781-25.160156.917968-.617188 2.050781-.902344 3.207031-.730469 11.703125 1.769531 24.078125-1.160157 34.050781-9.132813 7.378906-5.902344 12.339844-13.695312 14.769531-22.132812-13.308593-5.730469-27.925781-8.234375-42.757812-7.578125 37.597656-12 78.179687-4.789063 105.554687 22.585937 1.34375 1.34375 2.636719 2.722656 3.886719 4.128906.011719-.015624.019531-.035156.03125-.054687.023437.058594.046875.117187.070313.175781 34.105468 38.585938 31.789062 99.613282-4.679688 143.601563zm-169.054688 46.945312c-8.304687-9.894531-12.613281-23.089843-10.855468-36.914062 1.753906-13.824219 9.230468-25.523438 19.742187-33.027344 1.824219-1.304687 2.558594-3.667969 1.75-5.757813-2.792969-7.199218-3.886719-15.171874-2.84375-23.367187.222657-1.742187.550781-3.441406.949219-5.109375-6.675781-7.457031-9.378906-18.058594-8.535156-30.625-13.148438 6.664062-23.0625 19.222656-25.71875 34.574219-1.589844 9.183593-.472656 18.152343 2.742187 26.132812.699219 1.742188.082031 3.75-1.457031 4.816407-10.789062 7.488281-18.476562 19.34375-20.261719 33.394531-1.785156 14.050781 2.695313 27.453125 11.269531 37.398437 1.222657 1.421875 1.316407 3.519532.203126 5.027344-1.277344 1.738281-2.441407 3.570312-3.484376 5.484375 9.34375 4.4375 19 8.320313 28.925782 11.613281 1.425781-6.511718 4.128906-12.472656 7.832031-17.632812 1.304687-1.816406 1.183594-4.289063-.257813-6.007813zm0 0" fill="#fde5bd"/><path d="m274.886719 125.71875c4.804687 4.808594 4.804687 12.597656 0 17.402344-4.804688 4.808594-12.597657 4.808594-17.402344 0-4.804687-4.804688-4.804687-12.59375 0-17.402344 4.804687-4.804688 12.597656-4.804688 17.402344 0zm0 0" fill="#2b6c7e"/></svg>