<svg viewBox="0 0 512 512" xmlns="http://www.w3.org/2000/svg"><path d="m512 256c0 141.386719-114.613281 256-256 256-39.246094 0-76.425781-8.84375-109.667969-24.628906-25.292969-53.265625-68.4375-96.40625-121.703125-121.703125-15.785156-33.242188-24.628906-70.421875-24.628906-109.667969 0-141.386719 114.613281-256 256-256s256 114.613281 256 256zm0 0" fill="#925b44"/><path d="m342.941406 289.265625-146.554687 187.269531c-11.496094 14.683594-31.597657 19.453125-48.496094 11.566406-14.207031-6.628906-27.699219-14.535156-40.34375-23.550781-16.679687-23.605469-37.246094-44.265625-60.773437-61.039062-8.738282-12.371094-16.410157-25.546875-22.875-39.402344-7.882813-16.898437-3.117188-37 11.566406-48.496094l187.269531-146.554687zm0 0" fill="#649eb0"/><path d="m342.941406 289.265625-146.554687 187.269531c-11.464844 14.644532-31.515625 19.476563-48.375 11.625-14.253907-6.640625-27.785157-14.570312-40.464844-23.613281-15.445313-21.859375-34.226563-41.191406-55.609375-57.253906-10.199219-23.527344-3.871094-51.953125 17.414062-68.613281l181.199219-141.808594zm0 0" fill="#95bcc9"/><path d="m357.085938 296.335938c-5.859376 5.859374-15.355469 5.859374-21.214844 0l-120.207032-120.207032c-5.859374-5.859375-5.859374-15.355468 0-21.214844 5.617188-5.617187 14.578126-5.832031 20.46875-.667968l14.214844-14.214844c-5.160156-5.890625-4.949218-14.851562.671875-20.46875 5.671875-5.675781 14.75-5.835938 20.636719-.519531 33.785156-29.449219 85.082031-28.113281 117.246094 4.054687 32.167968 32.164063 33.503906 83.460938 4.054687 117.246094 5.316407 5.886719 5.15625 14.964844-.519531 20.636719-5.617188 5.621093-14.578125 5.835937-20.46875.671875l-14.214844 14.214844c5.164063 5.890624 4.949219 14.851562-.667968 20.46875zm0 0" fill="#9bb9c3"/><path d="m402.4375 140.675781c-10.574219-6.152343-22.171875-9.855469-33.988281-11.121093-1.25-.132813-2.316407.917968-2.15625 2.164062.433593 3.386719-.863281 6.953125-3.894531 9.265625-3.675782 2.800781-8.964844 2.636719-12.484376-.355469-2.5-2.128906-3.667968-5.15625-3.519531-8.136718.066407-1.292969-1.023437-2.328126-2.296875-2.101563-7.550781 1.339844-14.957031 3.683594-21.996094 7.050781-1.222656.582032-1.511718 2.191406-.554687 3.152344l41.65625 41.65625c3.765625 3.765625 4.214844 9.898438.699219 13.898438-3.851563 4.386718-10.539063 4.546874-14.597656.488281l-46.503907-46.507813c-.011719.011719-.023437.015625-.03125.027344-5.886719-5.316406-14.964843-5.15625-20.640625.515625-5.617187 5.621094-5.832031 14.578125-.671875 20.472656l-.035156.035157 46.667969 46.667968c3.90625 3.90625 3.90625 10.238282 0 14.140625-3.902344 3.90625-10.234375 3.90625-14.140625 0l-46.667969-46.667969-.039062.035157c-5.890626-5.160157-14.847657-4.945313-20.46875.671875-5.859376 5.859375-5.859376 15.355468 0 21.214844l88.78125 88.78125c5.886718 5.882812 15.546874 6.226562 21.464843.375 5.679688-5.617188 5.914063-14.621094.734375-20.535157l14.214844-14.210937c5.890625 5.160156 14.851562 4.945312 20.46875-.671875 5.675781-5.675781 5.835938-14.753907.519531-20.640625 24.523438-28.132813 27.679688-68.402344 9.480469-99.664063zm-10.703125 27.675781c-3.90625 3.90625-10.238281 3.90625-14.144531 0-3.902344-3.90625-3.902344-10.238281 0-14.140624 3.90625-3.90625 10.238281-3.90625 14.144531 0 3.902344 3.902343 3.902344 10.234374 0 14.140624zm0 0" fill="#b4d2d7"/><path d="m197.765625 324.234375v100.171875c0 4.15625-1.390625 8.195312-3.953125 11.464844l-.9375 1.199218c-20.9375 26.753907-55.09375 36.261719-85.3125 27.523438-23.773438-16.949219-44.515625-37.863281-61.28125-61.769531-8.402344-30.050781 1.15625-63.851563 27.710938-84.636719 3.273437-2.5625 7.308593-3.953125 11.464843-3.953125h102.308594c5.523437 0 10 4.476563 10 10zm207.234375-184.234375h-10c-2.761719 0-5 2.238281-5 5v10c0 2.761719 2.238281 5 5 5h10c2.761719 0 5-2.238281 5-5v-10c0-2.761719-2.238281-5-5-5zm-15-85c0-2.761719-2.238281-5-5-5h-10c-2.761719 0-5 2.238281-5 5v10c0 2.761719 2.238281 5 5 5h10c2.761719 0 5-2.238281 5-5zm85 65h-10c-2.761719 0-5 2.238281-5 5v10c0 2.761719 2.238281 5 5 5h10c2.761719 0 5-2.238281 5-5v-10c0-2.761719-2.238281-5-5-5zm-30-50h-10c-2.761719 0-5 2.238281-5 5v10c0 2.761719 2.238281 5 5 5h10c2.761719 0 5-2.238281 5-5v-10c0-2.761719-2.238281-5-5-5zm-10 40h-10c-2.761719 0-5 2.238281-5 5v10c0 2.761719 2.238281 5 5 5h10c2.761719 0 5-2.238281 5-5v-10c0-2.761719-2.238281-5-5-5zm-30-20h-10c-2.761719 0-5 2.238281-5 5v10c0 2.761719 2.238281 5 5 5h10c2.761719 0 5-2.238281 5-5v-10c0-2.761719-2.238281-5-5-5zm0 0" fill="#fdf385"/><path d="m187.765625 314.234375h-55.035156c-11.394531 11.605469-19.546875 25.203125-24.460938 39.660156-.445312 1.304688.507813 2.664063 1.886719 2.664063h3.515625c2.761719 0 5 2.242187 5 5v10c0 2.761718-2.238281 5-5 5 0 0-5.59375-.015625-8.574219-.027344-1.035156-.003906-1.90625.78125-2 1.8125-.347656 3.882812-.480468 7.785156-.398437 11.679688.023437 1.089843.929687 1.957031 2.019531 1.945312 3.144531-.03125 8.953125-.054688 8.953125-.054688 2.757813 0 5 2.242188 5 5v10c0 2.761719-2.242187 5-5 5h-5.640625c-1.320312 0-2.265625 1.253907-1.929688 2.53125 1.425782 5.453126 3.296876 10.8125 5.613282 16.023438.535156 1.203125 2.039062 1.550781 3.082031.753906.835937-.640625 1.878906-1.023437 3.015625-1.023437h10c2.757812 0 5 2.238281 5 5v10c0 2.761719-2.242188 5-5 5h-.507812c-1.679688 0-2.621094 1.945312-1.570313 3.253906 2.375 2.960937 4.9375 5.820313 7.683594 8.566406 1.820312 1.824219 3.695312 3.558594 5.613281 5.21875 20.417969-2.34375 40.015625-12.496093 53.84375-30.167969l.9375-1.195312c2.558594-3.273438 3.953125-7.308594 3.953125-11.464844v-100.175781c0-5.523437-4.476563-10-10-10zm-33.738281 92.679687c0 2.761719-2.242188 5-5 5h-10c-2.761719 0-5-2.238281-5-5v-10c0-2.761718 2.238281-5 5-5h10c2.757812 0 5 2.238282 5 5zm0 0" fill="#fdf7bd"/></svg>