<svg viewBox="0 0 512 512" xmlns="http://www.w3.org/2000/svg"><path d="m512 256c0 141.386719-114.613281 256-256 256s-256-114.613281-256-256 114.613281-256 256-256 256 114.613281 256 256zm0 0" fill="#84deea"/><path d="m415.980469 187.945312c23.429687 23.429688 23.429687 61.417969 0 84.851563l-49.496094 49.5c-5.679687 5.675781-13.917969 7.214844-20.992187 4.628906-4.613282-1.6875-9.777344-.734375-13.25 2.738281l-.8125.816407c-3.476563 3.472656-4.429688 8.632812-2.742188 13.25 2.585938 7.074219 1.046875 15.3125-4.628906 20.992187l-137.691406 137.6875c-85.402344-24.085937-152.691407-91.375-176.777344-176.777344l137.6875-137.6875c5.679687-5.679687 13.917968-7.21875 20.992187-4.632812 4.617188 1.6875 9.777344.734375 13.25-2.738281l.816407-.8125c3.472656-3.476563 4.425781-8.636719 2.738281-13.253907-2.585938-7.074218-1.046875-15.3125 4.628906-20.988281l49.5-49.5c23.429687-23.429687 61.421875-23.429687 84.851563 0l13.4375 13.4375 28.28125-28.285156 65.054687 65.054687-28.28125 28.285157zm0 0" fill="#f5c02c"/><path d="m365.773438 81.171875 20.507812 20.503906-28.992188 28.992188c-7.417968 7.421875-19.449218 7.421875-26.867187 0-23.433594-23.433594-61.421875-23.433594-84.855469 0l-35.355468 35.355469c-5.679688 5.679687-7.214844 13.914062-4.628907 20.992187 1.6875 4.613281.734375 9.773437-2.742187 13.25l-.8125.8125c-3.472656 3.476563-8.632813 4.429687-13.25 2.742187-7.074219-2.585937-15.3125-1.050781-20.992188 4.628907l-141.421875 141.421875c-2.457031 2.457031-4.136719 5.394531-5.050781 8.511718-4.613281-10.566406-8.550781-21.496093-11.722656-32.75l137.6875-137.6875c5.679687-5.679687 13.914062-7.214843 20.992187-4.628906 4.617188 1.6875 9.777344.734375 13.25-2.742187l.8125-.8125c3.476563-3.476563 4.429688-8.636719 2.742188-13.25-2.585938-7.078125-1.046875-15.3125 4.628906-20.992188l49.5-49.496093c23.429687-23.433594 61.417969-23.433594 84.851563 0l13.433593 13.433593zm0 0" fill="#ecb700"/><path d="m415.273438 130.667969-42.425782-42.425781 77.835938-64.863282c3.972656-3.3125 9.816406-3.046875 13.472656.609375l15.371094 15.371094c3.65625 3.65625 3.921875 9.5.609375 13.472656zm0 0" fill="#c92e43"/><path d="m487.207031 59.902344-52.007812 62.410156 9.066406 9.0625c3.902344 3.90625 3.902344 10.238281 0 14.144531l-17.679687 17.675781c-1.953126 1.953126-5.117188 1.953126-7.070313 0l-70.710937-70.710937c-1.953126-1.953125-1.953126-5.117187 0-7.070313l17.675781-17.679687c3.90625-3.902344 10.238281-3.902344 14.144531 0l15.332031 15.335937c3.65625 3.65625 9.5 3.921876 13.472657.609376l55.394531-46.160157c3.972656-3.3125 9.816406-3.046875 13.472656.609375l8.300781 8.300782c3.65625 3.65625 3.921875 9.5.609375 13.472656zm0 0" fill="#e43950"/><path d="m190.414062 400.78125-79.195312-79.195312c-7.8125-7.808594-7.8125-20.472657 0-28.28125l134.347656-134.351563c7.8125-7.808594 20.472656-7.808594 28.285156 0l79.195313 79.195313c7.808594 7.8125 7.808594 20.472656 0 28.285156l-134.351563 134.347656c-7.808593 7.8125-20.472656 7.8125-28.28125 0zm0 0" fill="#f9eecf"/><path d="m237.789062 337.851562-11.3125 11.3125c-.78125.78125-2.046874.78125-2.828124 0l-60.8125-60.808593c-.78125-.78125-.78125-2.046875 0-2.828125l11.3125-11.316406c.78125-.78125 2.046874-.78125 2.828124 0l60.8125 60.8125c.78125.78125.78125 2.046874 0 2.828124zm-68.589843-28.992187c-.78125-.78125-2.046875-.78125-2.828125 0l-11.3125 11.3125c-.78125.78125-.78125 2.046875 0 2.828125l33.9375 33.941406c.78125.78125 2.050781.78125 2.828125 0l11.316406-11.3125c.78125-.78125.78125-2.046875 0-2.828125zm0 0" fill="#f5dc90"/><path d="m289.410156 254.980469c.222656 0 .398438.171875.398438.390625 0 .925781 0 3.414062.003906 6.792968.011719 22.101563-17.902344 40.027344-40.003906 40.027344-22.089844 0-40-17.910156-40-40 0-19.882812 14.507812-36.378906 33.511718-39.476562l32.535157-5.25 15.042969-2.730469c.335937-.058594.589843.304687.414062.601563-5.910156 16.683593-11.570312 23.046874-24.078125 30.507812-4.101563 2.441406-1.007813 9.136719 3.765625 9.136719zm0 0" fill="#fdcb6b"/><path d="m248.46875 290.316406c-.382812.378906-.773438.75-1.167969 1.105469-17.378906 15.722656-42.445312-9.34375-26.722656-26.722656.355469-.398438.726563-.785157 1.105469-1.167969 9.152344-9.148438 22.523437-11.5 33.847656-7.0625 4.4375 11.324219 2.085938 24.695312-7.0625 33.847656zm0 0" fill="#fc9302"/></svg>