<svg viewBox="0 0 512 512" xmlns="http://www.w3.org/2000/svg"><path d="m512 256c0 141.386719-114.613281 256-256 256s-256-114.613281-256-256 114.613281-256 256-256 256 114.613281 256 256zm0 0" fill="#fdbf43"/><path d="m234.480469 71.042969c9.429687-9.429688 24-11.386719 35.585937-4.785157l1.679688.957032c3.914062 2.230468 8.835937 1.570312 12.023437-1.617188l9.8125-9.8125-.707031-.707031c-4.0625-4.0625-3.898438-10.746094.484375-14.597656 4.003906-3.515625 10.132813-3.070313 13.898437.699219l.464844.464843 14.140625-14.144531 162.636719 162.636719-14.140625 14.140625.707031.707031c4.058594 4.0625 3.898438 10.746094-.488281 14.597656-4 3.515625-10.132813 3.070313-13.898437-.695312l-.464844-.464844-14.8125 14.808594c-2.703125 2.703125-.785156 7.324219 3.035156 7.324219 6.542969 11.574218 4.5625 26.09375-4.835938 35.492187l-231.46875 231.464844c-103.785156-19.632813-185.425781-101.894531-204.101562-206.019531l62.566406-62.566407 3.21875-1.910156c36.828125-21.859375 67.386719-52.867187 88.707032-90.011719zm0 0" fill="#328091"/><path d="m440.308594 276.753906-76.019532 76.015625c-31.265624 24.578125-59.734374 52.519531-84.894531 83.320313l-7.027343 8.605468-63.046876 63.046876c-89.070312-16.414063-161.980468-78.925782-193.085937-161.882813l249.070313-249.070313c9.429687-9.429687 24-11.386718 35.582031-4.785156.96875.554688 1.859375 1.234375 2.652343 2.023438l109.300782 109.300781c3.765625 3.765625 9.894531 4.210937 13.898437.695313 4.382813-3.851563 4.546875-10.535157.484375-14.59375l-106.066406-106.066407c-4.058594-4.0625-3.898438-10.746093.488281-14.597656 4-3.515625 10.128907-3.070313 13.894531.695313l.46875.464843 14.140626-14.140625 135.054687 135.058594-14.140625 14.140625.707031.707031c4.0625 4.0625 3.898438 10.746094-.484375 14.597656-4 3.515626-10.132812 3.066407-13.898437-.699218l-.464844-.464844-11.832031 11.832031c-1.835938 1.835938-2.4375 4.441407-1.800782 6.78125.269532.992188 1.71875 3.253907 1.855469 3.523438 6.542969 11.574219 4.5625 26.089843-4.835937 35.492187zm0 0" fill="#649eb0"/><path d="m352.253906 43.746094-21.214844 21.214844c-3.902343 3.902343-10.234374 3.902343-14.140624 0l-26.675782-26.675782c-3.90625-3.90625-3.90625-10.238281 0-14.144531l21.210938-21.210937c3.90625-3.90625 10.238281-3.90625 14.144531 0l26.675781 26.675781c3.902344 3.90625 3.902344 10.238281 0 14.140625zm0 0" fill="#ab2538"/><path d="m509.070312 200.566406-21.210937 21.210938c-3.90625 3.90625-10.238281 3.90625-14.144531 0l-162.28125-162.28125c-3.902344-3.902344-3.902344-10.234375 0-14.140625l21.214844-21.214844c3.90625-3.902344 10.238281-3.902344 14.140624 0l162.28125 162.28125c3.90625 3.90625 3.90625 10.238281 0 14.144531zm0 0" fill="#e43950"/><path d="m389.039062 264.382812c1.5625 1.5625 1.5625 4.09375 0 5.65625l-224.949218 224.949219c-68.128906-26.21875-122.207032-80.71875-147.855469-149.128906l196.027344-196.03125c1.5625-1.558594 4.097656-1.558594 5.660156 0 21.484375 21.488281 46.875 38.679687 74.804687 50.648437l10.757813 4.609376c30.359375 13.011718 57.957031 31.695312 81.3125 55.050781zm0 0" fill="#00f1a5"/><path d="m321.15625 309.636719c-19.523438 19.523437-51.183594 19.523437-70.710938 0-8.988281-8.988281-13.828124-20.546875-14.539062-32.3125-18.453125 8.445312-40.980469 5.074219-56.171875-10.113281-19.523437-19.527344-19.523437-51.1875 0-70.710938 19.527344-19.527344 51.1875-19.527344 70.710937 0 8.988282 8.988281 13.828126 20.546875 14.542969 32.308594 18.449219-8.441406 40.980469-5.074219 56.167969 10.117187 19.527344 19.527344 19.527344 51.183594 0 70.710938zm-142.449219 8.929687c-2.136719-8.453125-6.5-16.460937-13.113281-23.074218-19.527344-19.523438-51.183594-19.523438-70.710938 0-11.566406 11.566406-16.277343 27.390624-14.144531 42.429687-15.035156-2.136719-30.859375 2.574219-42.425781 14.140625-5.273438 5.277344-9.113281 11.441406-11.535156 18.007812 12.488281 25.046876 28.945312 47.761719 48.570312 67.308594 6.859375-.230468 13.679688-1.859375 19.996094-4.894531 2.335938 4.640625 5.425781 8.996094 9.300781 12.871094 19.527344 19.527343 51.183594 19.527343 70.710938 0 8.230469-8.230469 12.976562-18.617188 14.269531-29.339844 14.175781 1.203125 28.761719-3.609375 39.609375-14.453125 19.527344-19.527344 19.527344-51.1875 0-70.710938-13.671875-13.675781-33.289063-17.757812-50.527344-12.285156zm0 0" fill="#06995f"/><path d="m321.15625 309.636719c-4.226562 4.226562-9.023438 7.535156-14.140625 9.933593-5.117187-2.398437-9.914063-5.707031-14.144531-9.933593-19.523438-19.527344-19.523438-51.183594 0-70.710938 4.230468-4.226562 9.027344-7.535156 14.144531-9.933593 5.117187 2.398437 9.914063 5.707031 14.140625 9.933593 19.527344 19.527344 19.527344 51.183594 0 70.710938zm-70.710938-113.136719c-4.226562-4.226562-9.023437-7.535156-14.140624-9.933594-5.117188 2.398438-9.914063 5.707032-14.140626 9.933594-19.527343 19.523438-19.527343 51.183594 0 70.710938 4.226563 4.226562 9.023438 7.535156 14.140626 9.929687 5.117187-2.394531 9.914062-5.703125 14.140624-9.929687 19.527344-19.527344 19.527344-51.183594 0-70.710938zm-21.210937 134.351562c-4.226563-4.230468-9.023437-7.535156-14.140625-9.933593-5.121094 2.398437-9.917969 5.703125-14.144531 9.933593-19.523438 19.523438-19.523438 51.183594 0 70.710938 4.226562 4.226562 9.023437 7.535156 14.144531 9.929688 5.117188-2.394532 9.914062-5.703126 14.140625-9.929688 19.527344-19.527344 19.527344-51.1875 0-70.710938zm-64.183594 35.871094c.179688-.171875.363281-.339844.542969-.519531 19.527344-19.523437 19.527344-51.183594 0-70.710937-4.226562-4.226563-9.023438-7.53125-14.140625-9.929688-5.117187 2.398438-9.917969 5.703125-14.144531 9.929688-17.742188 17.746093-19.359375 45.511718-4.847656 65.082031 11.082031-1.679688 22.617187.371093 32.589843 6.148437zm10.304688 7.921875c-4.226563-4.226562-9.023438-7.535156-14.140625-9.929687-5.121094 2.394531-9.917969 5.703125-14.144532 9.929687-19.523437 19.527344-19.523437 51.183594 0 70.710938 4.226563 4.226562 9.023438 7.535156 14.144532 9.933593 5.117187-2.398437 9.914062-5.707031 14.140625-9.933593 19.527343-19.527344 19.527343-51.183594 0-70.710938zm-66.332031-22.582031c19.527343 19.527344 19.527343 51.183594 0 70.710938-4.226563 4.226562-9.023438 7.535156-14.140626 9.933593-5.117187-2.398437-9.914062-5.707031-14.140624-9.933593-19.527344-19.527344-19.527344-51.183594 0-70.710938 4.226562-4.226562 9.023437-7.535156 14.140624-9.929688 5.117188 2.394532 9.914063 5.703126 14.140626 9.929688zm0 0" fill="#08b772"/><path d="m158.523438 147.003906 205.0625 205.058594-91.925782 91.925781-205.0625-205.0625zm0 0" fill="#b4d2d7"/><path d="m186.808594 175.285156 177.480468 177.484375-91.921874 91.925781-177.484376-177.484374zm0 0" fill="#e1ebf0"/><path d="m302.066406 342.871094-11.3125 11.3125c-.78125.78125-2.050781.78125-2.828125 0l-131.523437-131.523438c-.78125-.777344-.78125-2.046875 0-2.824218l11.3125-11.316407c.78125-.78125 2.046875-.78125 2.828125 0l131.523437 131.523438c.78125.78125.78125 2.046875 0 2.828125zm-138.59375-84.851563c-.78125-.78125-2.046875-.78125-2.828125 0l-11.3125 11.3125c-.78125.78125-.78125 2.046875 0 2.828125l89.09375 89.09375c.78125.78125 2.046875.78125 2.828125 0l11.3125-11.3125c.78125-.78125.78125-2.046875 0-2.828125zm0 0" fill="#9bb9c3"/></svg>