<svg viewBox="0 0 512.00113 512" xmlns="http://www.w3.org/2000/svg"><path d="m437.019531 437.019531c-99.972656 99.976563-262.0625 99.976563-362.039062 0-99.972657-99.972656-99.972657-262.0625 0-362.039062 99.972656-99.972657 262.0625-99.972657 362.039062 0 99.976563 99.976562 99.976563 262.066406 0 362.039062zm0 0" fill="#fded32"/><path d="m5.480469 203.246094c18.722656-89.292969 100.011719-152.175782 191.019531-145.757813 1.316406.09375 2.636719.195313 3.957031.3125 42.445313 3.691407 83.808594 26.707031 113.027344 61.8125 11.683594 14.039063 24.25 27.824219 37.664063 41.238281 13.410156 13.414063 27.191406 25.972657 41.226562 37.65625 35.535156 29.578126 58.476562 71.570313 61.949219 114.519532.105469 1.304687.203125 2.613281.285156 3.917968 5.835937 90.445313-56.855469 170.796876-145.535156 189.511719-81.851563 17.273438-170.527344-5.867187-234.09375-69.433593-63.484375-63.484376-86.644531-152.011719-69.5-233.777344zm0 0" fill="#e43950"/><path d="m415.96875 354.84375c-1.820312 5.214844-7.523438 7.964844-12.738281 6.148438-1.46875-.515626-2.742188-1.335938-3.773438-2.367188-2.628906-2.628906-3.679687-6.625-2.375-10.371094 17.332031-49.683594-3.558593-116.203125-52.042969-167.152344l-106.007812 106.011719c-3.90625 3.90625-10.238281 3.90625-14.140625 0-3.90625-3.90625-3.90625-10.238281 0-14.140625l105.214844-105.21875c-48.785157-39.871094-108.234375-55.945312-153.628907-40.109375-3.746093 1.308594-7.742187.253907-10.371093-2.375-1.03125-1.03125-1.851563-2.304687-2.367188-3.773437-1.816406-5.214844.9375-10.914063 6.152344-12.734375 28.507813-9.945313 61.804687-9.46875 96.292969 1.375 29.546875 9.296875 58.011718 25.683593 83.183594 47.734375 1.011718.480468 1.964843 1.125 2.800781 1.964844.484375.484374.910156 1.003906 1.273437 1.554687.546875.363281 1.070313.789063 1.554688 1.273437 1.183594 1.179688 2.332031 2.382813 3.488281 3.582032 1.199219 1.15625 2.402344 2.304687 3.582031 3.488281.601563.597656 1.09375 1.257813 1.511719 1.953125 23.714844 26.0625 41.265625 55.863281 51.015625 86.863281 10.84375 34.484375 11.320312 67.78125 1.375 96.292969zm-313.800781-236.335938c46.007812-46.007812 126.582031-45.199218 205.667969-5.367187-28.773438-31.445313-67.597657-51.878906-107.378907-55.339844-1.4375-.125-2.875-.238281-4.3125-.335937-90.816406-6.273438-171.785156 56.367187-190.589843 145.433594-17.285157 81.859374 5.851562 170.546874 69.425781 234.121093 61.859375 61.859375 147.492187 85.425781 227.484375 70.734375-45.894532-15.773437-93.257813-45.25-134.925782-86.921875-101.539062-101.535156-130.804687-236.890625-65.371093-302.324219zm0 0" fill="#c92e43"/><path d="m446.699219 76.457031-39.867188 74.710938c-.722656 1.734375.015625 3.921875 1.738281 5.144531l66.746094 47.394531c3.488282 2.476563 2.179688 7.574219-1.847656 7.1875l-90.488281-20.4375c-2.203125-.210937-3.925781 1.386719-3.855469 3.582031l6.570312 75.175782c.125 4.007812-5.097656 4.96875-7.363281 1.351562l-44.078125-91.734375c-.527344-.839843-1.308594-1.511719-2.207031-1.894531l-96.789063-26.546875c-3.949218-1.679687-3.84375-7.238281.140626-7.683594l76.34375-8.496093c1.941406-.214844 3.230468-1.859376 3.027343-3.863282l-7.585937-74.402344c-.394532-3.84375 4.285156-5.328124 6.929687-2.199218l46.980469 55.566406c1.269531 1.5 3.285156 2.082031 4.894531 1.410156l74.992188-39.984375c3.296875-1.378906 7.097656 2.417969 5.71875 5.71875zm0 0" fill="#04d481"/><path d="m377.058594 178.296875c-5.855469 5.859375-18.519532 2.691406-28.28125-7.070313-9.765625-9.761718-12.929688-22.425781-7.074219-28.285156 5.859375-5.855468 18.523437-2.691406 28.285156 7.070313 9.761719 9.765625 12.929688 22.425781 7.070313 28.285156zm0 0" fill="#08b772"/></svg>