<svg viewBox="0 0 512 512" xmlns="http://www.w3.org/2000/svg"><path d="m512 256c0 141.386719-114.613281 256-256 256-13.96875 0-27.671875-1.136719-41.03125-3.289062-28.804688-90.898438-106.976562-159.820313-203.042969-175.296876-7.738281-24.425781-11.925781-50.429687-11.925781-77.414062 0-141.386719 114.613281-256 256-256s256 114.613281 256 256zm0 0" fill="#04d481"/><path d="m399.429688 132.105469c-4.800782 4.800781-5.554688 12.386719-1.785157 18.039062l15.351563 23.027344c9.035156 13.554687 7.234375 31.757813-4.285156 43.277344l-3.292969 3.289062c-12.386719 12.390625-32.035157 13.46875-45.703125 2.511719l-60.4375-48.449219c-5.695313-4.570312-13.886719-4.121093-19.050782 1.042969-4.46875 4.46875-5.480468 11.222656-2.523437 16.804688l14.863281 28.039062c7.097656 13.394531 4.667969 29.59375-6.054687 40.3125l-27.609375 27.613281c-1.953125 1.949219-4.511719 2.925781-7.070313 2.925781-2.558593 0-5.117187-.976562-7.070312-2.925781-3.90625-3.90625-3.90625-10.238281 0-14.144531l27.609375-27.609375c4.46875-4.46875 5.484375-11.222656 2.523437-16.804687l-14.859375-28.039063c-7.101562-13.394531-4.667968-29.59375 6.050782-40.3125 12.386718-12.386719 32.035156-13.464844 45.703124-2.507813l60.4375 48.449219c5.699219 4.566407 13.890626 4.117188 19.050782-1.046875l3.292968-3.292968c4.800782-4.800782 5.554688-12.386719 1.785157-18.039063l-15.351563-23.027344c-9.039062-13.558593-7.234375-31.757812 4.285156-43.277343l28.046876-28.046876c3.90625-3.902343 10.238281-3.902343 14.144531 0 3.902343 3.90625 3.902343 10.238282 0 14.144532zm0 0" fill="#006e42"/><path d="m320.105469 391.074219c1.925781 6.328125.207031 13.199219-4.472657 17.875l-99.886718 99.890625c-96.601563-15.257813-175.234375-84.535156-203.984375-175.933594l113.914062-113.914062c4.675781-4.675782 11.550781-6.394532 17.878907-4.46875l126.214843 38.414062c5.710938 1.738281 10.183594 6.207031 11.921875 11.917969zm0 0" fill="#d3f1f5"/><path d="m143.554688 214.523438 32.652343 9.9375c-.695312.515624-1.359375 1.085937-1.984375 1.707031l-146.269531 146.269531c-6.449219-12.605469-11.878906-25.820312-16.191406-39.53125l113.914062-113.914062c4.675781-4.675782 11.550781-6.394532 17.878907-4.46875zm138.136718 50.332031c-1.738281-5.710938-6.210937-10.179688-11.921875-11.917969l-15.132812-4.605469-41.195313 41.195313c-3.5 3.496094-3.5 9.167968 0 12.664062l18.996094 18.996094c3.496094 3.496094 9.164062 3.496094 12.664062 0l41.195313-41.195312zm0 0" fill="#ade8f0"/><path d="m281.683594 264.832031-22.78125 22.78125c-1.953125 1.949219-4.511719 2.925781-7.070313 2.925781-2.558593 0-5.117187-.976562-7.070312-2.925781-3.90625-3.90625-3.90625-10.238281 0-14.144531l21.578125-21.578125 3.433594 1.046875c5.699218 1.734375 10.164062 6.195312 11.910156 11.894531zm0 0" fill="#02c6dc"/><path d="m252.957031 426.039062c1.746094 1.75 1.746094 4.582032 0 6.332032l-69.257812 69.257812c-71.890625-21.128906-130.652344-72.941406-161.097657-140.304687l79.65625-79.652344c1.746094-1.75 4.582032-1.75 6.332032 0zm0 0" fill="#e8ce00"/><path d="m252.957031 426.039062c1.746094 1.75 1.746094 4.582032 0 6.332032l-61.199219 61.199218c-57.34375-28.816406-95.273437-78.785156-95.273437-135.605468 0-24.546875 4.507813-50.390625 17.167969-71.226563zm0 0" fill="#fde803"/><path d="m117.75 330c0 5.523438-4.476562 10-10 10s-10-4.476562-10-10 4.476562-10 10-10 10 4.476562 10 10zm0 20c-5.523438 0-10 4.476562-10 10s4.476562 10 10 10 10-4.476562 10-10-4.476562-10-10-10zm8.722656 85.503906c-5.523437 0-10 4.476563-10 10 0 5.523438 4.476563 10 10 10 5.519532 0 10-4.476562 10-10 0-5.523437-4.480468-10-10-10zm84.851563-14.140625c-5.523438 0-10 4.476563-10 10 0 5.523438 4.476562 10 10 10 5.523437 0 10-4.476562 10-10 0-5.523437-4.476563-10-10-10zm-127.28125-46.570312c-3.902344-3.902344-10.234375-3.902344-14.140625 0-3.90625 3.90625-3.90625 10.238281 0 14.144531 3.90625 3.902344 10.238281 3.902344 14.140625 0 3.90625-3.90625 3.90625-10.238281 0-14.144531zm0 0" fill="#cd9e00"/><path d="m509.070312 82.007812-48.28125 48.28125c-21.835937 21.835938-57.242187 21.835938-79.078124 0-21.835938-21.835937-21.835938-57.238281 0-79.078124l48.28125-48.28125c3.90625-3.90625 10.238281-3.90625 14.144531 0l64.933593 64.933593c3.90625 3.90625 3.90625 10.238281 0 14.144531zm0 0" fill="#fded32"/><path d="m451.382812 100.15625c-16.121093 16.121094-38.066406 21.390625-53.875 14.332031-7.054687-15.804687-1.785156-37.75 14.335938-53.871093 16.117188-16.117188 38.0625-21.386719 53.871094-14.332032 7.054687 15.808594 1.785156 37.753906-14.332032 53.871094zm0 0" fill="#08b772"/><path d="m387.746094 123.507812-.835938-.835937c-1.953125-1.953125-1.953125-5.117187 0-7.070313l40.375-40.375c1.953125-1.953124 5.117188-1.953124 7.070313 0l.835937.835938c1.953125 1.953125 1.953125 5.117188 0 7.070312l-40.375 40.375c-1.949218 1.953126-5.117187 1.953126-7.070312 0zm0 0" fill="#006e42"/></svg>