<svg viewBox="0 0 512 512" xmlns="http://www.w3.org/2000/svg"><path d="m512 256c0 141.386719-114.613281 256-256 256s-256-114.613281-256-256 114.613281-256 256-256 256 114.613281 256 256zm0 0" fill="#84deea"/><path d="m377 391c0 35.679688-7.308594 69.648438-20.492188 100.507812-30.859374 13.183594-64.828124 20.492188-100.507812 20.492188-49.398438 0-95.519531-14.007812-134.636719-38.242188 4.730469-8.894531 7.386719-18.804687 7.386719-29.257812 0-38.382812-35.59375-69.5-79.5-69.5-6.515625 0-12.839844.699219-18.898438 1.992188-19.359374-36.03125-30.351562-77.226563-30.351562-120.992188 0-35.679688 7.308594-69.648438 20.492188-100.507812 17.59375-7.515626 36.195312-13.113282 55.546874-16.542969 3.011719-6.519531 4.003907-17.4375 2.945313-32.628907-.875-12.574218 3.195313-24.738281 11.46875-34.25 8.273437-9.511718 19.753906-15.230468 32.328125-16.109374 10.605469-.746094 20.839844 2.695312 28.851562 9.660156 8.011719 6.972656 12.832032 16.640625 13.570313 27.234375.625 9.007812-2.289063 17.71875-8.214844 24.53125s-14.148437 10.910156-23.160156 11.539062c-7.734375.535157-15.222656-1.964843-21.074219-7.058593-5.855468-5.089844-9.375-12.15625-9.914062-19.894532-.382813-5.511718 3.773437-10.289062 9.28125-10.671875 5.519531-.394531 10.289062 3.769531 10.671875 9.28125.347656 4.972657 4.675781 8.722657 9.648437 8.390625 3.675782-.253906 7.035156-1.929687 9.453125-4.710937 2.421875-2.78125 3.613281-6.339844 3.355469-10.019531-.367188-5.261719-2.761719-10.066407-6.742188-13.53125-3.980468-3.460938-9.078124-5.167969-14.335937-4.800782-7.246094.503906-13.859375 3.804688-18.628906 9.28125-4.765625 5.480469-7.113281 12.488282-6.605469 19.734375.648438 9.304688.917969 20.679688-1.234375 31.140625 7.675781-.691406 15.441406-1.066406 23.296875-1.066406 141.386719 0 256 114.613281 256 256zm0 0" fill="#06995f"/><path d="m327.40625 431.71875c-3.085938 26.398438-9.710938 51.519531-19.308594 74.972656-16.820312 3.480469-34.246094 5.308594-52.097656 5.308594-10.414062 0-20.679688-.636719-30.769531-1.847656 12.582031-26.949219 21.148437-56.328125 24.792969-87.484375 14.195312-121.363281-49.699219-233.835938-152.320313-286.601563 7.808594-.714844 15.304687-1.066406 23.296875-1.066406 2.773438 0 5.527344.058594 8.28125.148438 119.730469 46.109374 213.460938 165.46875 198.125 296.570312zm-306.914062-276.226562c-13.183594 30.859374-20.492188 64.828124-20.492188 100.507812 0 46.898438 12.621094 90.847656 34.640625 128.648438 35.019531-70.367188 38.332031-152.875 9.355469-237.851563-8.011719 2.523437-15.851563 5.429687-23.503906 8.695313zm51.765624-15.832032c-4.808593.929688-9.570312 1.984375-14.277343 3.175782 55.441406 86.277343 60.40625 197.1875 11.453125 288.4375.175781.191406.355468.378906.53125.566406 27.878906 29.484375 77.445312 15.3125 85.957031-24.363282 20.363281-94.953124-8.535156-197.464843-83.664063-267.816406zm0 0" fill="#08b772"/><path d="m478.957031 256c-9.066406 56.929688-35.621093 111.765625-79.65625 155.800781-28.757812 28.761719-62.121093 50.066407-97.667969 63.914063-101.097656 39.382812-216.582031-.511719-269.394531-95.285156-.707031-1.269532-1.402343-2.542969-2.089843-3.828126l362.421874-362.421874c2.214844-2.214844 6.082032-1.988282 8.617188.546874.015625.015626.03125.03125.046875.046876 65.496094 65.492187 91.339844 155.722656 77.722656 241.226562zm0 0" fill="#06995f"/><path d="m458.753906 324.878906c-13.800781 31.519532-33.613281 61.082032-59.453125 86.921875-66.515625 66.515625-157.664062 93.171875-243.464843 79.855469-11.695313-4.976562-22.941407-10.804688-33.667969-17.394531 3.777343-11.480469 6.425781-23.660157 7.78125-36.335938 10.292969 5.839844 21.023437 11.050781 32.140625 15.558594 90.078125 13.316406 185.761718-13.339844 255.589844-79.851563 15.847656-15.101562 29.539062-31.46875 41.074218-48.753906zm0 0" fill="#006e42"/><path d="m452.683594 256c-14.179688 46.640625-40.632813 91.835938-78.992188 130.191406-56.167968 56.167969-126.988281 86.828125-195.550781 90.769532-37.773437 2.171874-74.734375-11.972657-101.703125-38.515626-18.371094-18.082031-34.023438-38.917968-46.292969-61.84375l225.855469-225.851562 136.570312-136.570312c2.214844-2.214844 5.820313-2.25 8.039063-.03125.011719.011718.027344.027343.039063.039062 62.109374 62.109375 78.589843 154.496094 52.035156 241.8125zm0 0" fill="#fd5ca6"/><path d="m452.683594 256c-14.179688 46.640625-40.632813 91.835938-78.992188 130.191406-55.296875 55.296875-124.792968 85.871094-192.355468 90.566406-39.957032 2.777344-79.101563-12.21875-107.28125-40.6875-17.34375-17.523437-32.175782-37.542968-43.90625-59.46875l15.539062-15.542968c39.375 25.570312 84.878906 40.179687 133.367188 40.179687 149.535156 0 270.773437-138.824219 270.941406-310.144531 19.046875 50.839844 19.714844 108.914062 2.6875 164.90625zm0 0" fill="#fd3d96"/><path d="m452.683594 256c-14.183594 46.640625-40.632813 91.835938-78.992188 130.191406-71.804687 71.804688-167.554687 101.921875-251.917968 87.820313-16.632813-10.257813-32-22.367188-45.820313-36.042969 87.195313 19.265625 188.773437-10.203125 264.042969-85.472656 29.027344-29.027344 51.238281-61.972656 66.476562-96.496094 36.421875-82.519531 32.960938-174.0625-12.695312-242.738281 2.167968-1.242188 4.984375-.960938 6.832031.886719.011719.011718.027344.027343.039063.039062 62.109374 62.109375 78.589843 154.496094 52.035156 241.8125zm0 0" fill="#d3f1f5"/><path d="m306.621094 301.4375c0 9.769531-7.917969 17.683594-17.683594 17.683594-7.945312 0-14.917969-5.296875-17.039062-12.957032l-7.621094-27.472656c-.324219-1.164062.75-2.238281 1.914062-1.914062l27.472656 7.621094c7.65625 2.125 12.957032 9.09375 12.957032 17.039062zm29.570312-117.832031c-3.972656-6.882813-12.046875-10.265625-19.742187-8.277344l-27.601563 7.136719c-1.171875.300781-1.5625 1.769531-.699218 2.617187l20.335937 19.980469c5.667969 5.570312 14.355469 6.675781 21.234375 2.703125 8.460938-4.886719 11.355469-15.699219 6.472656-24.160156zm-163.613281 117.042969c-.847656-.863282-2.3125-.472657-2.613281.699218l-7.140625 27.601563c-1.988281 7.695312 1.398437 15.769531 8.28125 19.742187 8.457031 4.882813 19.273437 1.988282 24.15625-6.472656 3.972656-6.878906 2.867187-15.566406-2.699219-21.234375zm0 0" fill="#813873"/></svg>