<svg viewBox="0 0 512 512" xmlns="http://www.w3.org/2000/svg"><path d="m512 256c0 141.386719-114.613281 256-256 256s-256-114.613281-256-256 114.613281-256 256-256 256 114.613281 256 256zm0 0" fill="#04d481"/><path d="m446.640625 123.949219c-4 4-5.882813 9.699219-5.1875 15.574219 2.882813 24.460937 1.175781 48.171874-4.933594 69.925781l-15.265625-15.269531c-20.445312-20.441407-46.484375-34.378907-74.835937-40.046876-28.351563-5.671874-54.386719-19.605468-74.832031-40.050781l-16.109376-16.105469c32.011719-23.09375 73.3125-32.578124 117-27.425781 5.875.691407 11.574219-1.1875 15.574219-5.191406l17.292969-17.292969c22.554688 16.230469 42.359375 36.035156 58.585938 58.589844zm0 0" fill="#d3f1f5"/><path d="m255.480469 97.976562c32.011719-23.09375 73.308593-32.578124 116.996093-27.429687 5.875.695313 11.574219-1.1875 15.574219-5.1875l17.292969-17.292969c9.589844 6.902344 18.691406 14.441406 27.226562 22.574219l-19.617187 19.617187c-4.003906 4.003907-9.699219 5.882813-15.578125 5.1875-43.476562-5.125-84.585938 4.25-116.53125 27.101563-3.191406-2.6875-6.289062-5.5-9.257812-8.464844zm0 0" fill="#84deea"/><path d="m448.574219 121.410156-57.984375-57.984375c-3.902344-3.90625-3.902344-10.238281 0-14.140625l25.355468-25.355468c3.90625-3.90625 10.238282-3.90625 14.144532 0l57.980468 57.980468c3.90625 3.90625 3.90625 10.238282 0 14.144532l-25.355468 25.355468c-3.90625 3.902344-10.234375 3.902344-14.140625 0zm0 0" fill="#e31e7f"/><path d="m448.574219 121.410156-40.304688-40.304687c-3.90625-3.90625-3.90625-10.238281 0-14.144531l25.355469-25.355469c3.902344-3.902344 10.234375-3.902344 14.140625 0l40.304687 40.304687c3.90625 3.90625 3.90625 10.238282 0 14.144532l-25.355468 25.355468c-3.90625 3.902344-10.234375 3.902344-14.140625 0zm0 0" fill="#fd3d96"/><path d="m439.457031 197.144531c-5.859375 29.417969-19.339843 55.859375-40.0625 76.582031-17.800781 17.796876-37.414062 33.71875-58.691406 47.53125-19.890625 12.910157-39.632813 28.820313-58.277344 47.464844-18.644531 18.640625-34.554687 38.386719-47.464843 58.277344-13.8125 21.277344-29.730469 40.890625-47.53125 58.6875l-6.636719 6.640625c-2.316407 2.3125-4.832031 4.316406-7.496094 6.011719-25.796875-8.800782-49.734375-21.605469-71.082031-37.671875.328125-1.585938.777344-3.15625 1.386718-4.679688l.949219-2.382812c4.386719-11.035157 1.402344-24.132813-7.542969-33.078125l-6.289062-6.289063c-9.296875-9.296875-23.03125-12.121093-34.246094-7.046875-1.84375.835938-3.761718 1.4375-5.710937 1.847656-15.800781-21.15625-28.402344-44.839843-37.101563-70.335937 1.695313-2.664063 3.695313-5.179687 6.011719-7.492187l6.636719-6.640626c17.796875-17.796874 37.410156-33.71875 58.691406-47.53125 19.890625-12.910156 39.632812-28.820312 58.277344-47.464843 18.640625-18.640625 34.554687-38.386719 47.464844-58.277344 13.8125-21.277344 29.730468-40.890625 47.53125-58.6875 9.3125-9.3125 19.78125-17.160156 31.15625-23.515625l20.917968 20.917969c18.210938 18.214843 41.410156 30.628906 66.664063 35.679687 25.257812 5.050782 48.453125 17.464844 66.667969 35.675782zm0 0" fill="#994587"/><path d="m213.8125 211.917969c5.859375 5.859375 5.859375 15.355469 0 21.214843-5.855469 5.855469-15.351562 5.855469-21.210938 0-.878906-.878906-1.613281-1.851562-2.230468-2.871093-6.894532 8.21875-14.296875 16.3125-22.191406 24.210937-18.644532 18.644532-38.386719 34.554688-58.277344 47.464844-9.632813 6.253906-18.902344 12.957031-27.835938 20.050781 1.617188.726563 3.136719 1.738281 4.46875 3.066407 5.855469 5.859374 5.855469 15.355468 0 21.214843-5.859375 5.855469-15.355468 5.855469-21.214844 0-1.90625-1.90625-3.179687-4.203125-3.847656-6.628906-3.476562 3.21875-6.910156 6.476563-10.261718 9.828125l-6.640626 6.640625c-6.765624 6.765625-10.875 15.242187-12.375 24.238281-7.355468-13.210937-13.582031-27.128906-18.535156-41.644531 1.695313-2.667969 3.699219-5.179687 6.011719-7.496094l6.636719-6.636719c17.800781-17.800781 37.414062-33.71875 58.691406-47.53125 19.890625-12.910156 39.632812-28.824218 58.277344-47.464843 18.644531-18.644531 34.554687-38.386719 47.464844-58.277344 13.8125-21.28125 29.734374-40.894531 47.53125-58.691406 9.3125-9.3125 19.785156-17.160157 31.15625-23.515625l20.917968 20.921875c1.339844 1.335937 2.710938 2.632812 4.105469 3.910156-11.421875 6.367187-21.933594 14.238281-31.277344 23.585937-17.800781 17.796876-33.71875 37.410157-47.53125 58.6875-2.59375 3.992188-5.3125 7.980469-8.144531 11.953126 2.3125.691406 4.488281 1.945312 6.3125 3.769531zm-42.425781 120.210937c5.859375-5.859375 5.859375-15.355468 0-21.214844-5.855469-5.859374-15.355469-5.859374-21.210938 0-5.859375 5.855469-5.859375 15.355469 0 21.214844 5.855469 5.855469 15.355469 5.855469 21.210938 0zm56.570312 0c-5.859375 5.855469-5.859375 15.351563 0 21.210938 5.855469 5.859375 15.355469 5.859375 21.210938 0 5.859375-5.859375 5.859375-15.355469 0-21.210938-5.855469-5.859375-15.355469-5.859375-21.210938 0zm-63.640625 77.78125c-5.855468 5.855469-5.855468 15.355469 0 21.210938 5.859375 5.859375 15.355469 5.859375 21.214844 0 5.855469-5.855469 5.855469-15.355469 0-21.210938-5.859375-5.859375-15.355469-5.859375-21.214844 0zm219.203125-212.132812c-5.859375-5.859375-15.355469-5.859375-21.210937 0-5.859375 5.859375-5.859375 15.355468 0 21.210937 5.855468 5.859375 15.351562 5.859375 21.210937 0 5.859375-5.855469 5.859375-15.351562 0-21.210937zm-120.207031 42.425781c-5.859375 5.859375-5.859375 15.355469 0 21.210937 5.859375 5.859376 15.355469 5.859376 21.210938 0 5.859374-5.855468 5.859374-15.351562 0-21.210937-5.855469-5.859375-15.355469-5.859375-21.210938 0zm14.140625-84.851563c-5.855469 5.855469-5.855469 15.355469 0 21.210938 5.859375 5.859375 15.355469 5.859375 21.214844 0 5.855469-5.855469 5.855469-15.351562 0-21.210938-5.859375-5.859374-15.355469-5.859374-21.214844 0zm0 0" fill="#813873"/></svg>