<svg viewBox="0 0 512 512" xmlns="http://www.w3.org/2000/svg"><path d="m512 256c0 115.964844-77.113281 213.902344-182.855469 245.378906.011719-1.113281.039063-2.222656.039063-3.335937 0-174.40625-128.714844-315.792969-287.488282-315.792969-10.632812 0-21.125.65625-31.457031 1.890625 31.0625-106.402344 129.328125-184.140625 245.761719-184.140625 141.386719 0 256 114.613281 256 256zm0 0" fill="#925b44"/><path d="m512 176c0 52.234375-22.757812 99.148438-58.898438 131.378906-3.429687 3.058594-6.746093 6.226563-9.957031 9.488282-23.589843 23.988281-41.191406 53.394531-51.113281 85.65625-11.714844 38.101562-33.242188 71.90625-61.617188 98.476562-23.550781 7.144531-48.53125 11-74.414062 11-141.386719 0-256-114.613281-256-256 0-25.882812 3.855469-50.863281 11-74.410156 26.570312-28.378906 60.371094-49.90625 98.476562-61.621094 32.261719-9.921875 61.667969-27.523438 85.65625-51.113281 3.261719-3.210938 6.429688-6.527344 9.488282-9.957031 32.226562-36.140626 79.144531-58.898438 131.375-58.898438 97.304687 0 176.003906 78.699219 176.003906 176zm0 0" fill="#f9eecf"/><path d="m472.359375 64.667969c-30.324219-24.792969-69.078125-39.667969-111.363281-39.667969-52.230469 0-99.148438 22.757812-131.375 58.898438-9.015625 10.105468-18.960938 19.28125-29.664063 27.421874-19.609375 14.914063-41.769531 26.355469-65.480469 33.648438-58.488281 17.984375-106.847656 59.066406-134.4570308 112.597656-.0039062-.523437-.0195312-1.042968-.0195312-1.566406 0-25.882812 3.855469-50.863281 11-74.410156 26.570312-28.378906 60.371094-49.90625 98.476562-61.621094 32.261719-9.921875 61.667969-27.523438 85.65625-51.113281 3.261719-3.210938 6.429688-6.527344 9.488282-9.957031 32.226562-36.140626 79.144531-58.898438 131.375-58.898438 55.035156 0 104.105468 25.1875 136.363281 64.667969zm0 0" fill="#f7e6b0"/><path d="m452 176c0 33.027344-14.152344 64.589844-38.835938 86.601562-36.847656 32.859376-63.984374 75.148438-78.480468 122.285157-20.730469 67.410156-80.566406 113.527343-150.433594 116.90625-83.691406-24.390625-149.652344-90.351563-174.042969-174.042969 3.378907-69.867188 49.496094-129.703125 116.902344-150.433594 47.144531-14.496094 89.429687-41.636718 122.289063-78.484375 22.007812-24.679687 53.574218-38.832031 86.601562-38.832031 31.03125 0 60.175781 12.054688 82.0625 33.9375 21.882812 21.886719 33.9375 51.03125 33.9375 82.0625zm0 0" fill="#ea5569"/><path d="m310 320c0 5.523438-4.476562 10-10 10-66.167969 0-120-53.832031-120-120 0-5.523438 4.476562-10 10-10s10 4.476562 10 10c0 55.140625 44.859375 100 100 100 5.523438 0 10 4.476562 10 10zm-47.5 57.5c-71.683594 0-130-58.316406-130-130 0-5.523438-4.476562-10-10-10s-10 4.476562-10 10c0 40.097656 15.59375 77.773438 43.910156 106.089844s65.992188 43.910156 106.089844 43.910156c5.523438 0 10-4.476562 10-10s-4.476562-10-10-10zm-52.5 52.5c-71.683594 0-130-58.316406-130-130 0-5.523438-4.476562-10-10-10s-10 4.476562-10 10c0 40.097656 15.59375 77.773438 43.910156 106.089844s65.992188 43.910156 106.089844 43.910156c5.523438 0 10-4.476562 10-10s-4.476562-10-10-10zm0 0" fill="#e43950"/><path d="m354.890625 214.890625c-27.238281 27.238281-62.253906 36.386719-78.210937 20.429687-15.957032-15.957031-6.808594-50.972656 20.429687-78.210937s62.253906-36.386719 78.210937-20.429687c15.957032 15.957031 6.808594 50.972656-20.429687 78.210937zm0 0" fill="#f7e6b0"/><path d="m354.890625 214.890625c-27.238281 27.238281-62.253906 36.386719-78.210937 20.429687-.816407-.8125-1.546876-1.691406-2.230469-2.601562 3.363281-5.261719 7.113281-10.683594 11.210937-16.214844 2.5-3.367187 7.335938-3.558594 10.277344-.566406.019531.019531.039062.042969.0625.0625 8.316406 8.320312 28.492188 1.632812 45.0625-14.9375 16.570312-16.566406 23.257812-36.742188 14.9375-45.0625-.375-.375-.773438-.71875-1.191406-1.03125-3.421875-2.550781-3.460938-7.691406-.164063-10.394531 5.195313-4.25 10.332031-8.226563 15.378907-11.902344 1.933593 1.097656 3.710937 2.425781 5.296874 4.007813 15.957032 15.957031 6.808594 50.972656-20.429687 78.210937zm0 0" fill="#f9eecf"/></svg>