<svg viewBox="0 0 512 512" xmlns="http://www.w3.org/2000/svg"><path d="m512 256c0 141.386719-114.613281 256-256 256s-256-114.613281-256-256 114.613281-256 256-256 256 114.613281 256 256zm0 0" fill="#84deea"/><path d="m420 40v240l-.070312.050781c-.171876 2.125-.714844 4.304688-1.71875 6.472657l-100.890626 218.066406c-19.648437 4.832031-40.183593 7.410156-61.320312 7.410156-14.289062 0-28.304688-1.171875-41.957031-3.421875-5.699219-.941406-7.601563-10.144531-13.167969-11.453125-5.578125-1.3125-14.824219 5.265625-20.257812 3.59375-62.816407-19.328125-115.328126-62.1875-147.253907-118.28125l66.636719-142.4375zm0 0" fill="#86523e"/><path d="m420 105.664062v47.648438l-165.945312 358.671875c-7.261719-.054687-14.449219-.410156-21.558594-1.058594zm-124.003906 403.210938 124.003906-268.019531v-47.652344l-147.242188 318.246094c7.847657-.507813 15.597657-1.375 23.238282-2.574219zm0 0" fill="#bb7c63"/><path d="m418.210938 46.523438-104.320313 225.476562-99.417969 214.875c-5.605468 12.121094-19.28125 18.210938-32.074218 14.378906-105.507813-31.617187-182.398438-129.453125-182.398438-245.253906 0-18.847656 2.054688-37.214844 5.921875-54.902344l234.078125-108.300781 124.140625-57.433594c1.242187 2.097657 3.644531 3.429688 6.332031 3.082031 2.652344-.34375 4.84375-2.40625 5.390625-5.023437.253907-1.203125.136719-2.347656-.21875-3.382813l17.832031-8.25c15.738282-7.28125 32.015626 8.996094 24.734376 24.734376zm0 0" fill="#fd3d96"/><path d="m400.085938 74.820312c-6.105469.242188-11.855469-1.339843-16.738282-4.25-1.304687 4.148438-3.519531 8.078126-6.667968 11.484376-9.953126 10.773437-25.886719 12.714843-37.976563 5.441406-1.304687 4.160156-3.523437 8.109375-6.683594 11.527344-9.953125 10.769531-25.886719 12.710937-37.980469 5.4375-1.300781 4.164062-3.523437 8.109374-6.679687 11.527343-9.953125 10.769531-25.886719 12.710938-37.980469 5.4375-1.304687 4.164063-3.523437 8.113281-6.679687 11.527344-9.957031 10.773437-25.886719 12.710937-37.980469 5.441406-1.304688 4.160157-3.523438 8.109375-6.683594 11.527344-9.953125 10.769531-25.886718 12.710937-37.976562 5.4375-1.304688 4.164063-3.523438 8.109375-6.683594 11.527344-9.953125 10.769531-25.886719 12.710937-37.976562 5.4375-1.304688 4.164062-3.527344 8.113281-6.683594 11.527343-9.953125 10.769532-25.886719 12.710938-37.980469 5.4375-1.300781 4.164063-3.523437 8.113282-6.679687 11.527344-9.953126 10.773438-25.886719 12.714844-37.980469 5.441406-1.304688 4.164063-3.523438 8.109376-6.679688 11.527344-4.875 5.273438-11.1875 8.425782-17.777343 9.417969.792968-17.042969 12.273437-61.707031 17.773437-67.660156 9.953125-10.769531 25.886719-12.710938 37.980469-5.4375 1.304687-4.164063 3.523437-8.113281 6.679687-11.527344 9.957031-10.769531 25.886719-12.710937 37.980469-5.4375 1.304688-4.164063 3.523438-8.113281 6.683594-11.527344 9.953125-10.773437 25.886718-12.714843 37.976562-5.441406 1.304688-4.160156 3.523438-8.109375 6.683594-11.527344 9.953125-10.769531 25.886719-12.710937 37.976562-5.4375 1.304688-4.164062 3.527344-8.109375 6.683594-11.527343 9.953125-10.769532 25.886719-12.710938 37.980469-5.4375 1.300781-4.164063 3.523437-8.113282 6.679687-11.527344 9.953126-10.773438 25.886719-12.710938 37.980469-5.441406 1.304688-4.160157 3.523438-8.109376 6.679688-11.527344 9.957031-10.769532 25.886719-12.710938 37.980469-5.4375 1.304687-4.164063 3.523437-8.109375 6.683593-11.527344 9.921875-10.738281 25.789063-12.695312 37.867188-5.5 3.753906-11.882812 14.632812-20.707031 27.800781-21.226562 16.78125-.660157 30.921875 12.40625 31.582031 29.183593.664063 16.78125-12.402343 30.921875-29.183593 31.582031zm0 0" fill="#fde5bd"/><path d="m406.261719 73.941406c2.023437 3.867188 3.242187 8.226563 3.425781 12.875.578125 14.65625-9.316406 27.292969-23.007812 30.703125 2.019531 3.863281 3.242187 8.226563 3.425781 12.875.578125 14.65625-9.316407 27.292969-23.007813 30.699219 2.019532 3.867188 3.242188 8.230469 3.425782 12.878906.578124 14.652344-9.316407 27.292969-23.011719 30.699219 2.023437 3.867187 3.246093 8.226563 3.425781 12.875.578125 14.65625-9.316406 27.292969-23.007812 30.703125 2.023437 3.863281 3.242187 8.226562 3.425781 12.875.578125 14.65625-9.316407 27.292969-23.007813 30.699219 2.019532 3.867187 3.242188 8.230469 3.425782 12.875.578124 14.65625-9.316407 27.296875-23.007813 30.703125 2.019531 3.867187 3.242187 8.226562 3.425781 12.875.578125 14.65625-9.316406 27.292968-23.011718 30.703125 2.023437 3.863281 3.246093 8.226562 3.429687 12.875.578125 14.652343-9.316406 27.292969-23.011719 30.699219 2.023438 3.867187 3.246094 8.226562 3.429688 12.875.578125 14.65625-9.316406 27.292968-23.011719 30.703124 2.023437 3.863282 3.246094 8.226563 3.429687 12.875.523438 13.332032-7.617187 24.984376-19.398437 29.550782-11.414063-1.882813-22.578125-4.507813-33.429687-7.847656-4.675782-5.113282-7.644532-11.839844-7.9375-19.308594-.578126-14.65625 9.316406-27.292969 23.007812-30.699219-2.019531-3.867187-3.242188-8.230469-3.425781-12.878906-.578125-14.652344 9.316406-27.292969 23.007812-30.699219-2.019531-3.867188-3.242187-8.226562-3.425781-12.875-.578125-14.65625 9.316406-27.292969 23.007812-30.703125-2.019531-3.863281-3.242187-8.226563-3.425781-12.875-.578125-14.65625 9.316407-27.292969 23.011719-30.699219-2.023438-3.867187-3.246094-8.230468-3.425781-12.878906-.578125-14.652344 9.3125-27.292969 23.007812-30.699219-2.023437-3.867187-3.242187-8.226562-3.425781-12.875-.578125-14.65625 9.316406-27.292969 23.007812-30.703125-2.023437-3.863281-3.242187-8.226562-3.425781-12.875-.578125-14.65625 9.316407-27.292968 23.007813-30.699218-2.019532-3.867188-3.242188-8.226563-3.425782-12.875-.578124-14.65625 9.316407-27.296876 23.011719-30.703126-2.023437-3.863281-3.246093-8.226562-3.425781-12.875-.578125-14.652343 9.3125-27.292968 23.007812-30.699218-1.710937-3.269532-2.839843-6.894532-3.257812-10.746094-3.613281-.628906-7.140625-1.898438-10.390625-3.851562-1.304687 4.164062-3.523437 8.113281-6.679687 11.527343-9.957032 10.769531-25.886719 12.710938-37.980469 5.441407-1.304688 4.160156-3.523438 8.109374-6.683594 11.523437-9.953125 10.773437-25.886719 12.714844-37.976563 5.441406-1.304687 4.164063-3.523437 8.109375-6.683593 11.527344-9.953125 10.769531-25.886719 12.710937-37.976563 5.4375-1.304687 4.164063-3.527344 8.109375-6.683594 11.527344-9.953124 10.769531-25.886718 12.710937-37.980468 5.4375-1.300782 4.164062-3.523438 8.113281-6.679688 11.527343-9.953125 10.773438-25.886718 12.714844-37.980468 5.441407-1.304688 4.160156-3.523438 8.109375-6.679688 11.527343-9.957031 10.769532-25.890625 12.710938-37.980469 5.4375-1.304687 4.164063-3.523437 8.109376-6.683593 11.527344-9.953126 10.769532-25.886719 12.710938-37.976563 5.4375-.472656 1.503906-1.066406 2.972656-1.773437 4.402344 3.886718-15.820312 8.785156-31.0625 11.835937-34.367188 9.957031-10.769531 25.886719-12.710937 37.980469-5.4375 1.304687-4.164062 3.523437-8.109374 6.683594-11.527343 9.953124-10.769531 25.886718-12.710938 37.976562-5.4375 1.304688-4.164063 3.523438-8.113281 6.683594-11.527344 9.953125-10.773437 25.886718-12.714844 37.976562-5.441406 1.304688-4.160157 3.527344-8.109375 6.683594-11.527344 9.953125-10.769531 25.886719-12.710937 37.980469-5.4375 1.300781-4.164063 3.523437-8.109375 6.679687-11.527344 9.953125-10.769531 25.886719-12.710937 37.980469-5.4375 1.304687-4.164062 3.523437-8.109375 6.679687-11.527343 9.957032-10.773438 25.890626-12.714844 37.980469-5.441407 1.304688-4.160156 3.523438-8.109375 6.683594-11.527343 9.953125-10.769532 25.886719-12.710938 37.976563-5.4375 1.304687-4.164063 3.523437-8.109376 6.683593-11.527344 9.921875-10.738282 25.792969-12.699219 37.871094-5.5 3.75-11.882813 14.628906-20.707032 27.800781-21.226563 4.464844-.175781 8.742188.628907 12.632813 2.210938 1.285156 3.171875 2.054687 6.609375 2.199219 10.226562.574218 14.65625-9.320313 27.296875-23.011719 30.703125zm0 0" fill="#fff5f5"/><path d="m370.261719 99.554688c.183593 4.648437 1.40625 9.007812 3.425781 12.875-13.691406 3.40625-23.585938 16.046874-23.007812 30.699218.183593 4.648438 1.40625 9.011719 3.425781 12.875-13.691407 3.410156-23.585938 16.046875-23.007813 30.703125.183594 4.648438 1.40625 9.007813 3.425782 12.875-13.695313 3.40625-23.585938 16.046875-23.007813 30.699219.183594 4.648438 1.402344 9.011719 3.425781 12.875-13.695312 3.410156-23.585937 16.046875-23.011718 30.703125.183593 4.648437 1.40625 9.007813 3.425781 12.875-13.691407 3.40625-23.585938 16.046875-23.007813 30.699219.183594 4.648437 1.40625 9.011718 3.425782 12.878906-13.691407 3.40625-23.585938 16.042969-23.007813 30.699219.183594 4.648437 1.40625 9.011719 3.425781 12.875-13.695312 3.410156-23.585937 16.046875-23.007812 30.703125.183594 4.648437 1.402344 9.007812 3.425781 12.875-13.695313 3.40625-23.585937 16.046875-23.007813 30.699218.183594 4.648438 1.402344 9.011719 3.425782 12.875-13.691406 3.410157-23.585938 16.046876-23.007813 30.703126.195313 4.945312 1.566407 9.558593 3.824219 13.601562-5.820312-1.347656-11.566406-2.890625-17.226562-4.632812-4.675782-5.113282-7.644532-11.839844-7.9375-19.308594-.578126-14.65625 9.316406-27.292969 23.007812-30.699219-2.023438-3.867187-3.242188-8.230469-3.425781-12.878906-.578125-14.652344 9.316406-27.292969 23.007812-30.699219-2.023437-3.867188-3.242187-8.226562-3.425781-12.875-.578125-14.65625 9.316406-27.292969 23.007812-30.703125-2.019531-3.863281-3.242187-8.226563-3.425781-12.875-.578125-14.65625 9.316407-27.292969 23.007813-30.699219-2.019532-3.867187-3.242188-8.230468-3.425782-12.878906-.578124-14.652344 9.316407-27.292969 23.011719-30.699219-2.023437-3.867187-3.246093-8.226562-3.425781-12.875-.578125-14.65625 9.3125-27.292969 23.007812-30.703125-2.023437-3.863281-3.242187-8.226562-3.425781-12.875-.578125-14.65625 9.316407-27.292968 23.007813-30.699218-2.023438-3.867188-3.242188-8.226563-3.425782-12.875-.578124-14.65625 9.316407-27.296876 23.007813-30.703126-2.019531-3.863281-3.242187-8.226562-3.425781-12.875-.578125-14.652343 9.316406-27.292968 23.011718-30.699218-1.359374-2.59375-3.289062-7.382813-3.261718-10.746094 6.410156 3.03125 15.25 3.5 21.945312.105469-.605468 2.597656-.882812 5.3125-.773437 8.105469zm0 0" fill="#fde5bd"/><path d="m195 295v30c0 5.523438-4.476562 10-10 10s-10-4.476562-10-10v-30c0-5.523438 4.476562-10 10-10s10 4.476562 10 10zm82.679688-132.679688c-3.90625-3.902343-10.238282-3.902343-14.144532 0l-21.210937 21.214844c-3.90625 3.90625-3.90625 10.238282 0 14.140625 3.902343 3.90625 10.234375 3.90625 14.140625 0l21.214844-21.210937c3.902343-3.90625 3.902343-10.238282 0-14.144532zm0 0" fill="#fdf061"/><path d="m105.859375 267.070312c-3.90625 3.90625-10.238281 3.90625-14.144531 0-3.902344-3.90625-3.902344-10.234374 0-14.140624l21.214844-21.214844c3.90625-3.90625 10.234374-3.90625 14.140624 0s3.90625 10.238281 0 14.140625zm111.820313-33.535156-21.214844-21.210937c-3.90625-3.90625-10.238282-3.90625-14.140625 0-3.90625 3.902343-3.90625 10.234375 0 14.140625l21.210937 21.214844c3.90625 3.902343 10.238282 3.902343 14.144532 0 3.902343-3.90625 3.902343-10.238282 0-14.144532zm-100.609376 128.179688c-3.90625-3.902344-10.234374-3.902344-14.140624 0-3.90625 3.90625-3.90625 10.238281 0 14.144531l21.210937 21.210937c3.90625 3.90625 10.238281 3.90625 14.144531 0 3.902344-3.90625 3.902344-10.234374 0-14.140624zm0 0" fill="#a11259"/><path d="m90 320h-30c-5.523438 0-10-4.476562-10-10s4.476562-10 10-10h30c5.523438 0 10 4.476562 10 10s-4.476562 10-10 10zm0 0" fill="#08e092"/></svg>