<svg viewBox="0 0 512 512" xmlns="http://www.w3.org/2000/svg"><path d="m512 256c0 141.386719-114.613281 256-256 256-46.210938 0-89.5625-12.25-126.988281-33.671875-22.695313-39.699219-55.714844-72.730469-95.398438-95.449219-21.386719-37.398437-33.613281-80.710937-33.613281-126.878906 0-141.386719 114.613281-256 256-256s256 114.613281 256 256zm0 0" fill="#08b772"/><path d="m475.238281 220c-6.59375 59.507812-37.21875 123.246094-89.605469 175.632812-75.09375 75.097657-173.515624 105.488282-249.363281 84.457032-2.226562-.617188-4.480469-1.105469-6.742187-1.476563-40.046875-22.800781-73.339844-56.089843-96.140625-96.136719-.371094-2.265624-.855469-4.519531-1.472657-6.746093-21.035156-75.847657 9.359376-174.265625 84.453126-249.363281 52.386718-52.386719 116.125-83.011719 175.632812-89.605469 25.796875-2.859375 50.796875-1.210938 73.730469 5.148437 10.867187 3.015625 22.324219 3.09375 33.167969 0 28.507812-8.121094 51.425781-6.558594 64.585937 6.605469 13.164063 13.164063 14.726563 36.078125 6.605469 64.589844-3.09375 10.839843-3.015625 22.296875 0 33.164062 6.359375 22.933594 8.007812 47.933594 5.148437 73.730469zm0 0" fill="#e8ce00"/><path d="m470.125 146.402344c-3.011719-10.894532-3.136719-22.417969-.039062-33.289063 3.550781-12.453125 5.25-23.839843 4.941406-33.8125-9.96875-.308593-21.351563 1.390625-33.804688 4.9375-10.753906 3.066407-22.175781 3.0625-32.945312.0625-8.957032-2.496093-18.230469-4.269531-27.742188-5.339843-.960937-.109376-1.839844.5-2.136718 1.417968-.871094 2.691406-2.515626 5.183594-4.953126 7.125-5.332031 4.246094-13.050781 4.304688-18.441406.132813-2.789062-2.152344-4.5625-5.023438-5.363281-8.089844-.242187-.933594-1.078125-1.582031-2.039063-1.535156-18.171874.925781-36.859374 4.15625-55.601562 9.636719-14.753906 4.316406-29.539062 10.027343-44.132812 17.09375-1.082032.523437-1.273438 1.949218-.421876 2.796874l.019532.019532c6.019531 6.019531 5.851562 15.886718-.503906 21.695312-5.746094 5.25-14.816407 5.140625-20.449219-.230468-2.261719-2.15625-3.6875-4.839844-4.296875-7.664063-.246094-1.152344-1.5625-1.71875-2.5625-1.097656-21.320313 13.191406-41.890625 29.367187-60.957032 48.433593-75.097656 75.09375-105.488281 173.515626-84.457031 249.363282 1.847657 6.65625 2.585938 13.535156 2.175781 20.359375 15.828126 15.585937 33.671876 29.128906 53.113282 40.195312 2.265625.371094 4.515625.859375 6.742187 1.476563 75.847657 21.03125 174.269531-9.359375 249.363281-84.457032 52.386719-52.386718 83.011719-116.125 89.605469-175.632812 2.855469-25.742188 1.214844-50.699219-5.113281-73.597656zm-307.511719 137.933594c-5.859375 5.855468-15.355469 5.855468-21.214843 0-5.859376-5.859376-5.859376-15.355469 0-21.214844 5.859374-5.859375 15.355468-5.859375 21.214843 0 5.855469 5.859375 5.855469 15.355468 0 21.214844zm21.210938-70.710938c-5.855469 5.855469-15.355469 5.855469-21.210938 0-5.859375-5.859375-5.859375-15.355469 0-21.214844 5.855469-5.855468 15.355469-5.855468 21.210938 0 5.859375 5.859375 5.859375 15.355469 0 21.214844zm91.925781 0c-5.859375 5.855469-15.355469 5.855469-21.214844 0-5.855468-5.859375-5.855468-15.355469 0-21.214844 5.859375-5.855468 15.355469-5.855468 21.214844 0 5.855469 5.859375 5.855469 15.355469 0 21.214844zm42.425781-84.855469c-5.859375 5.859375-15.355469 5.859375-21.214843 0-5.855469-5.855469-5.855469-15.355469 0-21.210937 5.859374-5.859375 15.355468-5.859375 21.214843 0 5.855469 5.855468 5.855469 15.355468 0 21.210937zm56.566407 42.425781c-5.855469 5.859376-15.351563 5.859376-21.210938 0-5.859375-5.855468-5.859375-15.351562 0-21.210937s15.355469-5.859375 21.210938 0c5.859374 5.859375 5.859374 15.355469 0 21.210937zm0 0" fill="#fded32"/></svg>