<svg viewBox="0 0 512 512.00075" xmlns="http://www.w3.org/2000/svg"><path d="m512 256c0 141.386719-114.613281 256-256 256-141.382812 0-256-114.613281-256-256 0-141.382812 114.617188-256 256-256 141.386719 0 256 114.617188 256 256zm0 0" fill="#84deea"/><path d="m81.375 430.625c-31.242188-31.242188-31.242188-81.894531 0-113.136719l233.347656-233.34375 113.136719 113.136719-233.347656 233.34375c-31.242188 31.242188-81.894531 31.242188-113.136719 0zm0 0" fill="#e43950"/><path d="m105.417969 341.53125 233.34375-233.347656-24.042969-24.039063-233.34375 233.34375c-26.808594 26.808594-30.589844 67.90625-11.382812 98.773438 0-.003907-.003907-.003907-.003907-.003907-3.855469.121094-7.6875 1.117188-11.164062 3.011719 10.21875 12.332031 21.574219 23.6875 33.90625 33.910157 1.894531-3.480469 2.894531-7.3125 3.015625-11.167969-.363282-.222657-.714844-.457031-1.074219-.6875-19.933594-30.972657-16.363281-72.6875 10.746094-99.792969zm0 0" fill="#c92e43"/><path d="m321.792969 204.351562-14.144531-14.144531c-27.335938-27.335937-27.335938-71.65625 0-98.992187l14.144531-14.144532c27.335937-27.335937 71.65625-27.335937 98.996093 0l14.140626 14.144532c27.335937 27.335937 27.335937 71.65625 0 98.992187l-14.140626 14.144531c-27.339843 27.335938-71.660156 27.335938-98.996093 0zm0 0" fill="#fd3d96"/><path d="m434.929688 190.207031-14.140626 14.144531c-26.523437 26.519532-69.03125 27.308594-96.503906 2.367188-24.941406-27.476562-24.15625-69.984375 2.363282-96.503906l14.144531-14.144532c26.519531-26.519531 69.03125-27.308593 96.503906-2.367187 24.941406 27.476563 24.15625 69.984375-2.367187 96.503906zm0 0" fill="#fd5ca6"/><path d="m328.15625 154.148438c5.859375 5.855468 5.859375 15.351562 0 21.210937s-15.355469 5.859375-21.210938 0c-5.859374-5.859375-5.859374-15.355469 0-21.210937 5.855469-5.859376 15.351563-5.859376 21.210938 0zm60.105469 17.675781c-7.8125-7.808594-20.476563-7.808594-28.285157 0-7.8125 7.808593-7.8125 20.472656 0 28.285156 7.8125 7.808594 20.472657 7.808594 28.285157 0 7.808593-7.8125 7.808593-20.476563 0-28.285156zm0 0" fill="#fda2cd"/><path d="m350.078125 161.925781c-31.242187-31.242187-31.242187-81.894531 0-113.136719l21.210937-21.214843 113.136719 113.136719-21.210937 21.214843c-31.242188 31.242188-81.894532 31.242188-113.136719 0zm0 0" fill="#e43950"/><path d="m336.554688 143.914062c-16.738282-30.394531-12.246094-69.359374 13.523437-95.125l21.210937-21.214843 24.042969 24.042969-35.355469 35.355468c-15.71875 15.714844-23.519531 36.34375-23.421874 56.941406zm0 0" fill="#c92e43"/><path d="m378.359375 147.78125-14.140625-14.140625c-27.335938-27.335937-27.335938-71.65625 0-98.996094l14.140625-14.140625c27.339844-27.335937 71.660156-27.335937 98.996094 0l14.140625 14.140625c27.339844 27.339844 27.339844 71.660157 0 98.996094l-14.140625 14.140625c-27.335938 27.339844-71.65625 27.339844-98.996094 0zm0 0" fill="#fd5ca6"/><path d="m380.851562 150.148438c-.84375-.765626-1.675781-1.550782-2.488281-2.367188l-14.144531-14.140625c-27.335938-27.335937-27.335938-71.660156 0-98.996094l14.144531-14.140625c27.335938-27.339844 71.65625-27.339844 98.992188 0l14.144531 14.140625c.8125.816407 1.597656 1.644531 2.367188 2.488281-27.476563-24.9375-69.984376-24.152343-96.507813 2.367188l-14.140625 14.144531c-26.523438 26.523438-27.308594 69.03125-2.367188 96.503907zm0 0" fill="#fd3d96"/><path d="m441.292969 62.222656c-9.761719 9.761719-25.589844 9.761719-35.355469 0-9.761719-9.761718-9.761719-25.59375 0-35.355468 9.765625-9.761719 25.59375-9.761719 35.355469 0 9.761719 9.761718 9.761719 25.59375 0 35.355468zm-70.710938 28.285156c-5.859375 5.855469-5.859375 15.355469 0 21.210938 5.859375 5.859375 15.355469 5.859375 21.214844 0 5.855469-5.855469 5.855469-15.355469 0-21.210938-5.859375-5.859374-15.355469-5.859374-21.214844 0zm102.53125-3.535156c-7.8125-7.8125-20.472656-7.8125-28.285156 0-7.808594 7.808594-7.808594 20.472656 0 28.28125 7.8125 7.8125 20.476563 7.8125 28.285156 0 7.808594-7.808594 7.808594-20.472656 0-28.28125zm0 0" fill="#fda2cd"/></svg>