<svg viewBox="0 0 512 512.00029" xmlns="http://www.w3.org/2000/svg"><path d="m512 256c0 141.386719-114.613281 256-256 256s-256-114.613281-256-256c0-141.382812 114.613281-256 256-256s256 114.617188 256 256zm0 0" fill="#84deea"/><path d="m511.679688 190.855469c-2.765626 7.34375-6.863282 13.890625-12.359376 19.386719-5.496093 5.492187-12.039062 9.589843-19.382812 12.359374-1.855469.699219-3.953125.222657-5.355469-1.179687l-.402343-.40625-35.921876 35.921875-220.386718 252.234375c-111.523438-16.65625-199.527344-105.242187-215.320313-217.042969l251.316407-219.582031 36.019531-36.019531c-.835938-1.320313-1.046875-2.96875-.484375-4.464844 2.765625-7.34375 6.863281-13.886719 12.359375-19.382812 5.496093-5.496094 12.042969-9.59375 19.382812-12.363282 1.855469-.695312 3.953125-.222656 5.355469 1.183594l184.003906 184c1.402344 1.402344 1.875 3.5 1.175782 5.355469zm0 0" fill="#925b44"/><path d="m511.679688 190.855469c-2.765626 7.34375-6.863282 13.886719-12.359376 19.382812-5.496093 5.496094-12.039062 9.59375-19.382812 12.359375-1.855469.699219-3.953125.226563-5.355469-1.175781l-166.640625-166.644531c-1.402344-1.398438-1.878906-3.5-1.179687-5.351563 2.765625-7.34375 6.867187-13.890625 12.359375-19.386719 5.496094-5.492187 12.042968-9.589843 19.386718-12.359374 1.855469-.699219 3.953126-.222657 5.351563 1.179687l166.644531 166.640625c1.402344 1.402344 1.875 3.5 1.175782 5.355469zm-230.703126-103.175781-47.890624 47.894531-164.0625 143.34375c-40.375 35.273437-45.886719 96.230469-12.179688 137.921875 39.367188 48.691406 96.226562 82.652344 161.027344 92.332031l220.386718-252.238281 17.960938-17.957032-151.296875-151.296874c-6.609375-6.609376-17.332031-6.609376-23.945313 0zm0 0" fill="#a96a51"/><path d="m296.5 347.207031c-36.371094 36.371094-95.335938 36.371094-131.707031 0-36.371094-36.367187-36.371094-95.335937 0-131.707031 36.371093-36.367188 95.335937-36.367188 131.707031 0 36.371094 36.371094 36.371094 95.339844 0 131.707031zm0 0" fill="#f9eecf"/><path d="m332.417969 189.558594-24.175781 24.175781c1.132812 14.257813-4.230469 29.574219-15.886719 41.234375-11.148438 11.144531-25.640625 16.535156-39.347657 16l-10.050781 10.046875c5.839844-2.09375 12.214844-3.25 18.890625-3.25 16.546875 0 31.234375 7.078125 40.507813 18.03125h22.738281c3.894531 0 7.054688 3.160156 7.054688 7.054687 0 3.898438-3.160157 7.054688-7.054688 7.054688h-22.929688c-9.28125 10.824219-23.878906 17.808594-40.316406 17.808594-18.492187 0-34.660156-8.839844-43.546875-22.042969l-22.792969 22.792969c5.839844-2.09375 12.210938-3.25 18.890626-3.25 16.546874 0 31.234374 7.082031 40.503906 18.03125h22.738281c3.898437 0 7.054687 3.160156 7.054687 7.054687 0 3.898438-3.15625 7.054688-7.054687 7.054688h-22.925781c-7.351563 8.574219-18.046875 14.722656-30.335938 16.917969-21.707031-1.457032-42.996094-10.476563-59.585937-27.0625-16.589844-16.589844-25.609375-37.882813-27.0625-59.585938 2.191406-12.292969 8.339843-22.984375 16.914062-30.335938v-22.929687c0-3.894531 3.15625-7.054687 7.054688-7.054687 3.894531 0 7.054687 3.160156 7.054687 7.054687v22.738281c10.949219 9.273438 18.03125 23.957032 18.03125 40.507813 0 6.675781-1.15625 13.050781-3.25 18.890625l22.792969-22.796875c-13.203125-8.882813-22.042969-25.054688-22.042969-43.546875 0-16.433594 6.984375-31.03125 17.808594-40.316406v-22.925782c0-3.898437 3.160156-7.054687 7.054688-7.054687 3.898437 0 7.054687 3.15625 7.054687 7.054687v22.734375c10.949219 9.273438 18.03125 23.960938 18.03125 40.507813 0 6.679687-1.15625 13.050781-3.25 18.890625l10.046875-10.046875c-.535156-13.710938 4.855469-28.203125 16-39.351563 11.660156-11.65625 26.976562-17.019531 41.230469-15.886719l24.179687-24.175781c2.753906-2.753906 7.222656-2.753906 9.976563 0 2.757812 2.753907 2.757812 7.222657 0 9.976563zm0 0" fill="#f5c02c"/><path d="m242.042969 363.992188c2.816406-.503907 5.550781-1.210938 8.195312-2.078126-6.941406 6.179688-15.875 10.574219-25.859375 12.359376-21.707031-1.457032-42.996094-10.476563-59.585937-27.0625-16.589844-16.589844-25.609375-37.882813-27.0625-59.585938 1.78125-9.988281 6.175781-18.917969 12.359375-25.863281-.871094 2.648437-1.574219 5.378906-2.078125 8.199219 1.578125 23.550781 11.367187 46.660156 29.367187 64.660156 18.003906 18.003906 41.109375 27.789062 64.664063 29.371094zm-36.171875-70.625c-8.195313-17.824219-11.425782-44.933594-7.496094-74.46875.292969-2.1875.621094-4.351563.976562-6.488282-9.238281 9.292969-15.066406 22.746094-15.066406 37.742188 0 18.273437 8.640625 34.265625 21.585938 43.214844zm63.539062 20.550781c-19.050781 0-50.660156-7.628907-50.660156-7.628907 8.96875 12.855469 24.902344 21.425782 43.097656 21.425782 15.945313 0 30.140625-6.585938 39.453125-16.859375-9.828125 1.96875-20.59375 3.0625-31.890625 3.0625zm28.855469-110.160157c-14.140625-1.945312-31.035156 5.691407-41.230469 15.886719-10.890625 10.890625-16.566406 24.792969-16 39.347657 22.964844-32.492188 49.4375-50.199219 57.230469-55.234376zm0 0" fill="#ecb700"/></svg>