<svg viewBox="0 0 512.00027 512" xmlns="http://www.w3.org/2000/svg"><path d="m512 256c0 141.386719-114.613281 256-256 256-20.683594 0-40.785156-2.46875-60.050781-7.101562-30.128907-25.730469-66.304688-44.589844-106.097657-54.15625-54.984374-46.953126-89.851562-116.769532-89.851562-194.742188 0-141.386719 114.613281-256 256-256s256 114.613281 256 256zm0 0" fill="#e31e7f"/><path d="m493.109375 218.714844c-17.886719-4.148438-36.523437-6.34375-55.671875-6.34375-100.070312-.003906-186.277344 59.980468-224.609375 145.90625-13.625 30.535156-21.210937 64.347656-21.210937 99.910156 0 15.988281 1.554687 31.609375 4.472656 46.746094-40.03125-9.601563-76.402344-28.597656-106.652344-54.539063-14.71875-22.515625-25.851562-47.585937-32.570312-74.410156-4.800782-19.175781-7.359376-39.246094-7.359376-59.910156 0-135.890625 109.925782-245.816407 245.816407-245.816407 92.269531 0 172.652343 50.847657 214.691406 126.042969 6.496094 11.617188-3.941406 25.417969-16.90625 22.414063zm0 0" fill="#f3d373"/><path d="m509.796875 211.589844c-26.4375-31.621094-60.160156-57.089844-98.199219-73.460938-12.652344-5.445312-26.742187 3.898438-26.742187 17.671875v62.238281c-9.996094 2.183594-19.761719 4.992188-29.261719 8.355469v16.644531c0 7.179688-3.847656 13.792969-10.058594 17.390626-13.324218 7.71875-25.972656 16.46875-37.84375 26.140624l1.625 6.386719c1.714844 6.742188-.355468 13.886719-5.414062 18.671875-4.460938 4.21875-8.804688 8.5625-13.023438 13.023438-4.785156 5.058594-11.929687 7.128906-18.675781 5.414062l-6.382813-1.625c-9.667968 11.875-18.421874 24.519532-26.136718 37.84375-3.597656 6.214844-10.214844 10.058594-17.394532 10.058594h-16.640624c-2.675782 7.558594-5.007813 15.28125-6.941407 23.160156l-65.210937 8.179688c-12.796875 1.605468-20.359375 15.09375-15.148438 26.890625 8.707032 19.714843 19.886719 38.226562 33.078125 55.148437-22.585937-10.121094-43.4375-23.421875-61.984375-39.328125-14.65625-22.414062-25.75-47.367187-32.476562-74.054687h-2.839844c-10.773438 0-19.574219-8.503906-20.070312-19.269532-.207032-4.445312-.3125-8.914062-.3125-13.40625 0-24.859374 3.132812-48.972656 9.011718-71.980468-10.402344-3.234375-16.125-14.578125-12.324218-24.933594 9.023437-24.578125 20.910156-47.761719 35.222656-69.183594-6.828125-4.675781-9.019532-14.40625-3.765625-21.644531 20.414062-28.117187 45.167969-52.875 73.289062-73.289063 7.234375-5.253906 16.96875-3.0625 21.644531 3.765626 21.421876-14.3125 44.605469-26.199219 69.183594-35.222657 10.355469-3.800781 21.699219 1.921875 24.933594 12.324219 23.007812-5.878906 47.121094-9.011719 71.976562-9.011719 4.496094 0 8.964844.105469 13.410157.3125 10.765625.496094 19.269531 9.296875 19.269531 20.070313v2.835937c66.285156 16.710938 121.859375 60.339844 154.425781 118.589844 2.921875 5.234375 2.402344 10.90625-.222656 15.292969zm0 0" fill="#ecb700"/><path d="m266.800781 125.789062c-7.3125-28.75-40.203125-42.492187-65.730469-27.386718-10.214843 6.046875-20.089843 12.605468-29.601562 19.628906-2.265625 1.675781-5.503906.507812-6.199219-2.222656l-2.367187-9.308594c-.679688-2.675781-3.851563-3.925781-6.089844-2.3125-.015625.011719-.03125.023438-.046875.035156-28.121094 20.414063-52.878906 45.171875-73.292969 73.292969-.011718.015625-.023437.03125-.035156.046875-1.613281 2.238281-.363281 5.410156 2.3125 6.089844l53.695312 13.65625c6.746094 1.71875 13.890626-.355469 18.675782-5.410156 1.675781-1.773438 4.3125-4.4375 6.921875-7.0625 2.691406-2.707032 7.273437-.441407 6.761719 3.339843-2.078126 15.246094-5.449219 35.980469-8.8125 39.582031-6.148438 6.582032-16.140626 8.507813-26.125 5.035157l-46.53125-16.195313c-4.613282-1.609375-9.722657.253906-12.222657 4.449219-.109375.183594-.21875.367187-.324219.550781-15.1875 25.609375-1.605468 58.617188 27.25 65.957032l167.164063 42.511718c6.746094 1.71875 13.890625-.355468 18.675781-5.410156 4.21875-4.464844 8.5625-8.808594 13.027344-13.027344 5.054688-4.785156 7.125-11.929687 5.410156-18.671875zm-85.75 29.84375c-3.75 3.75-9.828125 3.75-13.578125 0s-3.75-9.828124 0-13.578124 9.828125-3.75 13.578125 0 3.75 9.828124 0 13.578124zm27.160157 40.738282c-3.75 3.75-9.828126 3.75-13.578126 0s-3.75-9.828125 0-13.578125 9.828126-3.75 13.578126 0 3.75 9.828125 0 13.578125zm13.578124-40.738282c-3.75 3.75-9.828124 3.75-13.578124 0s-3.75-9.828124 0-13.578124 9.828124-3.75 13.578124 0 3.75 9.828124 0 13.578124zm27.160157 40.738282c-3.75 3.75-9.832031 3.75-13.578125 0-3.75-3.75-3.75-9.828125 0-13.578125s9.828125-3.75 13.578125 0 3.75 9.828125 0 13.578125zm-144.691407 116.457031 145.675782 37.046875c-3.59375 5.347656-7.015625 10.820312-10.253906 16.410156-3.597657 6.214844-10.210938 10.058594-17.394532 10.058594h-127.8125c-15.375 0-29.023437-10.238281-32.910156-25.109375-.988281-3.777344-.8125-5.894531-.664062-7.550781.011718-.136719.023437-.273438.035156-.410156 1.921875-21.292969 22.605468-35.714844 43.324218-30.445313zm251.332032-69.789063c0 7.179688-3.84375 13.792969-10.054688 17.390626-5.59375 3.238281-11.0625 6.660156-16.410156 10.253906l-37.046875-145.667969c-5.289063-20.789063 9.253906-41.429687 30.617187-43.347656.511719-.042969 1.023438-.089844 1.535157-.132813.082031-.007812.164062-.015625.25-.019531 16.761719-1.359375 31.109375 11.921875 31.109375 28.738281zm0 0" fill="#f3d373"/></svg>