<svg viewBox="0 0 512 512" xmlns="http://www.w3.org/2000/svg"><path d="m512 256c0 141.386719-114.613281 256-256 256-7.503906 0-14.921875-.34375-22.261719-.972656-10.652343-123.621094-109.144531-222.113282-232.765625-232.765625-.628906-7.339844-.972656-14.757813-.972656-22.261719 0-141.386719 114.613281-256 256-256s256 114.613281 256 256zm0 0" fill="#2b6c7e"/><path d="m510.449219 220.558594-25.261719 24.0625-.019531-.019532-35.574219 35.574219-23.554688 31.339844c-7.476562 9.949219-15.117187 19.765625-22.902343 29.457031-50.121094 62.40625-106.546875 119.417969-168.351563 170.144532-124.394531-10.203126-223.589844-109.339844-233.886718-233.710938 50.726562-61.8125 107.738281-118.25 170.144531-168.378906 9.71875-7.808594 19.5625-15.472656 29.539062-22.96875l31.589844-23.742188 35.355469-35.351562 23.894531-25.390625c1.933594-2.054688 5.183594-2.101563 7.175781-.109375l10.972656 10.972656c3.523438 3.523438 5.15625 8.515625 4.390626 13.441406l-2.164063 13.949219c-.207031 1.335937.945313 2.488281 2.28125 2.28125l13.949219-2.164063c4.925781-.761718 9.917968.867188 13.441406 4.390626 3.523438 3.523437 5.152344 8.515624 4.390625 13.4375l-2.164063 13.949218c-.210937 1.339844.945313 2.492188 2.28125 2.285156l13.949219-2.164062c4.925781-.765625 9.917969.867188 13.4375 4.386719 3.523438 3.523437 5.15625 8.515625 4.390625 13.441406l-2.164062 13.949219c-.207032 1.335937.945312 2.488281 2.285156 2.28125l13.949219-2.164063c4.921875-.761719 9.914062.867188 13.4375 4.390625 3.523437 3.523438 5.152343 8.515625 4.390625 13.4375l-2.164063 13.949219c-.207031 1.339844.945313 2.492187 2.28125 2.285156l13.949219-2.164062c4.925781-.765625 9.917969.867187 13.441406 4.390625 3.523438 3.523437 5.152344 8.515625 4.390625 13.4375l-2.164062 13.949218c-.210938 1.339844.941406 2.492188 2.28125 2.28125l13.949219-2.164062c4.921874-.761719 9.914062.867188 13.4375 4.390625 3.523437 3.523437 5.15625 8.515625 4.390624 13.441406l-2.164062 13.949219c-.207031 1.335938.945312 2.488281 2.285156 2.28125l13.949219-2.164062c4.921875-.765626 9.914063.867187 13.4375 4.390624l9.578125 9.578126c1.992188 1.988281 1.953125 5.21875-.082031 7.160156zm0 0" fill="#fded32"/><path d="m457.589844 231.164062c-3.90625 3.90625-10.238282 3.90625-14.144532 0l-157.652343-157.652343c-3.90625-3.90625-10.238281-3.90625-14.140625 0-3.90625 3.90625-3.90625 10.238281 0 14.140625l157.652344 157.65625c3.90625 3.90625 3.90625 10.238281 0 14.140625-3.90625 3.90625-10.238282 3.90625-14.140626 0l-159.589843-159.589844c-3.523438-3.519531-9.097657-3.914063-13.082031-.921875l-16.574219 12.457031c-16.34375 12.28125-32.332031 24.992188-47.976563 38.097657-62.210937 52.113281-118.785156 110.621093-168.78125 174.554687-4.136718-15.039063-6.9375-30.628906-8.261718-46.640625 50.726562-61.8125 107.738281-118.25 170.144531-168.378906 9.71875-7.808594 19.5625-15.472656 29.539062-22.96875l31.589844-23.742188 35.355469-35.355468 23.894531-25.386719c1.933594-2.054688 5.183594-2.101563 7.175781-.109375l10.972656 10.972656c3.523438 3.523438 5.15625 8.515625 4.390626 13.4375l-.742188 4.796875-13.707031 14.5625c-3.703125 3.9375-3.609375 10.101563.210937 13.925781l157.867188 157.863282c3.902344 3.90625 3.902344 10.238281 0 14.140624zm0 0" fill="#e8ce00"/><path d="m273.800781 365.574219c-44.910156 44.910156-109.808593 52.824219-144.957031 17.679687-35.148438-35.148437-27.234375-100.046875 17.675781-144.957031 44.910157-44.910156 109.8125-52.824219 144.957031-17.679687 35.148438 35.148437 27.234376 100.046874-17.675781 144.957031zm0 0" fill="#bb7c63"/><path d="m276.925781 250.648438c-24.28125 12.625-42.417969 33.878906-51.074219 59.839843-13.132812 39.402344-43.0625 70.070313-82.121093 84.167969-5.382813-3.101562-10.378907-6.894531-14.886719-11.402344-3.609375-3.609375-6.753906-7.535156-9.460938-11.714844l14.082032-5.070312c30.40625-10.945312 53.707031-34.808594 63.925781-65.464844 11.132813-33.398437 34.460937-60.734375 65.695313-76.972656l20.148437-10.480469c2.894531 2.125 5.652344 4.476563 8.242187 7.066407 4.859376 4.859374 8.894532 10.292968 12.125 16.160156zm0 0" fill="#925b44"/></svg>