<svg viewBox="0 0 512 512" xmlns="http://www.w3.org/2000/svg"><path d="m512 256c0 105.78125-64.160156 196.566406-155.683594 235.589844-54.5625-148.917969-190.476562-258.234375-353.527344-273.417969 18.285157-123.445313 124.679688-218.171875 253.210938-218.171875 141.386719 0 256 114.613281 256 256zm0 0" fill="#925b44"/><path d="m462.503906 50v133.234375c0 4.480469-.75 8.925781-2.222656 13.15625l-38.683594 111.09375c-.585937 1.691406-2.042968 2.902344-3.796875 3.269531-15.875 3.316406-27.800781 17.386719-27.800781 34.246094 0 8.511719 3.042969 16.3125 8.09375 22.378906 1.144531 1.371094 1.527344 3.222656.941406 4.910156l-41.324218 118.691407c-31.179688 13.511719-65.566407 21.019531-101.710938 21.019531-107.941406 0-200.269531-66.808594-237.914062-161.324219l245.851562-114.933593 116.0625-54.253907v-131.488281zm0 0" fill="#fdf7bd"/><path d="m459.570312 62.816406-100.699218 215.40625c-1.011719 2.167969-3.410156 3.28125-5.738282 2.726563-2.570312-.609375-5.25-.9375-8.003906-.949219-18.941406-.066406-34.714844 15.292969-35.121094 34.230469-.253906 11.804687 5.34375 22.308593 14.085938 28.832031 1.917969 1.429688 2.601562 3.984375 1.589844 6.152344l-76.0625 162.703125c-138.433594-3.382813-249.621094-116.664063-249.621094-255.917969 0-12.980469.976562-25.734375 2.839844-38.199219l137.304687-64.1875c1.691407-.789062 3.691407-.683593 5.234375.363281 5.59375 3.800782 12.347656 6.023438 19.621094 6.023438 18.070312 0 32.933594-13.699219 34.792969-31.277344.203125-1.921875 1.34375-3.621094 3.097656-4.441406l216.796875-101.347656c25.402344-11.875 51.757812 14.484375 39.882812 39.882812zm0 0" fill="#fdf385"/><path d="m462.113281 45.390625c-5.527343-.894531-11.5-.226563-17.425781 2.542969l-161.929688 75.699218c-1.273437.597657-1.550781 2.28125-.53125 3.253907 5.476563 5.210937 8.59375 12.878906 7.582032 21.238281-1.378906 11.367188-10.585938 20.460938-21.964844 21.71875-15.078125 1.664062-27.84375-10.097656-27.84375-24.84375 0-.46875.015625-.933594.039062-1.398438l-12.148437 5.679688-169.402344 79.191406c-.011719.007813-.023437.011719-.035156.019532-1.136719.53125-.925781 2.207031.296875 2.480468 18.671875 4.167969 32.421875 21.378906 31.171875 41.574219-1.25 20.167969-17.75 36.425781-37.933594 37.402344-6.460937.316406-12.605469-.90625-18.101562-3.332031-3.570313-1.574219-7.503907 1.277343-7.039063 5.15625 6.261719 52.222656 28.238282 99.613281 61.074219 137.300781-53.867187-46.929688-87.921875-116.019531-87.921875-193.074219 0-12.980469.976562-25.734375 2.839844-38.199219l137.304687-64.1875c1.691407-.789062 3.691407-.683593 5.234375.363281 5.59375 3.800782 12.347656 6.023438 19.621094 6.023438 18.070312 0 32.933594-13.699219 34.792969-31.277344.203125-1.921875 1.34375-3.621094 3.097656-4.441406l216.796875-101.347656c19.476562-9.105469 39.492188 4.273437 42.425781 22.457031zm-272.113281 294.609375c-22.089844 0-40 17.910156-40 40s17.910156 40 40 40 40-17.910156 40-40-17.910156-40-40-40zm10-85c0-13.808594-11.191406-25-25-25s-25 11.191406-25 25 11.191406 25 25 25 25-11.191406 25-25zm155-135c-19.328125 0-35 15.671875-35 35s15.671875 35 35 35 35-15.671875 35-35-15.671875-35-35-35zm0 0" fill="#fde803"/></svg>