<svg viewBox="0 0 512 512.00025" xmlns="http://www.w3.org/2000/svg"><path d="m512 256c0 141.386719-114.613281 256-256 256-1.957031 0-3.910156-.03125-5.859375-.074219-3.070313-136.730469-113.335937-246.996093-250.0664062-250.066406-.0429688-1.949219-.0742188-3.902344-.0742188-5.859375 0-141.382812 114.613281-256 256-256s256 114.617188 256 256zm0 0" fill="#fded32"/><path d="m466.601562 308.601562-173.246093 173.246094c-12.695313 12.695313-27.050781 22.71875-42.363281 30.089844-1.363282-.027344-2.722657-.0625-4.082032-.109375-177.703125-6.203125-264.824218-219.835937-143.828125-350.136719 24.128907-25.980468 42.992188-45.808594 42.992188-45.808594l63.902343-63.90625c60.53125-60.53125 158.671876-60.53125 219.203126 0l37.421874 37.421876c60.53125 60.53125 60.53125 158.671874 0 219.203124zm0 0" fill="#e43950"/><path d="m477.054688 297.054688c-3.257813 3.980468-6.742188 7.835937-10.453126 11.546874l-9 9-75.878906-75.878906 20-20zm-167.054688-20.175782 94.164062 94.160156 36.875-36.875-94.160156-94.164062zm-18.277344 54.84375 75.878906 75.878906 20-20-75.878906-75.878906zm0 0" fill="#ef7280"/><path d="m328.324219 446.878906-34.96875 34.96875c-12.695313 12.695313-27.050781 22.71875-42.363281 30.089844-40.773438-.785156-79.207032-11.109375-113.175782-28.824219-1.050781-.550781 37.464844-14.492187 55.703125-25.304687 16.140625 6.652344 33.105469 11.703125 50.707031 14.949218 30.394532 5.609376 61.785157-3.71875 83.714844-25.5.128906-.125.253906-.25.382813-.378906zm0 0" fill="#c92e43"/><path d="m422.601562 264.601562-173.246093 173.246094c-30.710938 30.710938-71.105469 45.832032-111.355469 45.378906-80.605469-41.945312-136.078125-125.511718-137.9375-222.21875 7.371094-15.3125 17.394531-29.667968 30.089844-42.363281l173.246094-173.246093c60.53125-60.53125 158.671874-60.53125 219.203124 0s60.53125 158.671874 0 219.203124zm0 0" fill="#95bcc9"/><path d="m22.535156 320.742188c8.730469 47.652343 30.65625 90.6875 61.847656 125.1875-50.660156-45.800782-82.914062-111.582032-84.320312-184.921876 7.371094-15.3125 17.394531-29.667968 30.089844-42.363281l173.246094-173.246093c60.53125-60.53125 158.671874-60.53125 219.203124 0 3.085938 3.085937 6.003907 6.273437 8.777344 9.542968-60.902344-51.585937-152.214844-48.667968-209.660156 8.777344l-173.246094 173.246094c-.128906.128906-.253906.253906-.378906.382812-21.703125 21.847656-31.109375 53.105469-25.558594 83.394532zm359.957032-239.988282c19.832031 19.832032 30.753906 46.199219 30.753906 74.246094s-10.921875 54.414062-30.753906 74.246094l-162.078126 162.082031c-19.832031 19.832031-46.199218 30.75-74.246093 30.75s-54.414063-10.921875-74.246094-30.753906-30.753906-46.199219-30.753906-74.246094c0-28.042969 10.921875-54.414063 30.753906-74.246094l162.078125-162.078125c19.832031-19.832031 46.199219-30.753906 74.246094-30.753906s54.414062 10.921875 74.246094 30.753906zm10.753906 74.246094c0-22.703125-8.839844-44.046875-24.894532-60.105469-16.054687-16.054687-37.402343-24.894531-60.105468-24.894531s-44.046875 8.839844-60.101563 24.894531l-162.082031 162.082031c-16.054688 16.054688-24.894531 37.398438-24.894531 60.101563 0 22.707031 8.839843 44.050781 24.894531 60.105469 16.054688 16.054687 37.402344 24.894531 60.105469 24.894531s44.046875-8.839844 60.101562-24.894531l162.082031-162.082032c16.054688-16.050781 24.894532-37.398437 24.894532-60.101562zm-46.109375-38.890625c10.390625 10.386719 16.109375 24.199219 16.109375 38.890625s-5.71875 28.503906-16.105469 38.890625l-162.082031 162.078125c-10.386719 10.390625-24.199219 16.109375-38.890625 16.109375-14.691407 0-28.503907-5.71875-38.890625-16.105469-10.390625-10.390625-16.109375-24.203125-16.109375-38.894531s5.71875-28.5 16.109375-38.890625l162.078125-162.078125c10.386719-10.386719 24.199219-16.109375 38.890625-16.109375s28.503906 5.722656 38.890625 16.109375zm-3.890625 38.890625c0-9.347656-3.640625-18.140625-10.25-24.75s-15.398438-10.25-24.75-10.25c-9.347656 0-18.136719 3.640625-24.75 10.253906l-162.078125 162.078125c-6.609375 6.609375-10.25 15.398438-10.25 24.75 0 9.347657 3.640625 18.136719 10.25 24.75 6.609375 6.609375 15.398437 10.25 24.75 10.25 9.347656 0 18.136719-3.644531 24.75-10.253906l162.078125-162.078125c6.609375-6.613281 10.25-15.402344 10.25-24.75zm0 0" fill="#7daebd"/><path d="m385.59375 77.464844c-13.683594-13.679688-35.867188-13.679688-49.550781 0l-59.464844 59.464844c-13.523437 13.523437-13.679687 35.347656-.472656 49.066406 13.625 14.152344 36.695312 13.816406 50.582031-.074219l58.90625-58.902344c13.683594-13.683593 13.683594-35.871093 0-49.554687zm-69.375 99.105468c-8.207031 8.210938-21.519531 8.210938-29.730469 0-8.210937-8.210937-8.210937-21.519531 0-29.730468 8.210938-8.210938 21.523438-8.210938 29.730469 0 8.210938 8.210937 8.210938 21.519531 0 29.730468zm59.464844-59.460937c-8.210938 8.207031-21.523438 8.207031-29.734375 0-8.207031-8.210937-8.207031-21.523437 0-29.730469 8.210937-8.210937 21.523437-8.210937 29.734375 0 8.207031 8.207032 8.207031 21.519532 0 29.730469zm0 0" fill="#328091"/></svg>