<svg viewBox="0 0 512 512" xmlns="http://www.w3.org/2000/svg"><path d="m512 256c0 141.386719-114.613281 256-256 256s-256-114.613281-256-256 114.613281-256 256-256 256 114.613281 256 256zm0 0" fill="#84deea"/><path d="m451.0625 136.527344c-1.792969 4.96875-7.28125 7.542968-12.25 5.746094-24.773438-8.953126-50.105469-11.269532-71.335938-6.523438-12.941406 2.894531-23.214843 8.195312-30.148437 15.367188-6.976563 15.472656-15.644531 30.210937-25.945313 43.910156l-22.109374 29.394531-38.238282-28.757813 22.109375-29.394531c19.433594-25.835937 33.136719-55.351562 40.390625-86.582031 2.1875-9.417969 1.503906-19.167969-1.027344-28.5-.574218-2.117188-.539062-4.164062.203126-6.023438 3.117187-7.839843 17.550781-9.457031 32.238281-3.617187 14.6875 5.84375 24.066406 16.933594 20.949219 24.773437-.183594.457032-.402344.890626-.660157 1.308594-5.132812 8.285156-9.058593 17.234375-10.671875 26.847656-1.546875 9.203126-3.652344 18.285157-6.289062 27.203126 4.667968-1.867188 9.683594-3.410157 15.027344-4.605469 24.734374-5.53125 53.863281-2.972657 82.015624 7.199219 4.964844 1.804687 7.539063 7.285156 5.742188 12.253906zm0 0" fill="#86523e"/><path d="m368.386719 430.601562c-20.339844 20.59375-54.039063 45.1875-114.144531 74.773438-6.796876 3.347656-13.769532 6.257812-21.316407 5.582031-111.550781-9.96875-202.488281-91.476562-226.621093-198.324219-2.035157-9.019531-1.285157-18.441406 2-27.082031 25.933593-68.222656 62.960937-138.113281 81.128906-161.550781 34.9375-45.070312 101.972656-52.667969 149.824218-17.007812 18.960938 14.132812 32.261719 32.929687 39.398438 53.359374 6.695312 19.164063 24.25 32.367188 44.523438 33.484376 21.605468 1.191406 43.480468 8.589843 62.195312 23.050781 101.847656 78.710937 11.121094 185.253906-16.988281 213.714843zm0 0" fill="#e43950"/><path d="m184.878906 470.738281c45.3125 37.109375 68.34375 35.132813 68.34375 35.132813-5.796875 3.007812-12.140625 5.773437-18.859375 5.207031-114.269531-9.5625-207.183593-94.171875-229.324219-204.390625-1.054687-5.242188-7.839843-93.585938 81.257813-186.453125 32.285156-33.65625 81.753906-44.882813 125.210937-28.449219-27.136718 14.957032-51.625 35.757813-71.457031 62.128906-75.109375 99.867188-51.851562 237.648438 44.828125 316.824219zm0 0" fill="#c92e43"/><path d="m400 305c0 30.375-15.671875 55-35 55s-35-24.625-35-55 15.671875-55 35-55 35 24.625 35 55zm0 0" fill="#ea5569"/><path d="m440.941406 168.128906c-25.773437-2.214844-47.472656-15.679687-59.292968-34.300781-3.785157-5.957031-3.121094-13.667969 1.625-18.894531 14.820312-16.328125 38.503906-25.894532 64.273437-23.675782 30.171875 2.589844 33.113281 30.984376 64.453125 44.257813-13.578125 21.65625-40.886719 35.207031-71.058594 32.613281zm0 0" fill="#08b772"/><path d="m451.0625 136.527344c-1.792969 4.96875-7.28125 7.542968-12.25 5.746094-19.492188-7.046876-39.328125-9.960938-57.242188-8.582032-3.6875-5.9375-3.007812-13.570312 1.703126-18.757812.164062-.183594.339843-.363282.507812-.542969 19.617188-.941406 40.835938 2.402344 61.535156 9.882813 4.96875 1.804687 7.542969 7.285156 5.746094 12.253906zm0 0" fill="#06995f"/></svg>