<svg viewBox="0 0 512.00025 512.00025" xmlns="http://www.w3.org/2000/svg"><path d="m512 256c0 129.214844-95.742188 236.054688-220.152344 253.488281 1.644532-11.714843 2.511719-23.679687 2.511719-35.847656 0-141.386719-114.613281-256-256-256-12.167969 0-24.132813.867187-35.847656 2.511719 17.433593-124.410156 124.273437-220.152344 253.488281-220.152344 141.386719 0 256 114.617188 256 256zm0 0" fill="#08b772"/><path d="m506.140625 295.285156-109.1875 109.191406-105 105c-11.75 1.648438-23.75 2.523438-35.953125 2.523438-66.195312 0-126.179688-25.640625-171.625-66.875-51.617188-46.835938-84.375-113.9375-84.375-189.125 0-12.203125.875-24.203125 2.523438-35.953125l105-105 109.191406-109.1875c7.808594-7.8125 20.472656-7.8125 28.28125 0l261.144531 261.144531c7.8125 7.808594 7.8125 20.472656 0 28.28125zm0 0" fill="#e1ebf0"/><path d="m245 5.859375 24 24c-7.8125-7.8125-20.476562-7.8125-28.285156 0l-240.316406 240.316406c-.257813-4.695312-.398438-9.417969-.398438-14.175781 0-12.203125.875-24.203125 2.523438-35.953125l105-105 109.191406-109.1875c7.808594-7.8125 20.472656-7.8125 28.285156 0zm0 0" fill="#b4d2d7"/><path d="m.230469 266.515625 222.792969-222.792969c3.90625-3.902344 10.238281-3.902344 14.140624 0l231.113282 231.113282c3.902344 3.902343 3.902344 10.234374 0 14.140624l-222.792969 222.792969c-133.015625-5.378906-239.875-112.234375-245.253906-245.253906zm0 0" fill="#9bb9c3"/><path d="m86.886719 173.117188 6.625 8.683593 183.019531 298.917969-31.046875 31.050781c-1.855469-.074219-3.703125-.175781-5.546875-.292969-.730469-.042968-1.460938-.097656-2.191406-.148437-1.066406-.078125-2.132813-.160156-3.199219-.246094-.921875-.078125-1.84375-.15625-2.765625-.246093-.832031-.078126-1.664062-.164063-2.496094-.25-1.023437-.105469-2.050781-.207032-3.070312-.328126l-175.433594-286.523437-6.324219-8.191406zm98.992187-98.996094-79.652344 79.652344 6.867188 9.078124 182.78125 298.523438 79.652344-79.652344-183.160156-299.148437zm0 0" fill="#b4d2d7"/><path d="m378.617188 337.507812c-16.230469 16.230469-37.332032 24.609376-58.597657 25.179688-.574219 21.269531-8.953125 42.367188-25.183593 58.601562-16.230469 16.230469-37.328126 24.609376-58.597657 25.183594-.574219 21.269532-8.953125 42.363282-25.183593 58.597656-.859376.859376-1.742188 1.683594-2.628907 2.5-104.101562-19.570312-185.972656-102.132812-204.484375-206.605468.488282-.511719.960938-1.035156 1.464844-1.542969 16.234375-16.230469 37.332031-24.609375 58.597656-25.179687.574219-21.269532 8.953125-42.367188 25.183594-58.601563 16.234375-16.230469 37.332031-24.609375 58.597656-25.183594.574219-21.269531 8.953125-42.363281 25.183594-58.597656 33.652344-33.652344 88.214844-33.652344 121.867188 0 16.230468 16.234375 24.609374 37.332031 25.183593 58.597656 21.265625.574219 42.363281 8.953125 58.597657 25.183594 33.652343 33.652344 33.652343 88.214844 0 121.867187zm0 0" fill="#e43950"/><path d="m378.300781 215.328125c-.003906-.003906-.011719-.007813-.015625-.011719-10.441406-3.277344-21.558594-4.472656-32.730468-3.628906 2.679687 1.792969 4.445312 4.847656 4.445312 8.3125 0 5.523438-4.476562 10-10 10s-10-4.476562-10-10c0-2.414062.855469-4.628906 2.28125-6.359375-16.117188 3.5625-31.847656 11.398437-45.339844 23.402344l-18.910156-30.882813c15.503906-10.953125 33.804688-16.191406 51.988281-15.699218-.578125-21.40625-9.058593-42.640626-25.5-58.914063-.007812-.003906-.011719-.007813-.015625-.011719-7.964844-2.5-16.320312-3.789062-24.792968-3.890625.179687.753907.289062 1.542969.289062 2.355469 0 5.523438-4.476562 10-10 10s-10-4.476562-10-10c0-.15625.015625-.304688.023438-.457031-8.121094 1.652343-16.160157 4.390625-23.882813 8.195312l-16.863281-27.539062c-13.289063 3.949219-25.8125 11.167969-36.304688 21.660156-16.234375 16.234375-24.613281 37.332031-25.183594 58.601563-5.550781.148437-11.085937.84375-16.53125 2.054687l16.296876 26.617187c-7.996094 3.394532-15.714844 7.90625-22.910157 13.515626l-18.484375-30.191407c-6.054687 3.589844-11.765625 7.980469-16.96875 13.183594-10.347656 10.347656-17.488281 22.675781-21.464844 35.761719l26.957032 44.03125c-4.992188.351562-9.996094 1.097656-14.960938 2.261718.175782.738282.277344 1.511719.277344 2.304688 0 5.523438-4.476562 10-10 10-4.027344 0-7.492188-2.386719-9.074219-5.820312-10.722656 4.949218-20.882812 11.917968-29.863281 20.898437-6.015625 6.015625-11.125 12.5625-15.335938 19.449219 11.339844 30.769531 28.421876 58.75 49.945313 82.660156 3.210937-16.113281 11.023437-31.492188 23.515625-43.980469 12.691406-12.691406 28.351562-20.558593 44.742188-23.671875l16.03125 26.179688c-12.648438 4.980468-24.679688 12.710937-35.117188 23.144531-.550781.554687-1.089844 1.117187-1.625 1.679687 3.941406 1.339844 6.78125 5.066407 6.78125 9.460938 0 5.523438-4.476562 10-10 10-3.605469 0-6.757812-1.914062-8.515625-4.777344-5.273437 7.976563-9.300781 16.464844-12.050781 25.167969 33.328125 28.585937 74.089844 48.738281 118.992187 57.179687.574219-.429687 7.917969-7.539062 9.679688-10.472656l.046875-.058594c4.273437-5.484374 18.050781-49.335937 18.085937-50.566406 1.167969-.03125 17.882813-2.355468 17.882813-2.355468 22.660156-4.367188 39.816406-21.933594 40.714844-22.828126 16.230468-16.234374 24.609374-37.332031 25.183593-58.601562 13.820313.875 33.125-7.234375 36.972657-9.378906.546874-.304688.847656-.472656.847656-.472656 7.476562-3.933594 14.488281-9.042969 20.777344-15.328126 33.757812-33.757812 33.652343-88.554687-.316407-122.179687zm-98.300781-55.328125c5.523438 0 10 4.476562 10 10s-4.476562 10-10 10-10-4.476562-10-10 4.476562-10 10-10zm-240 190c-5.523438 0-10-4.476562-10-10s4.476562-10 10-10 10 4.476562 10 10-4.476562 10-10 10zm60 10c-5.523438 0-10-4.476562-10-10s4.476562-10 10-10 10 4.476562 10 10-4.476562 10-10 10zm50 80c-5.523438 0-10-4.476562-10-10s4.476562-10 10-10 10 4.476562 10 10-4.476562 10-10 10zm20 50c-5.523438 0-10-4.476562-10-10s4.476562-10 10-10 10 4.476562 10 10-4.476562 10-10 10zm28.625-164.921875c-3.738281 3.742187-7.125 7.691406-10.164062 11.796875l-19.964844-32.605469c1.421875-1.652343 2.90625-3.277343 4.472656-4.847656 4.933594-4.929687 10.324219-9.125 16.023438-12.609375l18.550781 30.300781c-3.074219 2.449219-6.058594 5.105469-8.917969 7.964844zm161.375-15.078125c-5.523438 0-10-4.476562-10-10s4.476562-10 10-10 10 4.476562 10 10-4.476562 10-10 10zm10-50c-5.523438 0-10-4.476562-10-10s4.476562-10 10-10 10 4.476562 10 10-4.476562 10-10 10zm0 0" fill="#ef7280"/><path d="m194.9375 211.984375c-15.628906-1.785156-32.015625.628906-47.382812 7.148437l41.4375 67.679688c13.203124-8.070312 28.101562-12.269531 43.074218-12.585938 2.296875-.046874 4.125-1.980468 3.945313-4.269531-.003907-.0625-.007813-.121093-.015625-.179687-1.207032-15.101563 2.410156-30.261719 11.109375-42.660156 2.828125-4.03125 6.042969-7.871094 9.648437-11.476563 3.539063-3.539063 7.316406-6.699219 11.269532-9.496094l-41.886719-68.40625c-9.855469 4.859375-19.191407 11.457031-27.511719 19.777344-9.710938 9.710937-17.074219 20.800781-22.066406 32.488281-.914063 2.136719.210937 4.578125 2.402344 5.355469 6.472656 2.292969 12.726562 5.386719 18.609374 9.273437 3.542969 2.339844 1.582032 7.832032-2.632812 7.351563zm23.835938-45.496094c5.523437 0 10 4.476563 10 10 0 5.523438-4.476563 10-10 10-5.523438 0-10-4.476562-10-10 0-5.523437 4.476562-10 10-10zm-14.875 70.550781c0 5.519532-4.476563 10-10 10-5.523438 0-10-4.480468-10-10 0-5.523437 4.476562-10 10-10 5.523437 0 10 4.476563 10 10zm-51.667969 116.695313c-.003907-.058594-.007813-.117187-.015625-.175781-1.207032-15.097656 2.40625-30.261719 11.109375-42.660156 1.597656-2.273438 3.332031-4.480469 5.171875-6.628907l-43.851563-71.621093c-3.390625 2.640624-6.667969 5.519531-9.800781 8.648437-9.710938 9.710937-17.074219 20.800781-22.066406 32.488281-.914063 2.136719.210937 4.582032 2.402344 5.355469 6.472656 2.292969 12.726562 5.386719 18.609374 9.273437 3.539063 2.339844 1.582032 7.835938-2.636718 7.351563-5.421875-.617187-10.941406-.722656-16.472656-.335937l39.25 64.109374c4.742187-.902343 9.542968-1.425781 14.355468-1.527343 2.296875-.050781 4.125-1.984375 3.945313-4.277344zm-33.558594-73.558594c-5.523437 0-10-4.476562-10-10 0-5.523437 4.476563-10 10-10s10 4.476563 10 10c0 5.523438-4.476563 10-10 10zm57.878906 77.414063c-.914062 2.140625.210938 4.582031 2.402344 5.355468 6.46875 2.289063 12.71875 5.367188 18.597656 9.246094 3.546875 2.335938 1.585938 7.835938-2.632812 7.355469-14.8125-1.6875-30.300781.394531-44.957031 6.167969l68.175781 111.34375c11.589843-14.867188 17.617187-32.675782 18.097656-50.589844v.003906c6.007813-.164062 12.011719-.949218 17.886719-2.355468l-65.664063-107.246094c-4.863281 6.558594-8.839843 13.523437-11.90625 20.71875zm32.222657 66.203125c5.523437 0 10 4.476562 10 10 0 5.523437-4.476563 10-10 10-5.523438 0-10-4.476563-10-10 0-5.523438 4.476562-10 10-10zm78.164062-186.753907c-1.539062 1.367188-3.050781 2.78125-4.53125 4.257813-9.714844 9.71875-17.085938 20.816406-22.074219 32.511719-.914062 2.140625.210938 4.582031 2.402344 5.355468 6.46875 2.289063 12.71875 5.367188 18.601563 9.246094 3.542968 2.335938 1.585937 7.835938-2.632813 7.355469-24.09375-2.746094-49.980469 4.476563-71.15625 21.347656l71.457031 116.703125c5.636719-3.460937 10.949219-7.644531 15.832032-12.527344 16.230468-16.234374 24.609374-37.332031 25.183593-58.601562 12.523438.625 27.082031-3.519531 37.820313-9.851562zm-42.390625 107.089844c-5.523437 0-10-4.476562-10-10 0-5.523437 4.476563-10 10-10 5.519531 0 10 4.476563 10 10 0 5.523438-4.480469 10-10 10zm33.570313 33.574219c-5.523438 0-10-4.480469-10-10 0-5.523437 4.476562-10 10-10 5.523437 0 10 4.476563 10 10 0 5.519531-4.476563 10-10 10zm20-45.960937c-5.523438 0-10-4.476563-10-10 0-5.523438 4.476562-10 10-10 5.523437 0 10 4.476562 10 10 0 5.523437-4.476563 10-10 10zm0 0" fill="#f48996"/></svg>