<svg viewBox="0 0 512 512" xmlns="http://www.w3.org/2000/svg"><path d="m512 256c0 141.386719-114.613281 256-256 256-8.554688 0-17.003906-.429688-25.34375-1.246094-11.90625-121.152344-108.257812-217.503906-229.410156-229.410156-.816406-8.339844-1.246094-16.789062-1.246094-25.34375 0-141.386719 114.613281-256 256-256s256 114.613281 256 256zm0 0" fill="#e43950"/><path d="m475.109375 128.816406c-13.667969 13.667969-35.832031 13.667969-49.5 0-.117187-.121094-.222656-.246094-.339844-.367187l-120.21875 120.222656-41.722656-41.71875 120.222656-120.222656c-.121093-.117188-.246093-.222657-.367187-.339844-13.667969-13.667969-13.667969-35.828125 0-49.496094 13.667968-13.667969 35.832031-13.667969 49.5 0 9.003906 9.003907 12.070312 21.691407 9.214844 33.210938 11.515624-2.859375 24.207031.210937 33.210937 9.214843 13.667969 13.667969 13.667969 35.828126 0 49.496094zm0 0" fill="#f7e6b0"/><path d="m425.269531 128.449219-120.222656 120.222656-25.101563-25.101563 124.464844-124.464843c1.5-1.503907 3.496094-2.417969 5.613282-2.539063.035156-.003906.066406-.003906.097656-.007812 2.996094-.179688 5.503906 2.265625 5.3125 5.261718-.605469 9.535157 2.675781 19.265626 9.835937 26.628907zm49.839844-49.128907c-9.003906-9.003906-21.695313-12.074218-33.210937-9.214843 2.855468-11.519531-.210938-24.207031-9.214844-33.210938-11.210938-11.210937-28.132813-13.21875-41.398438-6.042969-7.179687 13.265626-5.167968 30.1875 6.039063 41.398438 6.378906 6.378906 14.605469 9.777344 22.957031 10.203125 4.96875.25 9.015625 4.296875 9.269531 9.269531.421875 8.347656 3.824219 16.574219 10.203125 22.953125 11.207032 11.210938 28.128906 13.21875 41.394532 6.039063 7.179687-13.265625 5.167968-30.1875-6.039063-41.394532zm0 0" fill="#f9eecf"/><path d="m243.882812 153.578125c6.347657-1.308594 12.917969-2.007813 19.652344-2.007813 53.511719 0 96.894532 43.382813 96.894532 96.894532 0 6.734375-.699219 13.308594-2.007813 19.65625-7.132813-4.378906-13.992187-9.738282-20.328125-16.074219-14.828125-14.828125-24.378906-32.484375-28.265625-49.871094-17.390625-3.890625-35.042969-13.441406-49.871094-28.265625-6.339843-6.339844-11.699219-13.199218-16.074219-20.332031zm0 0" fill="#fdd78d"/><path d="m280.070312 189.859375c-7.054687-4.355469-13.839843-9.675781-20.113281-15.949219-6.339843-6.339844-11.699219-13.199218-16.074219-20.332031 6.347657-1.308594 12.917969-2.007813 19.652344-2.007813 36.007813 0 67.429688 19.644532 84.128906 48.796876-14.171874-8.121094-30.589843-12.761719-48.09375-12.761719-6.734374 0-13.308593.699219-19.65625 2.007812.050782.082031.105469.164063.15625.246094zm0 0" fill="#fdcb6b"/><path d="m337.207031 238.402344c7.046875 7.046875 14.878907 12.621094 22.992188 16.679687-2.355469 34.933594-23.222657 64.789063-52.878907 79.839844 2.195313 10.796875 3.347657 21.976563 3.347657 33.421875 0 60.257812-31.914063 113.050781-79.753907 142.425781-56.921874-5.574219-112.335937-30.152343-155.933593-73.75-43.597657-43.597656-68.179688-99.011719-73.75-155.933593 29.375-47.84375 82.167969-79.753907 142.421875-79.753907 11.449218 0 22.625 1.152344 33.425781 3.347657 15.050781-29.65625 44.90625-50.523438 79.839844-52.878907 4.058593 8.113281 9.632812 15.945313 16.679687 22.992188 12.066406 12.070312 26.441406 19.847656 40.597656 23.011719 3.167969 14.15625 10.941407 28.527343 23.011719 40.597656zm0 0" fill="#fdbf43"/><path d="m159.738281 301.351562c3.90625 3.902344 3.90625 10.234376 0 14.140626s-10.238281 3.90625-14.140625 0c-3.90625-3.90625-3.90625-10.238282 0-14.140626 3.902344-3.90625 10.234375-3.90625 14.140625 0zm106.066407-63.640624c-3.90625 3.90625-3.90625 10.238281 0 14.140624 3.90625 3.90625 10.234374 3.90625 14.140624 0 3.90625-3.902343 3.90625-10.234374 0-14.140624s-10.234374-3.90625-14.140624 0zm-197.332032 140.761718c-3.90625 3.90625-3.90625 10.238282 0 14.140625 3.90625 3.90625 10.238282 3.90625 14.140625 0 3.90625-3.902343 3.90625-10.234375 0-14.140625-3.902343-3.90625-10.234375-3.90625-14.140625 0zm6.414063-62.980468c-3.90625 3.90625-3.90625 10.238281 0 14.140624 3.902343 3.90625 10.234375 3.90625 14.140625 0 3.90625-3.902343 3.90625-10.234374 0-14.140624s-10.238282-3.90625-14.140625 0zm191.84375-119.136719c-.046875-.058594-.089844-.117188-.132813-.175781-.902344-1.15625-.429687-2.847657.957032-3.332032 7.199218-2.503906 14.78125-4.191406 22.636718-4.933594-5.824218-3.570312-11.421875-7.949218-16.59375-13.121093-7.046875-7.046875-12.621094-14.878907-16.679687-22.992188-34.933594 2.355469-64.789063 23.222657-79.839844 52.878907-10.796875-2.195313-21.976563-3.347657-33.421875-3.351563-60.253906 0-113.050781 31.914063-142.425781 79.757813 2.472656 25.257812 8.703125 50.21875 18.664062 73.984374 10.976563-35.679687 33.589844-66.261718 63.402344-87.324218 1.199219-.847656 2.820313-.203125 3.25 1.199218.464844 1.519532 1.300781 2.945313 2.507813 4.144532 3.765624 3.742187 10.03125 3.828125 13.898437.1875 4.121094-3.886719 4.195313-10.378906.21875-14.355469-.011719-.007813-.019531-.015625-.027344-.023437-1.050781-1.042969-.835937-2.777344.484375-3.453126 9.304688-4.757812 19.117188-8.671874 29.332032-11.632812 1.265624-.367188 2.566406.515625 2.675781 1.824219.226562 2.664062 1.511719 5.25 3.867187 7.078125 3.660156 2.839844 8.953125 2.722656 12.5-.253906 3.335938-2.804688 4.34375-7.203126 3.03125-10.972657-.425781-1.226562.4375-2.539062 1.722656-2.714843 7.453126-1.015626 15.058594-1.546876 22.789063-1.546876 6.972656 0 13.847656.425782 20.597656 1.257813 6.148438.757813 12.203125-1.3125 16.539063-5.515625.644531-.625 1.597656-.75 2.410156-.367188 3.710938 1.761719 8.28125 1.109376 11.351562-1.960937 3.90625-3.90625 3.90625-10.238281 0-14.144531-.023437-.023438-.054687-.046875-.082031-.074219 4.691407-4.769531 9.875-9.054687 15.46875-12.773437 1.234375-.820313 2.863281-.148438 3.242188 1.285156.433593 1.644531 1.292969 3.203125 2.585937 4.496094 3.835938 3.835937 10.019532 3.902343 13.9375.199218 3.640625-3.441406 4.117188-9.25 1.132813-13.273437zm-71.636719 69.640625c-3.90625 3.902344-3.90625 10.234375 0 14.140625 3.902344 3.90625 10.234375 3.90625 14.140625 0s3.90625-10.238281 0-14.140625c-3.90625-3.90625-10.234375-3.90625-14.140625 0zm0 0" fill="#fda800"/></svg>