<svg viewBox="0 0 512 512" xmlns="http://www.w3.org/2000/svg"><path d="m512 256c0 141.386719-114.613281 256-256 256-8.921875 0-17.734375-.460938-26.417969-1.351562-12.335937-120.285157-107.945312-215.894532-228.230469-228.230469-.890624-8.683594-1.351562-17.496094-1.351562-26.417969 0-141.386719 114.613281-256 256-256s256 114.613281 256 256zm0 0" fill="#e43950"/><path d="m445.488281 120.253906c-32.328125 32.324219-71.039062 48.605469-96.886719 43.144532-5.460937-25.847657 10.820313-64.558594 43.144532-96.886719 32.328125-32.328125 71.039062-48.605469 96.886718-43.144531 5.460938 25.847656-10.816406 64.558593-43.144531 96.886718zm0 0" fill="#00f1a5"/><path d="m500.746094 104.0625c-1.414063 26.382812-27.160156 59.558594-66.75 82.417969-39.59375 22.859375-81.199219 28.566406-104.75 16.601562.527344-9.882812 4.472656-20.71875 11.28125-31.609375-10.890625 6.808594-21.726563 10.753906-31.609375 11.285156-11.964844-23.554687-6.257813-65.160156 16.601562-104.753906 22.859375-39.589844 56.039063-65.335937 82.417969-66.75 11.960938 23.554688 6.257812 65.160156-16.601562 104.75-2.53125 4.382813-5.191407 8.585938-7.949219 12.613282 4.027343-2.761719 8.226562-5.421876 12.609375-7.953126 39.589844-22.859374 81.199218-28.5625 104.75-16.601562zm0 0" fill="#08e092"/><path d="m388.59375 177.148438c-32.328125 32.324218-71.039062 48.605468-96.886719 43.144531-5.460937-25.847657 10.816407-64.558594 43.144531-96.886719 32.328126-32.324219 71.039063-48.605469 96.886719-43.144531 5.460938 25.847656-10.820312 64.558593-43.144531 96.886719zm0 0" fill="#04d481"/><path d="m482.277344 170.449219c-8.195313 25.113281-41.648438 50.5-85.808594 62.332031-44.15625 11.832031-85.824219 6.574219-105.476562-11.078125.117187-.359375.257812-.722656.386718-1.082031-.359375.128906-.722656.269531-1.082031.386718-17.652344-19.652343-22.910156-61.320312-11.078125-105.476562 11.832031-44.160156 37.21875-77.613281 62.332031-85.808594 17.652344 19.652344 22.910157 61.320313 11.078125 105.476563-3.9375 14.695312-9.382812 28.195312-15.8125 39.984375 11.789063-6.429688 25.289063-11.875 39.984375-15.8125 44.15625-11.832032 85.824219-6.574219 105.476563 11.078125zm0 0" fill="#08b772"/><path d="m333.070312 178.929688c67.5625 67.5625 50.59375 194.0625-37.894531 282.550781-20.171875 20.175781-42.324219 36.617187-65.300781 49.203125-120.523438-12.214844-216.34375-108.035156-228.558594-228.558594 12.585938-22.976562 29.027344-45.128906 49.203125-65.300781 88.488281-88.488281 214.992188-105.457031 282.550781-37.894531zm0 0" fill="#f5c02c"/><path d="m333.070312 178.929688c67.5625 67.5625 50.59375 194.0625-37.894531 282.550781-20.171875 20.175781-42.324219 36.617187-65.300781 49.203125-93.523438-9.480469-172.15625-69.3125-208.410156-151.953125 14.933594-35.441407 38.246094-70.488281 69.359375-101.601563 72.664062-72.664062 166.796875-102.832031 237.304687-82.875 1.675782 1.515625 3.332032 3.0625 4.941406 4.675782zm0 0" fill="#f3d373"/><path d="m244.753906 476.234375c-1.082031 3.695313-1.082031 7.621094 0 11.316406l3.527344 12.046875c.003906.015625.003906.027344.007812.042969-1.125.734375-2.25 1.460937-3.382812 2.175781l-11.148438-3.265625c-3.695312-1.082031-7.625-1.082031-11.316406 0l-12.046875 3.527344c-1.515625.441406-2.925781-.964844-2.480469-2.480469l3.527344-12.046875c1.082032-3.695312 1.082032-7.621093 0-11.316406l-3.527344-12.046875c-.445312-1.515625.964844-2.925781 2.480469-2.480469l12.046875 3.527344c3.691406 1.082031 7.621094 1.085937 11.316406 0l12.042969-3.527344c1.519531-.445312 2.925781.964844 2.480469 2.480469zm-95.46875-75.632813-3.527344-12.046874c-1.082031-3.691407-1.082031-7.621094 0-11.316407l3.527344-12.042969c.445313-1.519531-.960937-2.925781-2.480468-2.480468l-12.042969 3.527344c-3.695313 1.082031-7.625 1.082031-11.316407 0l-12.046874-3.527344c-1.515626-.445313-2.925782.964844-2.480469 2.480468l3.527343 12.046876c1.082032 3.691406 1.082032 7.621093 0 11.316406l-3.527343 12.042968c-.445313 1.519532.964843 2.925782 2.480469 2.484376l12.046874-3.53125c3.691407-1.082032 7.621094-1.082032 11.316407 0l12.042969 3.53125c1.519531.441406 2.925781-.96875 2.480468-2.484376zm49.5 14.089844c.445313-1.515625-.964844-2.925781-2.480468-2.480468l-12.046876 3.527343c-3.695312 1.082031-7.621093 1.082031-11.316406 0l-12.046875-3.527343c-1.515625-.445313-2.925781.964843-2.480469 2.480468l3.527344 12.046875c1.082032 3.695313 1.082032 7.621094 0 11.316407l-3.527344 12.042968c-.441406 1.519532.964844 2.925782 2.480469 2.480469l12.046875-3.527344c3.695313-1.082031 7.621094-1.082031 11.316406 0l12.046876 3.527344c1.515624.445313 2.925781-.964844 2.480468-2.480469l-3.527344-12.042968c-1.082031-3.695313-1.082031-7.625 0-11.316407zm-83.835937-213.148437 12.046875-3.527344c3.691406-1.082031 7.621094-1.082031 11.316406 0l12.042969 3.527344c1.519531.445312 2.925781-.964844 2.484375-2.480469l-3.53125-12.046875c-1.082032-3.695313-1.082032-7.621094 0-11.316406l3.53125-12.046875c.441406-1.515625-.96875-2.921875-2.484375-2.480469l-12.042969 3.527344c-3.695312 1.082031-7.625 1.082031-11.316406 0l-3.628906-1.0625c-3.160157 1.601562-6.304688 3.277343-9.433594 5.023437l2.0625 7.039063c1.082031 3.695312 1.082031 7.621093 0 11.316406l-3.527344 12.046875c-.445312 1.515625.964844 2.925781 2.480469 2.480469zm23.28125 85.453125c-1.519531-.441406-2.925781.964844-2.484375 2.484375l3.53125 12.042969c1.082031 3.695312 1.082031 7.625 0 11.316406l-3.53125 12.046875c-.441406 1.515625.964844 2.925781 2.484375 2.480469l12.042969-3.527344c3.695312-1.082032 7.625-1.082032 11.316406 0l12.046875 3.527344c1.515625.445312 2.925781-.964844 2.480469-2.480469l-3.527344-12.046875c-1.082032-3.691406-1.082032-7.621094 0-11.316406l3.527344-12.042969c.445312-1.519531-.964844-2.925781-2.480469-2.484375l-12.046875 3.53125c-3.691406 1.082031-7.621094 1.082031-11.316406 0zm-51.367188-10.992188c-.445312 1.515625.964844 2.925782 2.480469 2.480469l12.046875-3.53125c3.695313-1.082031 7.621094-1.082031 11.316406 0l12.046875 3.53125c1.515625.441406 2.925782-.964844 2.480469-2.480469l-3.53125-12.046875c-1.082031-3.695312-1.082031-7.621093 0-11.316406l3.53125-12.046875c.445313-1.515625-.964844-2.925781-2.480469-2.480469l-12.046875 3.527344c-3.695312 1.082031-7.621093 1.082031-11.316406 0l-12.046875-3.527344c-1.515625-.445312-2.925781.964844-2.480469 2.480469l3.527344 12.046875c1.082031 3.695313 1.082031 7.621094 0 11.316406zm210.066407 161.175782-12.046876-3.527344c-1.519531-.445313-2.925781.960937-2.480468 2.480468l3.527344 12.046876c1.082031 3.691406 1.082031 7.621093 0 11.3125l-3.53125 12.046874c-.183594.640626-.03125 1.25.308593 1.71875 4.230469-3.773437 8.390625-7.695312 12.46875-11.777343 8.855469-8.855469 16.984375-18.097657 24.394531-27.621094l-11.328124 3.320313c-3.691407 1.082031-7.621094 1.082031-11.3125 0zm51.417968-78.019532-12.046875 3.527344c-3.695312 1.082031-7.621093 1.082031-11.316406 0l-12.046875-3.527344c-1.515625-.441406-2.925781.964844-2.480469 2.480469l3.527344 12.046875c1.082031 3.695312 1.082031 7.621094 0 11.316406l-3.527344 12.046875c-.445312 1.515625.964844 2.925781 2.480469 2.480469l12.046875-3.527344c3.695313-1.082031 7.621094-1.082031 11.316406 0l7.039063 2.058594c1.746094-3.128906 3.421875-6.273438 5.023437-9.429688l-1.0625-3.628906c-1.082031-3.695312-1.082031-7.621094 0-11.316406l3.527344-12.046875c.445313-1.515625-.964844-2.921875-2.480469-2.480469zm-134.402344-98.992187c-1.519531-.445313-2.925781.964843-2.480468 2.480469l3.527344 12.046874c1.082031 3.691407 1.082031 7.621094 0 11.316407l-3.527344 12.042969c-.445313 1.519531.960937 2.925781 2.480468 2.480468l12.042969-3.527344c3.695313-1.082031 7.625-1.082031 11.316407 0l12.046874 3.527344c1.515626.445313 2.925782-.960937 2.480469-2.480468l-3.527343-12.042969c-1.082032-3.695313-1.082032-7.625 0-11.316407l3.527343-12.046874c.445313-1.515626-.964843-2.925782-2.480469-2.480469l-12.046874 3.527343c-3.691407 1.082032-7.621094 1.082032-11.316407 0zm77.578126-11.488281c1.082031 3.695312 1.082031 7.621093 0 11.316406l-3.527344 12.042968c-.445313 1.519532.964844 2.929688 2.480468 2.484376l12.046876-3.527344c3.695312-1.082032 7.621093-1.082032 11.316406 0l12.046875 3.527344c1.515625.445312 2.925781-.964844 2.480469-2.484376l-3.527344-12.042968c-1.082032-3.695313-1.082032-7.621094 0-11.316406l3.527344-12.046876c.445312-1.515624-.964844-2.925781-2.480469-2.480468l-12.046875 3.527344c-3.695313 1.082031-7.621094 1.082031-11.316406 0l-12.046876-3.527344c-1.515624-.445313-2.925781.964844-2.480468 2.480468zm7.324218 101.355468c1.519532.445313 2.925782-.964844 2.480469-2.480468l-3.527344-12.046876c-1.082031-3.695312-1.082031-7.621093 0-11.316406l3.527344-12.046875c.445313-1.515625-.964844-2.925781-2.480469-2.480469l-12.042968 3.527344c-3.695313 1.082032-7.625 1.082032-11.316407 0l-12.046875-3.527344c-1.515625-.441406-2.925781.964844-2.480468 2.480469l3.527343 12.046875c1.082031 3.695313 1.082031 7.621094 0 11.316406l-3.527343 12.046876c-.445313 1.515624.964843 2.925781 2.480468 2.480468l12.042969-3.527344c3.695313-1.082031 7.625-1.082031 11.316406 0zm-61.371094-128.511718c-.445312 1.515624.964844 2.925781 2.480469 2.480468l12.046875-3.527344c3.695313-1.082031 7.621094-1.082031 11.316406 0l12.042969 3.527344c1.519531.445313 2.925781-.964844 2.484375-2.480468l-3.527344-12.046876c-1.082031-3.695312-1.082031-7.621093 0-11.316406l3.527344-12.046875c.441406-1.515625-.964844-2.925781-2.484375-2.480469l-12.042969 3.527344c-3.695312 1.082032-7.625 1.082032-11.316406 0l-12.046875-3.527344c-1.515625-.445312-2.925781.964844-2.480469 2.480469l3.527344 12.046875c1.082032 3.691406 1.082032 7.621094 0 11.316406zm-75.511718 27.035156c-.445313 1.515625.964844 2.925781 2.480468 2.480468l12.046876-3.527343c3.695312-1.082031 7.621093-1.082031 11.316406 0l12.046875 3.527343c1.515625.445313 2.925781-.964843 2.480469-2.480468l-3.527344-12.046875c-1.082032-3.695313-1.085938-7.621094 0-11.316407l3.527344-12.046874c.441406-1.515626-.964844-2.925782-2.480469-2.480469l-12.046875 3.527343c-3.695313 1.082032-7.621094 1.082032-11.316406 0l-12.046876-3.527343c-1.515624-.441407-2.925781.964843-2.480468 2.480469l3.527344 12.046874c1.082031 3.695313 1.082031 7.621094 0 11.316407zm22.519531 228.035156-12.046875 3.527344c-3.695312 1.082031-7.621094 1.082031-11.316406 0l-12.046875-3.527344c-1.515625-.445312-2.925781.964844-2.480469 2.480469l2.855469 9.753906c10.859375 4.976563 22.128906 9.210937 33.742187 12.648437-.820312-3.410156-.746094-6.980468.246094-10.355468l3.527344-12.046875c.445312-1.515625-.964844-2.925781-2.480469-2.480469zm-63.691406-37.347656-12.046875 3.527344c-3.695313 1.082031-7.621094 1.082031-11.316406 0l-12.042969-3.527344c-1.519531-.445313-2.925781.964844-2.484375 2.480468l1.152344 3.929688c11.851562 10.753906 24.71875 20.402344 38.4375 28.804688l-2.746094-9.371094c-1.082032-3.695313-1.082032-7.621094 0-11.316406l3.527344-12.046876c.445312-1.515624-.964844-2.925781-2.480469-2.480468zm153.09375-52c.445312-1.515625-.964844-2.925782-2.480469-2.480469l-12.046875 3.53125c-3.695313 1.082031-7.621094 1.082031-11.316406 0l-12.046875-3.53125c-1.515625-.441406-2.925782.964844-2.480469 2.480469l3.53125 12.046875c1.082031 3.695312 1.082031 7.621093 0 11.316406l-3.53125 12.046875c-.441406 1.519531.964844 2.925781 2.484375 2.480469l12.046875-3.527344c3.691406-1.082031 7.621094-1.082031 11.3125 0l12.046875 3.527344c1.519531.445312 2.925781-.964844 2.480469-2.480469l-3.527344-12.046875c-1.082031-3.695313-1.082031-7.621094 0-11.316406zm90.472656-99.046875c-3.695313 1.082031-7.621094 1.082031-11.316406 0l-12.046875-3.527344c-1.515625-.441406-2.925782.964844-2.480469 2.480469l3.527344 12.046875c1.082031 3.695312 1.082031 7.621093 0 11.316406l-3.527344 12.042969c-.445313 1.519531.964844 2.925781 2.480469 2.484375l12.046875-3.527344c3.695312-1.082031 7.621093-1.082031 11.316406 0l6.492187 1.898437c2.417969-12.894531 3.621094-25.679687 3.578126-38.164062zm-267.050781 65.386719c1.515625.445312 2.925781-.964844 2.480468-2.480469l-3.527343-12.046875c-1.082031-3.695313-1.082031-7.621094 0-11.316406l3.527343-12.042969c.445313-1.519531-.964843-2.925781-2.480468-2.480469l-12.046875 3.527344c-3.695313 1.082031-7.621094 1.082031-11.316407 0l-12.046874-3.527344c-1.515626-.445312-2.925782.960938-2.480469 2.480469l3.527343 12.042969c1.082032 3.695312 1.082032 7.625 0 11.316406l-3.527343 12.046875c-.441407 1.515625.964843 2.925781 2.480469 2.480469l12.046874-3.527344c3.695313-1.082032 7.621094-1.082032 11.316407 0zm92.128906-180.101563 12.046875-3.527344c3.695313-1.082031 7.621094-1.082031 11.316406 0l12.042969 3.527344c1.519531.445313 2.925781-.964844 2.484375-2.480469l-3.527344-12.046875c-1.082031-3.691406-1.082031-7.621093 0-11.316406l2.949219-10.070313c-12.484375-.042968-25.269531 1.160157-38.164062 3.578126l1.898437 6.492187c1.082031 3.695313 1.082031 7.625 0 11.316406l-3.527344 12.046875c-.445312 1.515625.964844 2.925782 2.480469 2.480469zm-148.976562 56.117187 12.046874-3.53125c3.691407-1.082031 7.621094-1.082031 11.3125 0l12.046876 3.53125c1.519531.441407 2.925781-.964843 2.480468-2.484374l-3.527344-12.042969c-1.082031-3.695313-1.082031-7.621094 0-11.316407l3.320313-11.328124c-9.523437 7.410156-18.765625 15.539062-27.621094 24.394531-4.082031 4.078125-8.003906 8.238281-11.777343 12.472656.46875.335937 1.078124.488281 1.71875.304687zm182.058593 146.652344c1.519531.441406 2.925781-.964844 2.484375-2.484375l-3.53125-12.042969c-1.082031-3.695312-1.082031-7.625 0-11.316406l3.53125-12.046875c.441406-1.515625-.964844-2.925781-2.484375-2.480469l-12.042969 3.527344c-3.695312 1.082032-7.625 1.082032-11.316406 0l-12.046875-3.527344c-1.515625-.445312-2.925781.964844-2.480469 2.480469l3.527344 12.046875c1.082032 3.691406 1.082032 7.621094 0 11.316406l-3.527344 12.042969c-.445312 1.515625.964844 2.925781 2.480469 2.480469l12.046875-3.527344c3.695313-1.082031 7.621094-1.082031 11.316406 0zm-172.226562-74.648437-3.527344-12.042969c-1.082031-3.695312-1.082031-7.621094 0-11.316406l3.527344-12.046875c.445312-1.515625-.964844-2.925781-2.480469-2.480469l-12.046875 3.527344c-3.695313 1.082031-7.621094 1.082031-11.316406 0l-12.046875-3.527344c-.015625-.003906-.03125 0-.042969-.003906-.738281 1.125-1.460937 2.25-2.175781 3.378906l3.265625 11.152344c1.082031 3.695312 1.082031 7.621094 0 11.316406l-3.527344 12.046875c-.445313 1.515625.964844 2.925781 2.480469 2.480469l12.046875-3.527344c3.695312-1.082031 7.621093-1.082031 11.316406 0l12.046875 3.527344c1.515625.441406 2.925781-.964844 2.480469-2.484375zm-14.886719 25.914062c.445312-1.519531-.964844-2.929687-2.480469-2.484375l-12.046875 3.527344c-3.375.992188-6.945312 1.066406-10.355468.246094 3.4375 11.613281 7.671874 22.882812 12.648437 33.742187l9.753906 2.855469c1.515625.445312 2.925781-.964844 2.480469-2.480469l-3.527344-12.046875c-1.082031-3.695312-1.082031-7.621094 0-11.316406zm37.347656 63.6875c.445313-1.515625-.964844-2.925781-2.480468-2.480469l-12.046876 3.527344c-3.695312 1.082032-7.621093 1.082032-11.316406 0l-9.371094-2.742187c8.398438 13.714843 18.050782 26.582031 28.800782 38.433593l3.929687 1.152344c1.519531.441406 2.925781-.964844 2.484375-2.480468l-3.53125-12.046876c-1.082031-3.691406-1.082031-7.621093 0-11.316406zm0 0" fill="#ecb700"/><path d="m224.847656 173.484375-12.046875-3.527344c-3.695312-1.082031-7.621093-1.082031-11.316406 0l-12.046875 3.527344c-1.515625.445313-2.925781-.964844-2.480469-2.480469l3.527344-12.046875c1.082031-3.691406 1.082031-7.621093 0-11.316406l-1.898437-6.492187c12.894531-2.417969 25.679687-3.621094 38.164062-3.578126l-2.949219 10.070313c-1.082031 3.695313-1.082031 7.625 0 11.316406l3.527344 12.046875c.445313 1.515625-.964844 2.925782-2.480469 2.480469zm-174.554687 92.714844c.445312-1.515625-.964844-2.925781-2.480469-2.480469l-12.046875 3.527344c-3.695313 1.082031-7.621094 1.082031-11.316406 0l-12.046875-3.527344c-.015625-.003906-.03125-.003906-.042969-.007812-.738281 1.125-1.460937 2.253906-2.175781 3.382812l3.265625 11.152344c1.082031 3.691406 1.082031 7.621094 0 11.316406l-3.527344 12.042969c-.445313 1.519531.964844 2.925781 2.480469 2.484375l12.046875-3.53125c3.695312-1.082032 7.621093-1.082032 11.316406 0l12.046875 3.53125c1.515625.441406 2.925781-.964844 2.480469-2.484375l-3.527344-12.042969c-1.082031-3.695312-1.082031-7.621094 0-11.316406zm24.527343-51.128907c-1.082031-3.691406-1.082031-7.621093 0-11.3125l3.320313-11.332031c-9.523437 7.414063-18.765625 15.539063-27.621094 24.398438-4.078125 4.078125-8.003906 8.238281-11.777343 12.46875.46875.339843 1.082031.492187 1.71875.308593l12.046874-3.53125c3.695313-1.082031 7.621094-1.082031 11.316407 0l12.042969 3.53125c1.519531.441407 2.929687-.964843 2.484374-2.484374zm14.523438 23.042969c-1.515625-.445312-2.925781.964844-2.480469 2.480469l3.527344 12.046875c.402344 1.367187.652344 2.761719.753906 4.167969 5.011719-4.996094 10.125-9.785156 15.324219-14.375-1.710938-.050782-3.417969-.304688-5.078125-.792969zm63.496094-74.460937c.441406-1.515625-.964844-2.925782-2.480469-2.480469l-12.046875 3.527344c-3.695312 1.082031-7.621094 1.082031-11.316406 0l-3.628906-1.0625c-3.15625 1.601562-6.304688 3.277343-9.433594 5.023437l2.0625 7.039063c1.082031 3.695312 1.082031 7.621093 0 11.316406l-3.527344 12.042969c-.445312 1.519531.964844 2.925781 2.480469 2.480468l12.046875-3.527343c3.695312-1.082031 7.621094-1.082031 11.316406 0l12.046875 3.527343c1.515625.445313 2.925781-.960937 2.480469-2.480468l-3.527344-12.042969c-1.082031-3.695313-1.082031-7.621094 0-11.316406zm-119.914063 161.382812-12.046875 3.527344c-3.375.988281-6.945312 1.0625-10.355468.246094 3.4375 11.613281 7.671874 22.878906 12.648437 33.742187h.007813c-.582032-1.269531-1.152344-2.542969-1.714844-3.824219 3.605468-8.550781 7.707031-17.078124 12.277344-25.539062l1.664062-5.671875c.445312-1.515625-.964844-2.925781-2.480469-2.480469zm0 0" fill="#cd9e00"/></svg>