<svg viewBox="0 0 512 512" xmlns="http://www.w3.org/2000/svg"><path d="m512 256c0 141.386719-114.613281 256-256 256-23.035156 0-45.355469-3.0625-66.589844-8.765625-23.605468-87.859375-92.785156-157.039063-180.644531-180.644531-5.703125-21.234375-8.765625-43.554688-8.765625-66.589844 0-141.386719 114.613281-256 256-256s256 114.613281 256 256zm0 0" fill="#e31e7f"/><path d="m468.675781 113.46875-4.308593 4.308594c-29.625 29.625-48.6875 68.167968-54.253907 109.691406l-4.085937 30.5c-2.914063 21.738281-12.894532 41.917969-28.402344 57.425781l-187.917969 187.917969c-88.101562-23.554688-157.464843-92.917969-181.019531-181.019531l108.902344-108.902344c31.542968-.390625 57.027344-25.875 57.417968-57.417969l21.597657-21.597656c15.507812-15.507812 35.6875-25.488281 57.425781-28.402344l30.5-4.085937c41.523438-5.566407 80.066406-24.628907 109.691406-54.253907l4.308594-4.308593c27.691406 18.597656 51.546875 42.453125 70.144531 70.144531zm0 0" fill="#b4d2d7"/><path d="m468.675781 113.46875-4.308593 4.308594c-29.625 29.625-48.6875 68.167968-54.253907 109.691406l-4.085937 30.5c-2.914063 21.738281-12.894532 41.917969-28.402344 57.425781l-21.296875 21.296875c-30.714844.921875-55.429687 25.636719-56.351563 56.351563l-110.269531 110.269531c-75.125-20.085938-136.632812-73.480469-167.722656-143.402344l200.078125-200.078125c15.507812-15.511719 35.6875-25.488281 57.425781-28.402343l30.5-4.089844c41.523438-5.5625 80.066407-24.625 109.6875-54.25l7.464844-7.460938c15.730469 14.148438 29.699219 30.214844 41.535156 47.839844zm0 0" fill="#e1ebf0"/><path d="m184.238281 164.433594 172.171875 172.175781-106.066406 106.066406-181.019531-181.019531 47.898437-47.894531zm0 0" fill="#f7e6b0"/><path d="m200.847656 181.046875 144.554688 144.554687-45.5625 67.578126-49.496094 49.496093-155.5625-155.566406zm0 0" fill="#fff5f5"/><path d="m175.390625 155.589844 79.175781 79.171875c-10.636718 11.066406-25.914062 14.832031-39.703125 11.257812-9.375-2.425781-19.300781-2.410156-28.320312 1.121094-20.351563 7.96875-44.671875 2.746094-59.820313-15.660156-4.402344-5.347657-7.558594-11.382813-9.5-17.71875zm55.734375 225.507812c-4.328125-4.804687-6.132812-11.28125-5.042969-17.65625 2.734375-16.019531-2.359375-33.117187-15.292969-45.125-19.007812-17.648437-48.855468-17.679687-67.898437-.0625-3.03125 2.800782-5.617187 5.890625-7.792969 9.175782l98.019532 98.019531c9.800781-13.082031 9.203124-31.691407-1.761719-44.09375-.078125-.089844-.152344-.171875-.230469-.257813zm69.007812-100.765625c-1.003906 2.90625-1.640624 5.980469-1.835937 9.167969-.007813.113281-.015625.226562-.019531.339844-.339844 6.457031-3.640625 12.316406-8.917969 16.054687-13.265625 9.390625-21.75 25.082031-21.097656 42.714844.75 20.164063 13.671875 37.421875 31.578125 44.570313l56.570312-56.570313zm0 0" fill="#235967"/><path d="m200.847656 181.046875-61.5625 61.5625c-4.609375-2.925781-8.863281-6.632813-12.566406-11.132813-4.398438-5.34375-7.554688-11.378906-9.5-17.714843l58.171875-58.171875zm0 0" fill="#174550"/><path d="m489.738281 108.527344-21.210937 21.210937c-3.90625 3.90625-10.238282 3.90625-14.140625 0l-72.125-72.125c-3.90625-3.902343-3.90625-10.234375 0-14.140625l21.210937-21.210937c3.90625-3.90625 10.238282-3.90625 14.140625 0l72.125 72.125c3.90625 3.902343 3.90625 10.234375 0 14.140625zm0 0" fill="#08b772"/><path d="m489.738281 108.527344-21.210937 21.210937c-3.90625 3.90625-10.238282 3.90625-14.140625 0l-50.914063-50.910156c-3.90625-3.90625-3.90625-10.238281 0-14.140625l21.214844-21.214844c3.902344-3.90625 10.234375-3.90625 14.140625 0l50.910156 50.914063c3.90625 3.902343 3.90625 10.234375 0 14.140625zm0 0" fill="#04d481"/></svg>