<svg viewBox="0 0 512 512" xmlns="http://www.w3.org/2000/svg"><path d="m512 256c0 141.386719-114.613281 256-256 256s-256-114.613281-256-256 114.613281-256 256-256 256 114.613281 256 256zm0 0" fill="#84deea"/><path d="m235.324219 440.722656-164.046875-164.046875c-7.808594-7.8125-7.808594-20.476562 0-28.285156l193.746094-193.746094c53.113281-53.113281 139.222656-53.113281 192.332031 0 53.113281 53.109375 53.113281 139.21875 0 192.332031l-193.746094 193.746094c-7.808594 7.808594-20.472656 7.808594-28.285156 0zm0 0" fill="#fdbfdc"/><path d="m385.238281 44.632812c-.277343 2.109376-1.214843 4.148438-2.835937 5.765626-3.902344 3.90625-10.234375 3.90625-14.140625 0-1.050781-1.050782-1.8125-2.285157-2.296875-3.59375-26.097656 4.839843-51.054688 17.347656-71.242188 37.535156l-193.746094 193.75c-7.8125 7.808594-7.8125 20.472656 0 28.28125l-29.699218-29.695313c-7.808594-7.8125-7.808594-20.476562 0-28.285156l193.746094-193.746094c53.113281-53.113281 139.222656-53.113281 192.332031 0 5.050781 5.046875 9.621093 10.398438 13.710937 15.988281-25.398437-18.578124-55.78125-27.238281-85.828125-26zm46.664063 26.980469c-3.90625 3.90625-3.90625 10.238281 0 14.140625 3.90625 3.90625 10.238281 3.90625 14.140625 0 3.90625-3.902344 3.90625-10.234375 0-14.140625-3.902344-3.90625-10.234375-3.90625-14.140625 0zm0 98.996094c-3.90625 3.902344-3.90625 10.234375 0 14.140625s10.238281 3.90625 14.140625 0c3.90625-3.90625 3.90625-10.238281 0-14.140625-3.90625-3.90625-10.234375-3.90625-14.140625 0zm14.140625-42.425781c-3.902344 3.902344-3.902344 10.234375 0 14.140625 3.90625 3.90625 10.238281 3.90625 14.144531 0 3.902344-3.90625 3.902344-10.238281 0-14.140625-3.90625-3.90625-10.238281-3.90625-14.144531 0zm-56.566407-42.429688c-3.90625 3.90625-3.90625 10.238282 0 14.144532 3.902344 3.902343 10.234376 3.902343 14.140626 0 3.90625-3.90625 3.90625-10.238282 0-14.144532-3.90625-3.902344-10.238282-3.902344-14.140626 0zm0 0" fill="#fda2cd"/><path d="m181.585938 287.988281 35.355468 35.355469-127.257812 127.257812c-12.691406-10.855468-24.3125-22.925781-34.671875-36.039062zm0 0" fill="#f5c02c"/><path d="m196.433594 302.835938 27.578125 27.578124-126.574219 126.574219c-10.226562-8.082031-19.816406-16.933593-28.695312-26.457031zm0 0" fill="#f3d373"/><path d="m463.015625 201.722656 14.847656 14.847656c2.734375 2.734376 2.734375 7.164063 0 9.898438l-214.253906 214.253906c-7.808594 7.808594-20.472656 7.808594-28.285156 0l-164.046875-164.046875c-7.808594-7.8125-7.808594-20.476562 0-28.285156l214.253906-214.253906c2.734375-2.734375 7.164062-2.734375 9.898438 0l103.945312 103.945312c7.808594 7.808594 7.808594 20.472657 0 28.285157l-24.75 24.746093c-9.648438 9.652344-9.761719 25.226563-.339844 35.011719 9.722656 10.097656 26.183594 9.859375 36.09375-.054688l24.351563-24.347656c7.808593-7.8125 20.472656-7.8125 28.285156 0zm0 0" fill="#a96a51"/><path d="m105.21875 310.613281-33.941406-33.9375c-7.808594-7.8125-7.808594-20.476562 0-28.285156l214.253906-214.253906c2.734375-2.734375 7.164062-2.734375 9.898438 0l28.992187 28.992187-219.203125 219.203125c-7.8125 7.808594-7.8125 20.472657 0 28.28125zm0 0" fill="#925b44"/></svg>