<svg viewBox="0 0 512 512" xmlns="http://www.w3.org/2000/svg"><path d="m498.742188 174.484375c8.59375 25.605469 13.257812 53.015625 13.257812 81.515625 0 141.386719-114.613281 256-256 256s-256-114.613281-256-256 114.613281-256 256-256c28.5 0 55.910156 4.664062 81.515625 13.257812 25.449219 75.8125 85.414063 135.777344 161.226563 161.226563zm0 0" fill="#b1529e"/><path d="m373.269531 379.96875c-4.070312.433594-6.960937-3.949219-4.875-7.472656 20.777344-35.117188 16.082031-81.132813-14.105469-111.320313-17.761718-17.761719-41.007812-26.691406-64.289062-26.808593 2.644531-3.554688 5.566406-6.964844 8.792969-10.191407 36.0625-36.0625 94.726562-35.753906 130.40625.925781 34.964843 35.945313 34.273437 94.007813-1.496094 129.152344-15.308594 15.042969-34.59375 23.609375-54.433594 25.714844zm0 0" fill="#0db2cc"/><path d="m102.546875 409.453125c-24.144531-24.144531-57.371094-35.652344-94.191406-35.503906-8.816407.035156-11.542969-11.484375-3.835938-16.261719 68.441407-42.433594 135.59375-52.296875 168.84375-19.050781 33.25 33.25 23.382813 100.402343-19.050781 168.84375-4.777344 7.707031-16.296875 4.980469-16.261719-3.835938.148438-36.820312-11.359375-70.046875-35.503906-94.191406zm0 0" fill="#2ed0e1"/><path d="m200.007812 86.730469c40.957032-40.957031 90.214844-66.003907 137.125-73.59375 76.121094 25.417969 136.3125 85.609375 161.730469 161.730469-7.59375 46.910156-32.636719 96.167968-73.59375 137.125-83.609375 83.609374-201.816406 100.960937-264.019531 38.753906-62.203125-62.203125-44.851562-180.40625 38.757812-264.015625zm0 0" fill="#2ed0e1"/><g fill="#84deea"><path d="m498.871094 174.882812c-7.597656 46.90625-32.648438 96.15625-73.601563 137.109376-72.371093 72.371093-170.65625 95.09375-236.113281 59.558593-8.296875-4.503906-15.132812-11.34375-19.640625-19.640625-35.535156-65.457031-12.8125-163.746094 59.558594-236.113281 18.121093-18.121094 37.867187-33.128906 58.316406-44.886719 50.53125-29.054687 108.59375-18.699218 151.359375 16.839844 20.394531 16.949219 27.089844 43.835938 9.601562 63.769531-.40625.460938-.820312.917969-1.242187 1.367188-4.980469 5.316406-5.753906 12.691406-1.722656 16.464843 4.027343 3.777344 11.335937 2.527344 16.316406-2.789062 9.144531-9.757812 15.605469-20.976562 19.371094-32.601562 7.066406 13.003906 13.042969 26.679687 17.796875 40.921874zm0 0"/><path d="m456.199219 275.441406c-9.015625 12.6875-19.332031 24.953125-30.929688 36.550782-1.765625 1.765624-3.550781 3.488281-5.347656 5.195312.742187-20.636719-6.753906-41.515625-22.507813-57.273438-10.042968-10.042968-22.171874-16.730468-34.988281-20.070312-2.019531-.527344-3.359375-2.402344-3.207031-4.484375 1.597656-21.585937-5.855469-43.714844-22.359375-60.21875-16.507813-16.507813-38.636719-23.960937-60.222656-22.363281-2.078125.15625-3.957031-1.1875-4.484375-3.207032-3.339844-12.816406-10.027344-24.941406-20.070313-34.984374-15.753906-15.757813-36.632812-23.25-57.269531-22.511719 1.703125-1.792969 3.429688-3.578125 5.191406-5.34375 11.601563-11.597657 23.867188-21.917969 36.554688-30.929688 17.707031.597657 35.242187 7.214844 49.164062 19.882813 11.738282 10.683594 19.378906 24.054687 22.9375 38.242187.40625 1.621094 1.921875 2.714844 3.589844 2.578125 21.8125-1.820312 44.25 5.613282 60.9375 22.304688 16.691406 16.6875 24.125 39.125 22.304688 60.9375-.136719 1.667968.953124 3.183594 2.578124 3.589844 14.1875 3.558593 27.558594 11.199218 38.242188 22.9375 12.671875 13.921874 19.289062 31.460937 19.886719 49.167968zm-203.457031 73.226563c-1.625-.40625-2.714844-1.921875-2.578126-3.589844 1.820313-21.8125-5.613281-44.25-22.304687-60.941406-16.6875-16.6875-39.125-24.121094-60.9375-22.304688-1.667969.140625-3.183594-.953125-3.589844-2.574219-3.558593-14.1875-11.199219-27.558593-22.9375-38.242187-3.6875-3.355469-7.625-6.285156-11.753906-8.792969-6.671875 30.125-6.292969 59.644532 1.546875 85.808594.363281.070312.734375.105469 1.121094.078125 21.585937-1.597656 43.714844 5.855469 60.222656 22.363281 16.503906 16.503906 23.957031 38.632813 22.359375 60.21875-.027344.386719.011719.757813.078125 1.121094 26.164062 7.839844 55.683594 8.222656 85.808594 1.550781-2.507813-4.128906-5.4375-8.070312-8.792969-11.757812-10.683594-11.738281-24.054687-19.378907-38.242187-22.9375zm72.664062-72.664063c-1.621094-.410156-2.714844-1.921875-2.574219-3.589844 1.816407-21.8125-5.617187-44.253906-22.304687-60.941406-16.6875-16.691406-39.128906-24.125-60.941406-22.304687-1.667969.136719-3.179688-.953125-3.589844-2.578125-3.554688-14.1875-11.199219-27.558594-22.9375-38.238282-13.515625-12.304687-30.441406-18.898437-47.621094-19.816406-8.472656 12.535156-15.679688 25.441406-21.597656 38.5 13.035156 3.285156 25.382812 10.019532 35.578125 20.214844 10.042969 10.042969 16.730469 22.167969 20.074219 34.988281.523437 2.015625 2.402343 3.359375 4.480468 3.203125 21.585938-1.597656 43.714844 5.855469 60.222656 22.363282 16.507813 16.503906 23.957032 38.636718 22.363282 60.222656-.15625 2.078125 1.1875 3.957031 3.203125 4.480468 12.820312 3.339844 24.945312 10.027344 34.988281 20.074219 10.195312 10.195313 16.929688 22.539063 20.214844 35.578125 13.058594-5.917968 25.964844-13.125 38.5-21.597656-.917969-17.179688-7.515625-34.105469-19.816406-47.621094-10.683594-11.738281-24.054688-19.378906-38.242188-22.9375zm0 0"/><path d="m138.050781 503.644531c.152344-36.820312-11.359375-70.046875-35.503906-94.191406-17.804687-17.804687-40.546875-28.726563-66.023437-33.183594 33.425781-15.882812 65.265624-23.308593 91.515624-20.980469 3.382813.300782 4.875 4.421876 2.472657 6.820313l-21.128907 21.128906c-3.222656 3.226563-3.605468 8.476563-.597656 11.902344 3.300782 3.757813 9.023438 3.894531 12.503906.417969l25.925782-25.925782c1.917968-1.917968 5.199218-1.433593 6.390625 1.007813 8.484375 17.410156 6.238281 41.574219-6.847657 65.433594-2.1875 3.992187-1.140624 9.121093 2.679688 11.589843 4.214844 2.730469 9.78125 1.277344 12.164062-3.039062 10.308594-18.671875 14.945313-37.777344 14.015626-55.015625 8.605468-2.59375-1.167969.351563 7.4375-2.242187 4.328124 7.445312 7.242187 15.90625 8.8125 25.183593-4.058594 28.863281-16.976563 61.746094-37.550782 94.929688-4.78125 7.707031-16.300781 4.980469-16.265625-3.835938zm0 0"/></g><path d="m456.199219 275.441406c-9.015625 12.6875-19.332031 24.953125-30.929688 36.550782-1.765625 1.765624-3.550781 3.488281-5.347656 5.195312.742187-20.636719-6.753906-41.515625-22.507813-57.273438-10.042968-10.042968-22.171874-16.730468-34.988281-20.070312-2.019531-.527344-3.359375-2.402344-3.207031-4.484375 1.597656-21.585937-5.855469-43.714844-22.359375-60.21875-16.507813-16.507813-38.636719-23.960937-60.222656-22.363281-2.078125.15625-3.957031-1.1875-4.484375-3.207032-3.339844-12.816406-10.027344-24.941406-20.070313-34.984374-3.628906-3.628907-7.527343-6.8125-11.632812-9.5625 13.585937-12.199219 42.34375-31.824219 42.667969-31.605469 14.214843 9.578125 22.074218 26.671875 25.542968 40.507812.40625 1.621094 1.921875 2.714844 3.589844 2.578125 21.8125-1.820312 44.25 5.613282 60.941406 22.304688 16.6875 16.6875 24.121094 39.125 22.304688 60.9375-.140625 1.667968.953125 3.183594 2.574218 3.589844 14.1875 3.558593 27.558594 11.199218 38.242188 22.9375 12.671875 13.921874 19.289062 31.460937 19.886719 49.167968zm-203.457031 73.226563c-1.625-.40625-2.714844-1.921875-2.578126-3.589844 1.820313-21.8125-5.613281-44.25-22.304687-60.941406-16.6875-16.6875-39.125-24.121094-60.9375-22.304688-1.667969.140625-3.183594-.953125-3.589844-2.574219-1.386719-5.53125-3.402343-10.933593-6.03125-16.105468-4.109375 19.382812-5.296875 38.496094-3.441406 56.597656 13.804687 3.074219 26.929687 9.980469 37.667969 20.71875 16.507812 16.507812 23.960937 38.636719 22.363281 60.222656-.027344.386719.007813.757813.078125 1.121094 26.164062 7.839844 55.683594 8.21875 85.808594 1.546875-2.507813-4.128906-5.4375-8.066406-8.792969-11.753906-10.683594-11.738281-24.054687-19.378907-38.242187-22.9375zm72.664062-72.664063c-1.621094-.410156-2.714844-1.921875-2.574219-3.589844 1.816407-21.8125-5.617187-44.253906-22.304687-60.941406-16.6875-16.691406-39.128906-24.125-60.941406-22.304687-1.667969.136719-3.179688-.953125-3.589844-2.578125-3.554688-14.1875-11.199219-27.558594-22.9375-38.238282-2.390625-2.175781-4.890625-4.164062-7.476563-5.980468-10.886719 13.964844-20.136719 28.542968-27.699219 43.394531.515626.488281 1.03125.980469 1.535157 1.484375 10.042969 10.042969 16.730469 22.167969 20.070312 34.988281.527344 2.015625 2.40625 3.359375 4.484375 3.203125 21.585938-1.597656 43.714844 5.855469 60.222656 22.363282 16.503907 16.503906 23.957032 38.636718 22.359376 60.222656-.152344 2.078125 1.1875 3.957031 3.207031 4.480468 12.816406 3.339844 24.945312 10.027344 34.988281 20.074219 10.195312 10.195313 16.925781 22.539063 20.214844 35.578125 13.054687-5.917968 25.964844-13.125 38.5-21.597656-.921875-17.179688-7.515625-34.105469-19.816406-47.621094-10.683594-11.738281-24.054688-19.378906-38.242188-22.9375zm0 0" fill="#ade8f0"/><path d="m340 65c0-8.285156 6.714844-15 15-15s15 6.714844 15 15-6.714844 15-15 15-15-6.714844-15-15zm0 0" fill="#2b6c7e"/></svg>