<svg viewBox="0 0 512 512" xmlns="http://www.w3.org/2000/svg"><path d="m512 256c0 141.386719-114.613281 256-256 256-15.53125 0-30.742188-1.390625-45.511719-4.039062-23.375-12.625-48.9375-21.726563-75.976562-26.574219-43.445313-23.46875-79.332031-59.132813-103.082031-102.40625 1.179687-5.386719 1.820312-10.972657 1.820312-16.714844 0-24.609375-11.421875-46.503906-29.1875-60.621094-2.667969-14.8125-4.0625-30.066406-4.0625-45.644531 0-141.386719 114.613281-256 256-256s256 114.613281 256 256zm0 0" fill="#2b6c7e"/><path d="m178.003906 441.476562c58.578125-58.578124 82.003906-130.125 52.324219-159.804687s-101.226563-6.253906-159.804687 52.324219c-12.78125 12.78125-23.882813 26.175781-33.128907 39.617187-1.652343 2.402344-22.964843-45.40625-27.894531-73.472656 11.109375-62.925781 46.425781-126.566406 102.5-182.640625 65.8125-65.8125 140.285156-105.058594 212.046875-108.339844 86.683594 23.84375 148.109375 88.15625 171.953125 174.839844-3.28125 71.761719-38.1875 152.1875-104 218-52.445312 52.445312-109.070312 90.421875-168.339844 103.667969-4.097656.917969-87.675781-29.410157-85.273437-31.0625 13.441406-9.246094 26.835937-20.347657 39.617187-33.128907zm0 0" fill="#fd5ca6"/><path d="m467.363281 274.636719c0 5.523437-4.476562 10-10 10-2.761719 0-5.261719-1.121094-7.070312-2.929688-1.8125-1.808593-2.929688-4.308593-2.929688-7.070312 0-54.308594-20.722656-103.863281-54.675781-141.183594l-19.941406 19.941406c38.953125 42.953125 57.855468 100.492188 53.34375 163.207031-.398438 5.507813-5.183594 9.652344-10.691406 9.257813-2.496094-.179687-4.710938-1.261719-6.351563-2.898437-1.980469-1.984376-3.121094-4.78125-2.90625-7.792969 4.085937-56.808594-12.75-108.816407-47.550781-147.617188l-27.09375 27.09375c38.957031 42.953125 57.855468 100.492188 53.34375 163.207031-.394532 5.507813-5.183594 9.652344-10.691406 9.257813-2.496094-.179687-4.710938-1.261719-6.347657-2.902344-1.984375-1.980469-3.125-4.777343-2.90625-7.792969 4.085938-56.804687-12.753906-108.8125-47.550781-147.613281l-23.605469 23.601563c17.835938 20.167968 30.476563 44.515625 37.601563 72.539062 8.179687 32.1875 8.683594 67.820313 1.5 105.902344-1.027344 5.425781-6.253906 8.996094-11.683594 7.972656-2.050781-.386718-3.835938-1.375-5.210938-2.75-2.257812-2.257812-3.394531-5.554687-2.757812-8.929687 12.257812-64.964844.320312-121.523438-33.613281-160.566407l-16.113281 16.117188c21.53125 29.601562 27.488281 68.136719 16.742187 108.960938-10.839844 41.175781-37.519531 79.949218-75.128906 109.171874-4.023438 3.125-9.6875 2.695313-13.199219-.816406-.292969-.292968-.574219-.609375-.832031-.945312-3.390625-4.363282-2.601563-10.644532 1.757812-14.03125 34.164063-26.546875 58.335938-61.515625 68.0625-98.472656 8.859375-33.65625 4.660157-65.175782-11.765625-89.507813l-12.613281 12.613281c-1.710937-2.917968-3.757813-5.589844-6.15625-7.988281-2.394531-2.394531-5.070313-4.441406-7.984375-6.15625l12.613281-12.609375c-24.332031-16.429688-55.851562-20.625-89.507812-11.765625-36.957031 9.726563-71.929688 33.898437-98.472657 68.058594-3.386718 4.363281-9.671874 5.152343-14.03125 1.761719-4.371093-3.378907-5.148437-9.671876-1.761718-14.03125 29.222656-37.609376 67.996094-64.292969 109.171875-75.132813 40.824219-10.746094 79.359375-4.789063 108.960937 16.746094l16.117188-16.117188c-39.046875-33.933593-95.601563-45.871093-160.566406-33.609375-5.425782 1.023438-10.65625-2.546875-11.679688-7.972656-1.023438-5.429688 2.546875-10.65625 7.972656-11.683594 38.082032-7.183594 73.714844-6.679687 105.902344 1.5 28.023438 7.125 52.371094 19.765625 72.539062 37.601563l23.601563-23.601563c-38.800781-34.800781-90.808594-51.640625-147.613281-47.550781-5.511719.394531-10.296875-3.75-10.695313-9.257813-.394531-5.507812 3.75-10.296874 9.257813-10.691406 62.714844-4.511718 120.253906 14.386719 163.207031 53.34375l27.09375-27.09375c-38.800781-34.796875-90.808594-51.636718-147.617187-47.550781-5.507813.398437-10.296876-3.746094-10.691407-9.253906-.394531-5.511719 3.75-10.296875 9.257813-10.695313 62.714844-4.511718 120.253906 14.390625 163.207031 53.347656l19.941406-19.945312c-37.316406-33.953125-86.875-54.671875-141.183593-54.675781-5.519532 0-10-4.476563-10-10 0-5.523438 4.476562-10 10-10 58.132812 0 112.941406 21.386719 155.441406 60.417969l28.445312-28.445313c3.902344-3.902344 10.234375-3.902344 14.140625 0 3.90625 3.90625 3.90625 10.238281 0 14.144531l-28.445312 28.441406c39.027343 42.5 60.414062 97.308594 60.414062 155.441407zm0 0" fill="#e31e7f"/><path d="m476.824219 292c-17.847657 39.855469-44.578125 79.082031-79.617188 114.121094-56.074219 56.074218-122.875 90.890625-185.800781 102-28.070312-4.929688-54.558594-14.4375-78.683594-27.71875 1.386719-2.167969 3.261719-4.144532 5.664063-5.796875 5.84375-4.015625 11.671875-8.40625 17.449219-13.113281 66.105468 5.101562 144.710937-29.421876 206.015624-90.726563 24.234376-24.230469 44.261719-50.953125 59.339844-78.765625 14.480469-26.703125 24.398438-54.410156 29.054688-81.890625 8.4375-49.832031-1.859375-92.21875-28.996094-119.355469-27.136719-27.140625-69.527344-37.4375-119.359375-28.996094-27.480469 4.652344-55.1875 14.570313-81.890625 29.050782-27.8125 15.078125-54.535156 35.105468-78.765625 59.339844-61.304687 61.304687-95.828125 139.910156-90.726563 206.015624-4.707031 5.777344-9.097656 11.609376-13.113281 17.449219-1.652343 2.402344-3.628906 4.277344-5.796875 5.664063-13.28125-24.125-22.789062-50.613282-27.71875-78.683594 11.109375-62.925781 45.925782-129.726562 102-185.800781 35.039063-35.039063 74.265625-61.769531 114.121094-79.617188 88.964844-39.832031 181.046875-35.339843 236.601562 20.21875 55.558594 55.558594 60.054688 147.640625 20.222657 236.605469zm0 0" fill="#e1ebf0"/><path d="m469.160156 69.707031c-62.453125-48.203125-159.511718-43.898437-249.160156 5.789063-30.492188 16.902344-60.128906 39.042968-87.253906 66.167968-69.027344 69.027344-105.847656 154.3125-105.867188 228.613282-10.824218-21.660156-18.675781-45.0625-23-69.683594 11.105469-62.925781 45.925782-129.726562 102-185.800781 35.039063-35.039063 74.265625-61.769531 114.121094-79.617188 88.964844-39.832031 181.046875-35.339843 236.601562 20.21875 4.53125 4.53125 8.707032 9.320313 12.558594 14.3125zm0 0" fill="#b4d2d7"/></svg>