<svg viewBox="0 0 512 512" xmlns="http://www.w3.org/2000/svg"><path d="m512 256c0 141.386719-114.613281 256-256 256s-256-114.613281-256-256 114.613281-256 256-256 256 114.613281 256 256zm0 0" fill="#fdbf43"/><path d="m491.578125 50.082031c-2.039063 3.453125-4.304687 7.070313-6.777344 10.828125 3.957031 13.25 2.402344 27.96875-4.988281 40.484375-33.210938 56.246094-91.792969 130.738281-165.808594 208.605469-11.445312 12.042969-23.25 24.160156-35.398437 36.308594-51.125 51.128906-101.792969 96.355468-147.90625 132.960937-40.960938-23.035156-74.933594-57.007812-97.96875-97.96875 36.605469-46.113281 81.835937-96.78125 132.960937-147.90625 12.148438-12.148437 24.265625-23.953125 36.308594-35.398437 77.867188-74.015625 152.359375-132.597656 208.605469-165.808594 12.515625-7.390625 27.234375-8.945312 40.484375-4.988281 3.757812-2.472657 7.375-4.738281 10.828125-6.777344 8.464843-5 19.28125-3.78125 26.261719 3.140625.042968.042969.085937.085938.128906.128906.042968.042969.085937.085938.128906.128906 6.921875 6.980469 8.140625 17.796876 3.140625 26.261719zm0 0" fill="#08b772"/><path d="m430.3125 110.9375c4.316406 5.121094 3.082031 12.71875-2.386719 16.582031-10.082031 7.121094-20.515625 14.800781-31.238281 22.988281-2.164062 1.652344-2.449219 4.792969-.617188 6.804688.828126.910156 1.578126 1.949219 2.226563 3.136719 3.726563 6.847656 2.5625 15.527343-3.109375 20.875-6.707031 6.324219-17.269531 6.203125-23.828125-.355469-.777344-.777344-1.460937-1.605469-2.054687-2.480469-1.539063-2.265625-4.75-2.613281-6.871094-.878906-41.800782 34.183594-86.824219 74.910156-132.21875 120.304687-4.035156 4.035157-8.015625 8.0625-11.972656 12.085938-16.339844 16.617188-32.039063 33.152344-46.988282 49.460938-.964844 1.050781-.53125 2.699218.789063 3.222656 2.316406.925781 4.472656 2.375 6.28125 4.351562 6.167969 6.746094 5.847656 17.417969-.703125 23.796875-6.691406 6.519531-17.402344 6.464844-24.03125-.164062-1.253906-1.253907-2.269532-2.65625-3.050782-4.152344-.644531-1.238281-2.371093-1.390625-3.296874-.34375-10.90625 12.390625-17.664063 20.863281-27.578126 32.824219-1.074218 1.300781-.148437 3.242187 1.535157 3.261718 4.582031.054688 9.140625 1.933594 12.492187 5.652344 5.820313 6.449219 5.792969 16.53125-.054687 22.949219-6.621094 7.269531-17.890625 7.464844-24.761719.589844-2.375-2.375-3.898438-5.273438-4.578125-8.328125-.371094-1.65625-2.472656-2.167969-3.527344-.835938-1.726562 2.179688-7.113281 8.085938-8.804687 10.246094-5.816406-4.859375-11.417969-9.960938-16.777344-15.3125 34.769531-44.46875 77.882812-93.484375 126.808594-143.246094 3.992187-4.058594 8.015625-8.121094 12.082031-12.1875 71.734375-71.734375 142.550781-131.84375 201.164063-172.824218 4.742187-3.3125 11.273437-2.535157 15.070312 1.976562zm-107.347656 126.488281c-6.679688 6.683594-6.679688 17.515625 0 24.195313 6.683594 6.683594 17.515625 6.683594 24.195312 0 6.683594-6.679688 6.683594-17.511719 0-24.195313-6.679687-6.679687-17.511718-6.679687-24.195312 0zm165.472656-213.605469c-.042969-.042968-.085938-.085937-.128906-.128906-.042969-.042968-.085938-.085937-.132813-.128906-6.976562-6.921875-17.792969-8.140625-26.257812-3.140625-3.453125 2.039063-7.070313 4.304687-10.828125 6.777344-13.25-3.957031-27.972656-2.402344-40.488282 4.988281-56.242187 33.210938-130.734374 91.792969-208.601562 165.808594-12.042969 11.445312-24.160156 23.25-36.308594 35.398437-51.128906 51.125-96.355468 101.792969-132.960937 147.90625 7.785156 13.847657 16.820312 26.894531 26.957031 38.992188 37.503906-47.890625 84.636719-101.011719 138.265625-154.636719 1.347656-1.351562 2.699219-2.6875 4.046875-4.03125 1.730469-1.722656 3.460938-3.4375 5.191406-5.148438 1.554688-1.535156 3.949219-1.742187 5.792969-.570312 6.617187 4.207031 15.488281 3.425781 21.261719-2.347656 5.625-5.625 6.5-14.183594 2.652344-20.734375-1.125-1.917969-.746094-4.371094.867187-5.898438 61.78125-58.433593 121.28125-107.019531 171.058594-140.792969 1.554687-1.054687 3.617187-1.105468 5.152343-.027343 6.675782 4.679687 15.945313 4.039062 21.90625-1.921875 4.042969-4.042969 5.625-9.605469 4.769532-14.847656-.3125-1.933594.496094-3.875 2.179687-4.871094.011719-.003906.023438-.011719.03125-.019532 12.519531-7.390624 27.238281-8.945312 40.488281-4.984374 1.382813-.914063 2.742188-1.789063 4.085938-2.640626 1.464844-2.304687 2.851562-4.558593 4.140625-6.742187 5-8.460937 3.78125-19.277344-3.140625-26.257813zm-246.125 270.066407c-4.371094 4.371093-5.863281 10.511719-4.515625 16.113281.710937 2.960938 2.203125 5.769531 4.515625 8.082031 6.679688 6.679688 17.511719 6.679688 24.195312 0 2.308594-2.3125 3.800782-5.121093 4.515626-8.082031 1.347656-5.601562-.144532-11.742188-4.515626-16.113281-6.683593-6.683594-17.515624-6.683594-24.195312 0zm0 0" fill="#06995f"/></svg>