<svg viewBox="0 0 512 512" xmlns="http://www.w3.org/2000/svg"><path d="m512 256c0 141.386719-114.613281 256-256 256-1.230469 0-2.453125-.027344-3.679688-.046875-5.210937-135.523437-115.761718-244.019531-252.105468-245.941406-.1289065-3.324219-.214844-6.65625-.214844-10.011719 0-141.386719 114.613281-256 256-256s256 114.613281 256 256zm0 0" fill="#e43950"/><path d="m475.265625 239.894531c-38.648437 28.957031-86.835937 38.007813-129.652344 26.667969 6.242188 24.839844 1.539063 48.476562-3.789062 77.109375-4.203125 22.59375-6.910157 49.804687-17.953125 72.75-7.148438 14.847656-15.691406 29.582031-25.59375 43.964844-7.011719 10.183593-17.703125 16.195312-26.058594 25.945312-6.117188 7.136719-9.589844 18.132813-16.414062 24.957031-.234376.234376-.476563.464844-.710938.699219-137.96875-.476562-250.207031-110.09375-254.921875-247.03125 1.519531-1.570312 3.054687-3.136719 4.609375-4.691406 8.726562-8.722656 17.734375-11.875 26.953125-19.441406 13.378906-10.976563 27.207031-25.726563 41.269531-34.203125 25.472656-15.351563 51.71875-26.542969 77.476563-33.339844 14.546875-3.839844 28.941406-3.277344 42.949219-4.273438 14.003906-.996093 27.625-3.546874 40.632812-1.617187 5.253906.78125 10.410156 1.800781 15.449219 3.066406-11.339844-42.8125-2.289063-91.003906 26.667969-129.652343 5.230468-6.980469 15.25-8.382813 23.121093-3.285157 33.269531 21.558594 66.84375 48.625 98.734375 80.515625s58.957032 65.464844 80.515625 98.738282c5.101563 7.871093 3.699219 17.890624-3.285156 23.121093zm0 0" fill="#fde5bd"/><path d="m504.277344 178.535156c-55.445313 48.261719-117.339844 73.742188-164.304688 70.363282 7.601563 19.378906 8.058594 40.984374 7.558594 63.789062-.730469 33.101562-6.804688 68.726562-23.660156 103.734375-7.144532 14.847656-15.691406 29.582031-25.589844 43.964844-6.960938 10.109375-14.589844 14.046875-22.871094 23.726562-6.171875 7.210938-12.710937 20.28125-19.601562 27.175781-.238282.234376-.472656.464844-.710938.699219-112.625-.390625-208.113281-73.507812-241.957031-174.84375 12.417969-17.132812 26.597656-33.828125 42.488281-49.722656 60.570313-60.570313 132.785156-96.4375 196.5625-103.371094 5.3125-.578125 10.625-.5625 15.847656.007813-7.109374-47.777344 18.460938-113.628906 69.496094-172.261719 6.042969-6.941406 15.96875-9.070313 24.273438-5.105469 30.613281 14.609375 60.003906 35.121094 86.226562 61.34375 26.226563 26.226563 46.738282 55.617188 61.347656 86.230469 3.964844 8.304687 1.835938 18.226563-5.105468 24.269531zm0 0" fill="#fff5f5"/><path d="m448.285156 153.453125c-44.199218 38.296875-87.121094 64.898437-118.714844 74.5-5.128906-8.355469-11.195312-16.132813-18.257812-23.195313-.085938-.085937-.171875-.171874-.261719-.261718-8.335937-8.285156-18.488281-14.257813-29.476562-17.640625 8.054687-32.003907 35.488281-77.339844 76.003906-124.109375.894531-1.027344 2.476563-1.082032 3.441406-.121094.820313.820312.910157 2.125.214844 3.058594-43.5 58.460937-62.722656 109.71875-44.164063 128.277344 18.5625 18.558593 69.820313-.660157 128.28125-44.160157.933594-.695312 2.238282-.605469 3.058594.214844.960938.964844.90625 2.546875-.125 3.4375zm0 0" fill="#fde5bd"/><path d="m298.269531 460.382812c-12.148437 17.644532-26.320312 34.761719-42.464843 50.90625-.234376.234376-.472657.464844-.710938.699219-2.742188-.011719-5.476562-.074219-8.199219-.167969-5.105469-4.507812-10.109375-9.191406-14.996093-14.078124-89.203126-89.207032-116.726563-215.875-81.417969-324.457032 29.097656-7.679687 57.566406-9.765625 83.582031-5.90625-44.59375 88.730469-27.789062 202.164063 49.121094 279.074219 4.886718 4.886719 9.921875 9.527344 15.085937 13.929687zm-98.605469 45.382813c-23.710937-11.824219-46.039062-27.683594-65.921874-47.570313-69.164063-69.160156-89.714844-167.851562-60.730469-251.5625-23.761719 14.320313-46.847657 32.253907-68.230469 53.632813-1.554688 1.558594-3.089844 3.125-4.609375 4.699219 4.066406 118.035156 88.023437 215.765625 199.492187 240.800781zm111.648438-301.007813c-4.570312-4.570312-9.445312-8.722656-14.578125-12.480468-18.6875 73.585937-9.527344 153.769531 27.132813 224.140625 38.378906-79.722657 36.445312-162.660157-12.554688-211.660157zm0 0" fill="#fdbf43"/><path d="m234.066406 167.382812c-3.503906 6.96875-6.605468 14.101563-9.351562 21.347657-28.125 6.425781-57.269532 18.023437-85.871094 34.484375 2.46875-16.925782 6.339844-33.628906 11.636719-49.925782 29.097656-7.683593 57.570312-9.769531 83.585937-5.90625zm-233.894531 97.582032c.867187 25.148437 5.351563 49.382812 12.96875 72.183594 12.410156-17.136719 26.59375-33.832032 42.484375-49.722657 1.542969-1.542969 3.09375-3.058593 4.652344-4.566406.015625-25.949219 4.25-51.730469 12.734375-76.226563-23.761719 14.320313-46.847657 32.253907-68.230469 53.632813-1.554688 1.558594-3.089844 3.125-4.609375 4.699219zm0 0" fill="#fda800"/></svg>