<svg viewBox="0 0 512 512" xmlns="http://www.w3.org/2000/svg"><path d="m512 256c0 141.386719-114.613281 256-256 256s-256-114.613281-256-256 114.613281-256 256-256 256 114.613281 256 256zm0 0" fill="#04d481"/><path d="m358.304688 353.097656c1.953124 1.953125 1.953124 5.117188 0 7.070313l-147.796876 147.800781c-104.917968-18.820312-187.65625-101.558594-206.476562-206.476562l147.800781-147.796876c1.953125-1.953124 5.117188-1.953124 7.070313 0l4.007812 4.007813c3.523438 3.523437 5.15625 8.515625 4.390625 13.441406l-2.164062 13.949219c-.207031 1.335938.949219 2.488281 2.285156 2.28125l13.949219-2.164062c4.921875-.765626 9.914062.867187 13.4375 4.390624 3.523437 3.523438 5.15625 8.515626 4.390625 13.4375l-2.164063 13.949219c-.207031 1.335938.945313 2.492188 2.28125 2.285157l13.949219-2.167969c4.925781-.761719 9.917969.867187 13.441406 4.390625 3.523438 3.523437 5.152344 8.515625 4.390625 13.441406l-2.164062 13.949219c-.210938 1.335937.945312 2.488281 2.28125 2.28125l13.949218-2.164063c4.925782-.765625 9.914063.867188 13.4375 4.390625 3.523438 3.523438 5.15625 8.515625 4.390626 13.4375l-2.164063 13.949219c-.207031 1.335938.945313 2.492188 2.285156 2.285156l13.949219-2.164062c4.921875-.765625 9.914062.867187 13.4375 4.386718 3.523438 3.523438 5.152344 8.519532 4.390625 13.441407l-2.164063 13.949219c-.207031 1.335937.945313 2.492187 2.28125 2.28125l13.949219-2.164063c4.925781-.765625 9.917969.867187 13.441407 4.390625 3.523437 3.523438 5.152343 8.515625 4.386718 13.4375l-2.164062 13.949219c-.207032 1.335937.949218 2.492187 2.285156 2.285156l13.949219-2.164063c4.921875-.765624 9.914062.867188 13.4375 4.390626zm0 0" fill="#962437"/><path d="m398.902344 288.042969-191.191406 191.191406c-5.855469 5.859375-15.355469 5.859375-21.210938 0-5.859375-5.859375-5.859375-15.355469 0-21.214844l10.605469-10.605469c-5.859375 5.859376-15.355469 5.859376-21.210938 0-5.859375-5.859374-5.859375-15.355468 0-21.214843l-10.609375 10.609375c-5.855468 5.855468-15.351562 5.855468-21.210937 0-5.859375-5.859375-5.859375-15.355469 0-21.214844l-26.359375 26.363281c-5.859375 5.855469-15.355469 5.855469-21.214844 0-5.855469-5.859375-5.855469-15.355469 0-21.214843l51.109375-51.109376c-5.855469 5.859376-15.355469 5.859376-21.210937 0-5.859376-5.855468-5.859376-15.355468 0-21.210937l38.582031-38.582031c-5.851563 4.117187-13.984375 3.574218-19.21875-1.660156-5.859375-5.855469-5.859375-15.355469 0-21.210938l35.484375-35.484375c-5.859375 5.859375-15.355469 5.859375-21.214844 0-5.855469-5.859375-5.855469-15.355469 0-21.214844l-118.402344 118.398438c-5.855468 5.855469-15.355468 5.855469-21.210937 0-5.859375-5.859375-5.859375-15.355469 0-21.214844l208.59375-208.597656c5.859375-5.855469 15.355469-5.855469 21.214843 0 5.859376 5.859375 5.859376 15.355469 0 21.214843l118.398438-118.398437c5.859375-5.859375 15.355469-5.859375 21.214844 0 5.855468 5.855469 5.855468 15.355469 0 21.210937l-35.484375 35.484376c5.859375-5.855469 15.355469-5.855469 21.210937 0 5.859375 5.859374 5.859375 15.355468 0 21.214843l-55.988281 55.988281c5.851563-4.121093 13.984375-3.578124 19.21875 1.65625 5.859375 5.859376 5.859375 15.355469 0 21.214844l-51.109375 51.109375c5.859375-5.859375 15.355469-5.859375 21.214844 0 5.859375 5.855469 5.859375 15.355469 0 21.210938l26.359375-26.359375c5.859375-5.859375 15.355469-5.859375 21.214843 0 5.859376 5.859375 5.859376 15.355468 0 21.210937l10.605469-10.605469c5.859375-5.855468 15.355469-5.855468 21.214844 0 5.855469 5.859376 5.855469 15.355469 0 21.214844l-10.609375 10.605469c5.859375-5.855469 15.355469-5.855469 21.214844 0 5.859375 5.859375 5.859375 15.359375 0 21.214844zm0 0" fill="#fded32"/><path d="m343.039062 163.773438c1.417969 5.050781.148438 10.695312-3.824218 14.667968l-208.597656 208.597656c-3.972657 3.972657-9.617188 5.242188-14.667969 3.828126-1.417969-5.050782-.144531-10.695313 3.824219-14.671876l208.597656-208.59375c3.972656-3.972656 9.617187-5.242187 14.667968-3.828124zm-88.984374-38.371094c-5.050782-1.417969-10.699219-.148438-14.671876 3.824218l-208.597656 208.597657c-3.972656 3.972656-5.238281 9.617187-3.824218 14.667969 5.050781 1.417968 10.695312.148437 14.667968-3.824219l208.597656-208.597657c3.972657-3.972656 5.242188-9.617187 3.828126-14.667968zm-87.480469 129.90625c5.050781 1.414062 10.695312.144531 14.667969-3.828125l208.597656-208.597657c3.972656-3.972656 5.242187-9.617187 3.824218-14.667968-5.050781-1.414063-10.695312-.144532-14.667968 3.828125l-208.597656 208.59375c-3.972657 3.972656-5.242188 9.621093-3.824219 14.671875zm212.820312-170.394532c-5.050781-1.417968-10.695312-.148437-14.667969 3.824219l-208.597656 208.597657c-3.972656 3.972656-5.242187 9.617187-3.828125 14.667968 5.050781 1.417969 10.695313.148438 14.671875-3.824218l208.59375-208.597657c3.972656-3.972656 5.242188-9.617187 3.828125-14.667969zm13.144531 156.640626c-5.050781-1.414063-10.695312-.144532-14.671874 3.828124l-208.59375 208.59375c-3.972657 3.972657-5.242188 9.621094-3.828126 14.671876 5.050782 1.414062 10.699219.144531 14.671876-3.828126l208.59375-208.597656c3.972656-3.972656 5.242187-9.617187 3.828124-14.667968zm-79.394531-5.457032c-5.050781-1.417968-10.695312-.148437-14.667969 3.824219l-192.792968 192.796875c-3.972656 3.972656-5.246094 9.617188-3.828125 14.667969 5.050781 1.414062 10.695312.144531 14.667969-3.828125l192.792968-192.792969c3.972656-3.972656 5.246094-9.617187 3.828125-14.667969zm90 37.277344c-5.050781-1.414062-10.695312-.144531-14.667969 3.824219l-202.191406 202.457031c-3.972656 3.976562-5.238281 9.621094-3.824218 14.671875 5.050781 1.414063 10.695312.144531 14.667968-3.828125l202.191406-202.457031c3.96875-3.972657 5.242188-9.617188 3.824219-14.667969zm-42.425781-42.425781c-5.050781-1.417969-10.695312-.144531-14.667969 3.824219l-208.597656 208.597656c-3.972656 3.972656-5.242187 9.617187-3.824219 14.667968 5.046875 1.417969 10.695313.148438 14.667969-3.824218l208.59375-208.597656c3.972656-3.972657 5.246094-9.617188 3.828125-14.667969zm0 0" fill="#fcf498"/><path d="m250.226562 118.855469c5.859376 5.859375 5.859376 15.355469 0 21.214843-5.859374 5.859376-15.355468 5.859376-21.214843 0-5.855469-5.859374-5.855469-15.355468 0-21.214843 5.859375-5.855469 15.355469-5.855469 21.214843 0zm139.613282-75.972657c5.855468-5.855468 5.855468-15.355468 0-21.210937-5.859375-5.859375-15.355469-5.859375-21.214844 0-5.855469 5.855469-5.855469 15.355469 0 21.210937 5.859375 5.859376 15.355469 5.859376 21.214844 0zm-14.273438 56.699219c5.859375-5.859375 5.859375-15.355469 0-21.214843-5.855468-5.855469-15.351562-5.855469-21.210937 0-5.859375 5.859374-5.859375 15.355468 0 21.214843s15.355469 5.859375 21.210937 0zm-87.460937 129.96875c-5.859375 5.859375-5.859375 15.355469 0 21.214844 5.859375 5.855469 15.355469 5.855469 21.210937 0 5.859375-5.859375 5.859375-15.355469 0-21.214844-5.855468-5.855469-15.351562-5.855469-21.210937 0zm47.574219-5.144531c-5.859376 5.855469-5.859376 15.355469 0 21.210938 5.855468 5.859374 15.355468 5.859374 21.210937 0 5.859375-5.855469 5.859375-15.355469 0-21.210938-5.855469-5.859375-15.355469-5.859375-21.210937 0zm3.535156-67.175781c-5.859375-5.859375-15.355469-5.859375-21.214844 0-5.855469 5.855469-5.855469 15.355469 0 21.210937 5.859375 5.859375 15.355469 5.859375 21.214844 0 5.855468-5.855468 5.855468-15.355468 0-21.210937zm60.101562 109.601562c-5.855468-5.859375-15.351562-5.859375-21.210937 0-5.859375 5.855469-5.859375 15.355469 0 21.210938 5.859375 5.859375 15.355469 5.859375 21.210937 0 5.859375-5.855469 5.859375-15.355469 0-21.210938zm-10.605468-10.609375c5.859374-5.855468 5.859374-15.355468 0-21.210937-5.855469-5.859375-15.355469-5.859375-21.210938 0-5.859375 5.855469-5.859375 15.355469 0 21.210937 5.855469 5.859375 15.355469 5.859375 21.210938 0zm0 0" fill="#e8ce00"/><path d="m337.09375 374.3125c1.953125 1.953125 1.953125 5.117188 0 7.070312l-126.585938 126.585938c-104.917968-18.820312-187.65625-101.558594-206.476562-206.476562l126.585938-126.585938c1.953124-1.953125 5.117187-1.953125 7.070312 0l4.011719 4.011719c3.523437 3.523437 5.152343 8.515625 4.390625 13.4375l-2.164063 13.949219c-.207031 1.335937.945313 2.492187 2.28125 2.285156l13.949219-2.167969c4.925781-.761719 9.917969.867187 13.441406 4.390625 3.519532 3.523438 5.152344 8.515625 4.386719 13.441406l-2.164063 13.945313c-.207031 1.339843.949219 2.492187 2.285157 2.285156l13.949219-2.164063c4.921874-.765624 9.914062.867188 13.4375 4.390626 3.523437 3.523437 5.15625 8.515624 4.390624 13.4375l-2.164062 13.949218c-.207031 1.335938.945312 2.492188 2.285156 2.285156l13.945313-2.164062c4.925781-.765625 9.917969.867188 13.441406 4.386719 3.523437 3.523437 5.152344 8.515625 4.390625 13.441406l-2.164062 13.949219c-.207032 1.335937.945312 2.488281 2.28125 2.28125l13.949218-2.164063c4.925782-.765625 9.917969.867188 13.4375 4.390625 3.523438 3.523438 5.15625 8.515625 4.390625 13.4375l-2.164062 13.949219c-.207031 1.335937.949219 2.492187 2.285156 2.285156l13.949219-2.164062c4.921875-.765625 9.914062.867187 13.4375 4.386719 3.523437 3.523437 5.15625 8.515624 4.390625 13.441406l-2.164063 13.949218c-.207031 1.335938.945313 2.488282 2.28125 2.28125l13.949219-2.164062c4.925781-.761719 9.917969.867188 13.441406 4.390625zm0 0" fill="#e43950"/><path d="m141.699219 178.917969c3.523437 3.523437 5.152343 8.515625 4.390625 13.4375l-1.226563 7.90625-132.988281 132.988281c-3.261719-10.320312-5.898438-20.917969-7.84375-31.757812l126.585938-126.585938c1.953124-1.953125 5.121093-1.953125 7.074218 0zm0 0" fill="#c92e43"/><path d="m177.777344 461.503906c-25.3125-.671875-57.195313-16.066406-84.203125-43.078125-27.011719-27.007812-42.40625-58.890625-43.078125-84.203125l43.726562-43.722656c25.3125.667969 57.191406 16.066406 84.203125 43.074219 27.011719 27.007812 42.40625 58.890625 43.074219 84.203125zm0 0" fill="#fde803"/><path d="m155.449219 314.121094-81.328125 81.328125c-4.105469-5.789063-7.714844-11.652344-10.789063-17.492188l74.625-74.625c5.839844 3.074219 11.703125 6.683594 17.492188 10.789063zm29.855469 26.71875-84.464844 84.464844c5.128906 4.601562 10.386718 8.800781 15.710937 12.574218l81.328125-81.328125c-3.773437-5.324219-7.972656-10.582031-12.574218-15.710937zm18.214843 24.207031-78.472656 78.472656c6.195313 3.832031 12.421875 7.082031 18.5625 9.722657l69.632813-69.632813c-2.640626-6.140625-5.890626-12.363281-9.722657-18.5625zm-96.613281-73.089844-54.949219 54.949219c1.359375 6.917969 3.644531 14.140625 6.800781 21.484375l69.628907-69.632813c-7.339844-3.15625-14.5625-5.441406-21.480469-6.800781zm56.605469 28.246094-83.308594 83.308594c4.074219 5.082031 8.535156 10.078125 13.371094 14.914062l84.851562-84.851562c-4.835937-4.835938-9.832031-9.296875-14.914062-13.371094zm53.601562 73.679687-63.230469 63.230469c8.34375 2.695313 16.40625 4.191407 23.894532 4.386719l43.726562-43.722656c-.199218-7.488282-1.695312-15.554688-4.390625-23.894532zm0 0" fill="#fdf061"/><path d="m211 428.277344-8.785156 8.785156c-.667969-25.3125-16.066406-57.195312-43.074219-84.203125s-58.890625-42.40625-84.203125-43.074219l8.785156-8.785156 10.5-10.503906c25.3125.671875 57.195313 16.066406 84.203125 43.078125 27.011719 27.007812 42.40625 58.890625 43.078125 84.203125zm0 0" fill="#e8ce00"/><path d="m117.886719 309.261719-8.785157 8.78125c-7.339843-3.15625-14.566406-5.441407-21.480468-6.800781l19.285156-19.285157c6.917969 1.359375 14.140625 3.644531 21.484375 6.800781zm99.226562 84.621093-8.785156 8.785157-10.503906 10.5c2.695312 8.34375 4.195312 16.40625 4.390625 23.894531l8.785156-8.78125 10.503906-10.503906c-.199218-7.488282-1.695312-15.554688-4.390625-23.894532zm-47.472656-51.527343 8.785156-8.78125c-4.835937-4.839844-9.832031-9.296875-14.914062-13.371094l-19.285157 19.285156c5.082032 4.074219 10.078126 8.535157 14.914063 13.371094zm-22.972656-19.449219 8.785156-8.785156c-5.792969-4.105469-11.65625-7.714844-17.496094-10.789063l-10.5 10.503907-8.785156 8.78125c5.839844 3.078124 11.703125 6.683593 17.492187 10.789062l8.785157-8.78125zm57.789062 69.488281 8.785157-8.785156c-2.640626-6.140625-5.886719-12.367187-9.722657-18.5625l-8.78125 8.785156-10.503906 10.503907c3.832031 6.195312 7.082031 12.417968 9.722656 18.5625zm-15.363281-27.0625 8.785156-8.785156c-3.773437-5.320313-7.972656-10.578125-12.574218-15.710937l-19.285157 19.285156c4.601563 5.132812 8.796875 10.390625 12.574219 15.714844l8.78125-8.785157zm0 0" fill="#fde803"/></svg>